<svg width="208.408" height="208.408" viewBox="0 0 55.141 55.141" xml:space="preserve" xmlns="http://www.w3.org/2000/svg"><path style="fill:#fff;stroke-width:.573157" d="M-596.28-321.3c-30.042.018-60.084.005-90.126.007l-207.948-.003c-.462 8.17-.555 16.361-1.414 24.503a102.403 102.403 0 0 1-6.09 25.002c-3.263 8.566-7.59 16.728-12.91 24.196-6.446 9.059-14.301 17.095-23.171 23.795a108.347 108.347 0 0 1-25.078 14.164c-10.676 4.277-22.045 6.843-33.533 7.402-4.746.24-9.5.073-14.25.214-1.856.27-3.318 2.059-3.286 3.921.01 4.351 0 8.702.01 13.053.01 24.128.01 48.256.01 72.383h-83.786c6.639 9.821 12.857 19.917 19.087 30.002a477085.6 477085.6 0 0 1 22.721 36.76c-11.181 18.143-22.383 36.274-33.5 54.456-.921 1.415-1.499 3.088-1.439 4.788.047 1.727.761 3.407 1.907 4.69 1.327 1.504 3.235 2.5 5.241 2.651 3.506.442 7.046.34 10.57.4 12.411.099 24.823.073 37.234.09l21.985.014c.012 34.504.028 69.009.078 103.513.024 15.013.05 30.026.104 45.04.04 9.906.076 19.812.175 29.717.046 4.11.1 8.22.201 12.329.21 4.02 1.14 7.954 2.076 11.856 2.916 11.8 7.987 23.052 14.8 33.113 6.906 10.236 15.58 19.283 25.548 26.574 8.792 6.445 18.45 11.643 28.474 15.894 7.9 3.345 16.079 6.018 24.405 8.082 5.837 1.462 11.742 2.627 17.656 3.73 7.852 1.5 15.706 3.007 23.48 4.88 13.426 3.162 26.696 7.005 39.676 11.686 12.366 4.471 24.487 9.69 36.083 15.906 7.014 3.755 13.844 7.861 20.401 12.367 3.881 2.677 7.674 5.49 11.257 8.557 3.454 2.98 6.714 6.186 10.01 9.341a130.007 130.007 0 0 1 9.079 9.719c1.11 1.263 2.449 2.398 4.064 2.941 2.061.71 4.41.365 6.252-.773.79-.469 1.454-1.111 2.066-1.789 1.203-1.305 2.42-2.598 3.608-3.917 3.057-3.362 6.101-6.757 9.471-9.809 9.999-9.334 21.346-17.148 33.251-23.838 12.836-7.216 26.322-13.227 40.11-18.367 13.657-5.058 27.697-8.989 41.872-12.295 5.794-1.342 11.618-2.544 17.453-3.688 9.116-1.809 18.25-3.594 27.205-6.099 7.377-2.047 14.64-4.534 21.65-7.619 11.383-4.98 22.182-11.388 31.732-19.36 7.452-6.232 14.104-13.438 19.602-21.453 5.95-8.642 10.581-18.18 13.77-28.172 1.572-4.907 2.836-9.909 3.844-14.96.225-1.132.379-2.28.396-3.434.05-1.793-.011-3.587.017-5.38l.162-187.168c21.18-.015 42.362-.003 63.543-.173 2.556-.04 5.122-.04 7.662-.355 1.877-.348 3.523-1.568 4.577-3.136.983-1.475 1.41-3.33 1.073-5.08-.244-1.42-.908-2.728-1.694-3.921-10.038-16.526-20.166-32.996-30.267-49.483l-2.71-4.418c2.309-4.166 4.847-8.197 7.306-12.273 7.861-12.862 15.81-25.67 23.578-38.587 1.085-1.844 2.216-3.664 3.2-5.565.772-1.758.914-3.836.173-5.63-.984-2.595-3.557-4.507-6.331-4.68-2.505-.285-5.032-.23-7.548-.319-11.592-.21-23.187-.18-34.78-.206l-27.683-.019.067-86.493c-6.847-.13-13.711.122-20.541-.442a121.078 121.078 0 0 1-14.865-2.269 102.02 102.02 0 0 1-16.783-5.21c-13.187-5.37-25.288-13.417-35.369-23.476-10.333-10.284-18.643-22.625-24.106-36.142-4.19-10.345-6.742-21.345-7.372-32.489-.196-3.39-.18-6.802-.191-10.203-.007-2.087.007-4.174-.038-6.26-.012-.791-.454-1.527-1.042-2.033-.582-.498-1.349-.791-2.12-.75zm-.466.238c.062.07-.051 0 0 0z" transform="matrix(.07219 0 0 .07219 81.529 25.207)"/><path style="fill:#fecece;stroke-width:.125252" d="M-58.605 288.107c0-.026.098-.125.219-.22.198-.155.203-.15.047.048-.164.208-.266.275-.266.172zm-3.448-1.487-.999-1.034 1.033 1c.96.927 1.09 1.067 1 1.067-.02 0-.484-.465-1.034-1.033zm6.266-1.347c.124-.138.255-.25.289-.25.034 0-.04.112-.164.25-.125.138-.255.25-.29.25-.034 0 .04-.112.165-.25zm-2.756-.5c.34-.345.645-.627.68-.627.034 0-.215.282-.555.626-.339.345-.645.626-.679.626-.035 0 .215-.281.554-.626zm-3.21-.972c-.156-.198-.151-.203.048-.047.12.095.219.193.219.22 0 .102-.103.036-.267-.173zm4.525-.203c0-.026.099-.125.22-.22.198-.155.203-.151.047.048-.164.208-.267.275-.267.172zm-2.066-.58c.124-.137.255-.25.289-.25.034 0-.04.113-.164.25-.125.138-.255.251-.29.251-.034 0 .04-.113.165-.25zm-3.46-.093c-.157-.199-.152-.203.047-.048.12.095.219.194.219.22 0 .103-.103.036-.267-.172zm2.003-.627c-.156-.198-.151-.203.048-.047.208.164.275.267.171.267-.026 0-.124-.099-.219-.22zm.752-.876c-.156-.199-.152-.203.047-.048.209.164.275.267.172.267-.026 0-.125-.099-.22-.22zm1.018-.204c0-.026.098-.125.219-.22.199-.155.203-.15.047.048-.163.209-.266.275-.266.172zM-109.6 265.89c-.156-.198-.151-.203.047-.047.12.095.22.193.22.22 0 .102-.103.036-.267-.173zm101.282-1.283c.125-.138.255-.25.29-.25.034 0-.04.112-.165.25-.124.137-.254.25-.289.25-.034 0 .04-.113.164-.25zm-100.28-.72c-.156-.2-.151-.204.047-.048.12.095.22.193.22.22 0 .102-.103.036-.267-.173zm42.598-1.003-.81-.845.845.81c.465.446.845.827.845.846 0 .092-.127-.025-.88-.81zm-46.105.501c-.156-.198-.151-.203.047-.047.209.164.275.267.172.267-.026 0-.124-.099-.219-.22zm59.323-.657c.478-.482.898-.877.932-.877.035 0-.328.395-.807.877-.479.482-.898.877-.933.877-.034 0 .33-.395.808-.877zm45.529.704c0-.026.098-.125.219-.22.199-.155.203-.15.047.048-.163.209-.266.275-.266.172zm-2.568-.454c.125-.137.255-.25.29-.25.034 0-.04.113-.165.25-.124.138-.254.25-.289.25-.034 0 .04-.112.164-.25zm-75.738.04c.09-.036.198-.032.24.01.042.042-.032.071-.164.066-.146-.006-.176-.036-.076-.076zm73.045.038c0-.026.099-.124.22-.219.198-.156.203-.151.047.047-.164.21-.267.275-.267.172zm-64.318-.431c.034-.034-.007-.152-.091-.261-.094-.123-.045-.107.126.039.332.283.332.283.092.283-.104 0-.16-.028-.127-.061zm32.032-.398c0-.241.026-.34.058-.22.031.121.031.319 0 .44-.032.12-.058.021-.058-.22zm-65.485-.031-.238-.282.281.238c.155.132.282.258.282.282 0 .1-.1.026-.325-.238zm29.196.03c.125-.137.255-.25.29-.25.034 0-.04.113-.165.25-.125.139-.255.251-.29.251-.034 0 .04-.112.165-.25zm-25.254-.344c-.156-.198-.152-.203.047-.047.12.095.22.193.22.22 0 .102-.104.036-.267-.173zm97.524-.03c.125-.139.255-.251.29-.251.034 0-.04.112-.165.25-.124.138-.254.25-.289.25-.034 0 .04-.112.164-.25zm-35.123-.074c.006-.146.036-.176.076-.076.036.09.031.199-.01.24-.042.042-.072-.032-.066-.164zm-43.598-.283c.104-.054.611-.061 1.128-.016l.939.081-1.127.017c-.62.009-1.043-.028-.94-.082zm54 .048c.09-.09 1.987-.11 2.075-.022.044.044-.418.08-1.026.08-.609 0-1.081-.026-1.05-.058zm-10.402-.266c.006-.146.036-.176.076-.076.036.09.031.199-.01.24-.042.042-.072-.032-.066-.164zm32.055-.365c.233-.241.453-.439.487-.439.034 0-.129.198-.362.439-.234.24-.453.438-.488.438-.034 0 .129-.197.363-.438zm-97.02.031-.239-.282.282.239c.265.224.34.325.239.325-.024 0-.15-.127-.282-.282zm22.972.196c.09-.036.199-.031.24.01.042.042-.032.071-.164.066-.146-.006-.176-.036-.076-.076zm75.801-.462c0-.026.099-.125.22-.22.198-.155.202-.151.047.048-.164.208-.267.275-.267.172zm-74.924-.164c.09-.036.198-.032.24.01.042.042-.032.071-.164.066-.146-.006-.176-.036-.076-.076zm1.401-.047c0-.073.057-.098.125-.055.07.042.126.102.126.132 0 .03-.057.056-.126.056-.068 0-.125-.06-.125-.133zm-24.565-.462c-.156-.2-.152-.203.047-.048.12.095.22.193.22.22 0 .103-.104.036-.267-.172zm52.598.133c.09-.036.199-.031.24.01.042.042-.032.071-.164.066-.146-.006-.176-.036-.076-.076zm44.739-.337c0-.026.098-.125.219-.22.198-.155.203-.15.047.048-.164.208-.266.275-.266.172zm-22.893-2.458c0-.241.026-.34.058-.22.031.121.031.319 0 .44-.032.12-.058.021-.058-.22zm.75-.619c-.005-.21.008-.383.03-.383.096 0 .154.488.072.62-.05.081-.095-.024-.101-.237zm-8.795.196c0-.026.099-.125.22-.22.198-.155.203-.15.047.048-.164.209-.267.275-.267.172zm.69-.83c.042-.068.101-.125.132-.125.03 0 .055.057.055.125 0 .07-.06.126-.133.126-.073 0-.097-.057-.055-.126zm11.835-.047c0-.026.1-.124.22-.219.198-.156.203-.151.047.047-.164.209-.266.275-.266.172zm-63.901-.163c.09-.037.198-.032.24.01.041.041-.033.07-.165.065-.146-.006-.175-.035-.075-.075zm.876 0c.09-.037.199-.032.24.01.042.041-.032.07-.164.065-.146-.006-.176-.035-.076-.075zm65.382 0c.09-.037.198-.032.24.01.041.041-.033.07-.165.065-.145-.006-.175-.035-.075-.075zm.877 0c.09-.037.198-.032.24.01.041.041-.033.07-.165.065-.146-.006-.175-.035-.075-.075zm-15.32-.29c.124-.138.255-.251.289-.251.034 0-.04.113-.164.25-.125.138-.255.251-.29.251-.034 0 .04-.113.165-.25zm-36.956-.533-.495-.532.533.495c.495.46.59.57.495.57-.02 0-.26-.24-.533-.533zm-13.893-.464c-.04-.066-.157-.088-.258-.05-.101.04-.184.043-.184.009 0-.165.375-.18.507-.02.083.1.118.18.08.18-.04 0-.104-.053-.145-.119zm12.594-.079c.006-.145.036-.175.076-.075.036.09.032.198-.01.24-.042.041-.071-.033-.066-.165zm40.08-.25c.007-.146.036-.176.076-.076.037.09.032.199-.01.24-.041.042-.07-.032-.065-.164zm-52.69-.96-.238-.282.282.238c.155.132.282.258.282.282 0 .1-.101.026-.325-.238zm66.02-.094c.271-.3.272-.3.272-.068 0 .1-.047.153-.105.118-.057-.036-.104-.005-.104.068 0 .073-.065.132-.145.132-.082 0-.046-.108.082-.25zm-71.02-.01c-.189-.075-.136-.1.222-.107.258-.005.47.013.47.04 0 .111-.463.156-.692.066zm75.021-.002c-.039-.062.074-.113.25-.113.384 0 .415.071.07.161-.137.036-.282.015-.32-.048zm-4.314-.301c.162-.172.322-.313.357-.313.034 0-.07.14-.232.313-.162.172-.322.313-.357.313-.034 0 .07-.14.232-.313zm-73.147-.067c0-.066.084-.121.188-.121.103 0 .188.022.188.05 0 .026-.085.08-.188.12-.104.04-.188.018-.188-.049zm79.88-.079a.483.483 0 0 1 .312 0c.087.035.016.063-.156.063s-.243-.028-.157-.063zm-5.48-.48c.233-.241.453-.439.487-.439.034 0-.129.198-.362.439-.234.24-.453.438-.488.438-.034 0 .129-.197.363-.438zm-89.546-.136c.006-.146.036-.176.076-.076.036.09.032.199-.01.24-.042.042-.071-.032-.066-.164zm84.034.15c0-.025.086-.118.191-.205.16-.132.178-.124.112.048-.067.175-.303.298-.303.158zm-63.702-.61-.239-.281.282.238c.155.132.282.259.282.282 0 .1-.1.026-.325-.238zm-22.576-.093c0-.172.028-.243.063-.157a.483.483 0 0 1 0 .313c-.035.086-.063.016-.063-.156zm28.588-.032-.239-.281.282.238c.265.224.34.325.239.325-.024 0-.15-.127-.282-.282zm-24.59-.041c.006-.146.036-.176.076-.076.036.09.031.199-.01.24-.042.042-.072-.032-.066-.164zm1.137-.178c0-.172.028-.242.063-.156a.483.483 0 0 1 0 .313c-.035.086-.063.015-.063-.157zm22.16.053c.006-.146.035-.176.075-.076.037.09.032.198-.01.24-.041.041-.07-.033-.065-.165zm85.431-.053c0-.172.029-.242.064-.156a.484.484 0 0 1 0 .313c-.035.086-.064.015-.064-.157zm-20.56-.047c0-.026.098-.125.218-.22.2-.155.204-.15.048.048-.164.209-.267.275-.267.172zm18.848-23.5c0-12.986.015-18.298.033-11.805.018 6.493.018 17.117 0 23.61-.018 6.493-.033 1.18-.033-11.805zm3.978-20.317-.03-43.802-1.034-.042-1.033-.042 1.037-.026c.734-.018 1.054.02 1.096.131.033.086.045 19.828.028 43.87l-.033 43.713zm-22.075 43.567c0-.026.098-.125.219-.22.199-.155.203-.151.047.048-.163.208-.266.275-.266.172zm16.97-23.375c0-12.917.015-18.201.033-11.743.018 6.459.018 17.027 0 23.485-.018 6.458-.033 1.174-.033-11.742zm-17.336 21.595c.006-.146.036-.175.076-.075.036.09.031.198-.01.24-.042.041-.072-.033-.066-.165zm1.66-.36c0-.1.048-.152.107-.116.058.036.074.118.034.182-.101.164-.14.146-.14-.066zm-75.091-.404c.09-.036.198-.031.24.01.042.042-.032.071-.164.066-.146-.006-.176-.036-.076-.076zm76.654 0c.09-.036.199-.031.24.01.042.042-.032.071-.164.066-.146-.006-.176-.036-.076-.076zm.149-.984c0-.015.075-.09.167-.165.125-.104.167-.097.167.026 0 .09-.075.165-.167.165-.092 0-.167-.012-.167-.026zm-1.472-.621c.001-.276.028-.374.057-.218.03.156.03.381-.003.501-.031.12-.055-.008-.054-.283zm-78.764-.345-.238-.281.281.238c.265.224.34.325.239.325-.024 0-.15-.127-.282-.282zm5.711.032c0-.07.06-.126.133-.126.073 0 .097.057.055.126-.043.069-.102.125-.133.125-.03 0-.055-.056-.055-.125zm72.082-.126c-.042-.068-.017-.125.056-.125.073 0 .132.057.132.125 0 .07-.025.126-.055.126s-.09-.057-.133-.126zm5.04-.266c.085-.085.186-.124.224-.085.039.039-.03.109-.154.156-.179.068-.193.053-.07-.07zm-4.069-.673c.001-.275.028-.373.057-.218.03.156.03.382-.003.501-.031.12-.055-.008-.054-.283zm5.543.063c-.043-.07-.018-.126.055-.126s.132.057.132.126-.024.125-.055.125c-.03 0-.09-.056-.132-.125zm-79.453-.752c0-.172.028-.243.063-.156a.483.483 0 0 1 0 .313c-.035.086-.063.015-.063-.157zm-3.912-.344-.304-.345.345.304c.322.284.402.385.303.385-.022 0-.177-.155-.344-.344zm.896-.48c.006-.146.036-.176.076-.076.036.09.031.198-.01.24-.042.042-.071-.032-.066-.164zm81.424-2.766c.32-.342.374-.362.276-.105-.04.104-.126.188-.192.188-.065 0-.09.047-.054.104.035.058-.019.105-.12.105-.137 0-.114-.076.09-.292zm-83.058-.037c-.102-.064-.152-.15-.112-.19.04-.04.144.014.23.12.181.217.147.237-.118.07zm83.163-.57c.234-.24.453-.438.488-.438.034 0-.129.198-.363.439-.233.241-.453.438-.487.438-.035 0 .128-.197.362-.438zm1.073-.777c-.068-.178-.054-.192.07-.07.086.085.124.186.085.225-.038.039-.108-.031-.155-.155zm-20.886-.748c.09-.036.198-.032.24.01.042.042-.032.071-.164.066-.146-.006-.176-.036-.076-.076zm-44.465-.125c.09-.037.199-.032.24.01.042.041-.032.07-.164.065-.146-.006-.175-.035-.076-.075zm45.342 0c.09-.037.198-.032.24.01.041.041-.033.07-.165.065-.146-.006-.175-.035-.075-.075zm-47.346-.25c.09-.037.199-.033.24.01.042.04-.032.07-.164.065-.146-.006-.175-.036-.076-.076zm49.35 0c.09-.037.198-.033.24.01.041.04-.033.07-.165.065-.146-.006-.175-.036-.075-.076zm-50.602-.126c.09-.036.198-.032.24.01.042.042-.032.071-.164.066-.146-.006-.176-.036-.076-.076zm51.854 0c.09-.036.199-.032.24.01.042.042-.032.071-.164.066-.146-.006-.176-.036-.076-.076zm-53.425-.127a.712.712 0 0 1 .376.005c.084.035-.015.06-.222.058-.207-.003-.276-.03-.154-.062zm54.86 0a.712.712 0 0 1 .376.005c.085.035-.015.06-.222.058-.206-.003-.276-.03-.154-.062zm-57.806-.129c.224-.027.59-.027.814 0 .224.028.04.05-.407.05-.448 0-.63-.022-.407-.05zm60.246 0c.224-.027.59-.027.814 0 .224.028.041.05-.407.05-.448 0-.63-.022-.407-.05zm-53.6-1.498c.09-.036.199-.031.24.01.042.042-.032.072-.164.066-.146-.006-.176-.036-.076-.076zm47.596 0c.09-.036.198-.031.24.01.042.042-.032.072-.164.066-.146-.006-.176-.036-.076-.076zm-48.848-.125c.09-.036.198-.032.24.01.041.042-.033.071-.165.066-.146-.006-.175-.036-.075-.076zm50.1 0c.09-.036.199-.032.24.01.042.042-.032.071-.164.066-.146-.006-.175-.036-.076-.076zm-51.736-.123a.483.483 0 0 1 .313 0c.086.035.015.064-.157.064s-.243-.029-.156-.064zm53.232 0a.483.483 0 0 1 .313 0c.086.035.015.064-.157.064s-.242-.029-.156-.064zm-57.049-.134c.33-.026.837-.026 1.127 0 .291.027.022.048-.598.048s-.858-.022-.529-.048zm60.121 0c.33-.026.837-.026 1.127 0 .291.027.022.048-.598.048s-.858-.022-.529-.048zm-30.071-.597c.003-.206.03-.276.062-.154a.717.717 0 0 1-.004.376c-.035.085-.06-.015-.058-.222zm-.14-1.764c.006-.146.036-.175.076-.075.036.09.032.198-.01.24-.042.041-.071-.033-.066-.165zm-3.767-1.242c-.513-.516-.905-.94-.87-.94.034 0 .482.424.995.94.513.517.905.94.87.94-.034 0-.482-.423-.995-.94zm3.642-.01c.006-.146.036-.176.076-.076.036.09.031.199-.01.24-.042.042-.072-.032-.066-.164zm-5.537-1.775c-.156-.198-.151-.203.047-.047.12.095.22.193.22.22 0 .102-.103.036-.267-.173zm-12.658-8.383c.09-.036.198-.032.24.01.042.042-.032.071-.164.066-.146-.006-.176-.036-.076-.076zm2.121-.003c.155-.03.41-.03.564 0 .155.03.028.054-.282.054s-.437-.024-.282-.054zm1.511-.122c.09-.037.199-.032.24.01.042.041-.032.07-.164.065-.146-.006-.176-.035-.076-.075zm-6.74-.29c-.113-.074-.128-.123-.039-.124a.292.292 0 0 1 .227.123c.096.156.053.156-.188 0zm4.664-4.76c0-.241.025-.34.057-.22.031.121.031.318 0 .439-.032.12-.057.022-.057-.22zm7.439-.225c-.034-.055-.01-.182.053-.282.09-.142.115-.12.117.1.002.29-.062.357-.17.182zm.071-1.717c.003-.206.03-.276.062-.154a.717.717 0 0 1-.004.376c-.034.085-.06-.015-.058-.222zm-64.53-6.292c0-.053 3.439-.08 7.64-.062l7.64.033.033-13.09.033-13.091v13.12l-.002 13.12-7.671.032c-4.22.018-7.672-.01-7.672-.062zm63.304-.19-.239-.281.282.239c.265.224.339.325.239.325-.024 0-.15-.127-.282-.282zm36.68-13.71c.189-.029.499-.029.688 0 .19.029.035.052-.344.052-.38 0-.534-.023-.345-.052zm-38.928-5.108c0-2.825.016-3.998.036-2.608.02 1.39.02 3.702 0 5.136-.02 1.434-.036.296-.036-2.528zm30.561 0c0-2.825.017-3.998.037-2.608.02 1.39.02 3.702 0 5.136-.02 1.434-.037.296-.037-2.528zm17.911 0c0-2.825.017-3.998.037-2.608.02 1.39.02 3.702 0 5.136-.02 1.434-.037.296-.037-2.528zm-57.422 4.399c0-.026.098-.125.219-.22.199-.155.203-.15.047.048-.163.209-.266.275-.266.172zm50.476 0c0-.026.099-.125.22-.22.198-.155.202-.15.047.048-.164.209-.267.275-.267.172zm-52.825-1.292c.12-.031.318-.031.439 0 .12.032.022.058-.22.058-.24 0-.34-.026-.219-.058zm24.196-.08c-.035-.092-.045-.642-.022-1.222l.043-1.054.025 1.155.026 1.156 1.847.038 1.848.038-1.852.028c-1.447.022-1.865-.01-1.915-.14zm-27.607-.867c-.002-.192.134-.219 1.118-.219.616 0 1.146.042 1.178.094.032.052-.423.075-1.012.053-.79-.03-1.099.003-1.177.125-.08.127-.106.114-.107-.053zm57.293-3.6c0-1.964.018-2.767.039-1.786.021.982.021 2.588 0 3.57-.021.982-.039.179-.039-1.785zm-38.163 2.797a.483.483 0 0 1 .313 0c.087.035.016.063-.156.063s-.243-.028-.157-.063zm-16.65-.253c.09-.036.198-.032.24.01.041.042-.033.071-.165.066-.146-.006-.175-.036-.075-.076zm.751 0c.09-.036.199-.032.24.01.042.042-.032.071-.164.066-.146-.006-.176-.036-.076-.076zm37.975-.713c0-.026.099-.125.22-.22.198-.155.202-.15.046.048-.163.208-.266.275-.266.172zm-34.044-.767c.002-.207.03-.276.062-.154a.717.717 0 0 1-.004.375c-.035.085-.06-.014-.058-.221zm10.337-.153c.223-.028.617-.028.877-.001s.078.05-.404.05c-.482 0-.695-.021-.473-.05zm21.053.005c.09-.036.199-.032.24.01.042.041-.032.071-.164.066-.146-.006-.176-.036-.076-.076zm-35.203-.248a.483.483 0 0 1 .313 0c.086.035.015.063-.157.063s-.243-.028-.156-.063zm16.063.036c0-.026.099-.125.22-.22.198-.155.202-.15.047.048-.164.208-.267.275-.267.172zm-17.05-.423c-.156-.198-.151-.203.047-.047.12.094.22.193.22.22 0 .102-.103.036-.267-.173zm25.244.051c-.035-.092-.045-.586-.02-1.096l.043-.927.025 1.03.025 1.029 1.66.039 1.659.039-1.664.027c-1.296.021-1.677-.01-1.728-.14zm12.121-.646c.003-.206.031-.276.063-.154a.712.712 0 0 1-.005.376c-.035.085-.06-.015-.058-.222zm-34.96-.135c.007-.146.036-.176.076-.076.036.09.032.198-.01.24-.041.042-.07-.032-.065-.164zm-2.736-.303c0-.241.026-.34.057-.22.032.121.032.319 0 .44-.031.12-.057.021-.057-.22zm4.991.052c.006-.146.036-.175.076-.076.036.09.032.199-.01.24-.042.042-.071-.032-.066-.164zm-2.254-.25c.006-.146.035-.176.075-.076.036.09.032.198-.01.24-.041.042-.07-.032-.065-.164zm-5.01-.376c.005-.146.035-.176.075-.076.036.09.032.199-.01.24-.041.042-.071-.032-.066-.164zm38.661-.26a.483.483 0 0 1 .313 0c.086.034.016.063-.156.063-.173 0-.243-.029-.157-.063zm-45.89-1.295c0-.655.02-.922.046-.595.026.327.026.862 0 1.19-.026.327-.047.06-.047-.595zm48.793.282-.304-.345.345.304c.189.167.344.322.344.344 0 .098-.101.018-.385-.303zm-22.377-.995a.713.713 0 0 1 .376.005c.084.034-.015.06-.222.057-.207-.003-.276-.03-.154-.062zm19.79 0a.713.713 0 0 1 .375.005c.085.034-.015.06-.221.057-.207-.003-.276-.03-.154-.062zm-34.752-.625c.09-.037.198-.032.24.01.041.041-.033.07-.165.065-.146-.006-.175-.035-.075-.075zm-3.505-8.776c15.247-.018 40.16-.018 55.361 0 15.202.017 2.727.032-27.722.032s-42.886-.015-27.639-.032zm-25.622-2.126c.19-.028.472-.028.626.002.154.03-.002.054-.346.053-.345-.001-.47-.026-.28-.054zm105.643.013c-.049-.05-.09-1.231-.09-2.626 0-1.607-.046-2.56-.128-2.6-.07-.035-.056-.05.032-.031.122.024.167.644.193 2.62l.034 2.589h1.005l-.035-3.125c-.02-1.72.008-3.082.06-3.029.054.053.082 1.473.063 3.157l-.033 3.06-.506.037c-.278.02-.546-.003-.595-.052zm-104.948-6.396c.09-.036.198-.032.24.01.041.041-.033.071-.165.066-.146-.006-.175-.036-.076-.076zm106.213-1.629c.09-.036.199-.031.24.01.042.042-.032.072-.164.066-.146-.006-.176-.036-.076-.076zm-110.664-2.136c.33-.026.837-.025 1.127.001.291.026.022.048-.598.047-.62 0-.858-.022-.529-.048zm3.073-.118c.09-.036.198-.032.24.01.041.041-.033.071-.165.066-.145-.006-.175-.036-.075-.076zm1.002-.125c.09-.037.198-.032.24.01.041.041-.033.07-.165.065-.145-.006-.175-.035-.075-.075zm14.552-2.091c0-.026.1-.125.22-.22.198-.155.203-.151.047.048-.164.208-.267.275-.267.172zm1.88 0c0-.026.098-.125.218-.22.2-.155.204-.151.048.048-.164.208-.267.275-.267.172zm71.577-1.237-.873-.908.908.873c.843.812.965.943.873.943-.019 0-.427-.409-.908-.908zm-72.58.485c0-.026.099-.125.22-.22.198-.155.203-.15.047.048-.164.209-.267.275-.267.172zm74.2-.61-.239-.282.282.239c.265.224.34.325.239.325-.024 0-.15-.127-.282-.282zm-75.828-.267c0-.026.099-.124.22-.219.198-.156.202-.151.046.047-.163.209-.266.275-.266.172zm3.131-.516c.162-.172.323-.313.357-.313.034 0-.07.14-.232.313-.161.172-.322.313-.356.313-.035 0 .07-.14.231-.313zm74.384-.031c-.156-.2-.151-.203.047-.048.209.164.275.267.172.267-.026 0-.125-.099-.22-.22zm-72.63-.079c0-.026.098-.125.219-.22.199-.155.203-.15.047.048-.163.209-.266.275-.266.172zm-3.194-.955c.409-.413.772-.751.806-.751.035 0-.272.338-.68.751-.41.414-.773.752-.807.752-.035 0 .272-.338.68-.752zm72.574.282-.304-.344.345.303c.19.167.344.322.344.345 0 .098-.101.018-.385-.304zm-70.006-.454c0-.026.098-.125.219-.22.198-.155.203-.15.047.048-.164.208-.266.275-.266.172zm-5.512-.126c0-.026.1-.124.22-.219.198-.156.203-.151.047.048-.164.208-.267.275-.267.171zm79.962-.61-.239-.282.282.239c.265.224.339.325.239.325-.024 0-.15-.127-.282-.282zm-3.507-.376-.239-.281.282.238c.265.224.339.325.239.325-.024 0-.151-.127-.282-.282zm-74.889-.47c.27-.275.517-.5.552-.5.034 0-.158.225-.427.5-.269.276-.517.502-.552.502-.034 0 .158-.226.427-.501zm76.576-.97c-.156-.199-.152-.203.047-.047.209.163.275.266.172.266-.026 0-.125-.098-.22-.219zm-75.386-.33c0-.025.099-.124.22-.218.198-.156.202-.152.046.047-.163.209-.266.275-.266.172zm8.151-12.926c.006-.146.036-.175.076-.075.036.09.032.198-.01.24-.042.041-.071-.033-.066-.165zm-2.13-1.002c.007-.146.037-.175.077-.075.036.09.031.198-.01.24-.042.041-.072-.033-.066-.165zm2.265-.177c0-.172.029-.243.064-.157a.483.483 0 0 1 0 .313c-.035.086-.064.016-.064-.156zm60.764-1.315c0-.345.025-.47.054-.28.028.19.028.472-.002.626-.03.154-.054-.002-.053-.346zm-62.87-1.19c0-.517.022-.728.049-.47.027.258.027.681 0 .94-.027.258-.05.046-.05-.47z" transform="translate(47.492 -42.915) scale(.33034)"/><path style="fill:#a8d2dd;stroke-width:.125252" d="M-59.874 252.363c-.159-.203-.153-.205.079-.035.137.1.274.2.302.219.03.02-.007.035-.078.035-.072 0-.208-.098-.303-.219zm.642-.078c0-.026.099-.125.22-.22.198-.155.203-.15.047.048-.164.208-.267.275-.267.172zm-1.268-.423c-.156-.198-.152-.203.047-.047.12.094.22.193.22.22 0 .102-.104.036-.267-.173zm.893-1.832c0-.026.098-.125.219-.22.198-.155.203-.15.047.048-.164.209-.266.275-.266.172zm-.386-6.81-.303-.345.375.314c.207.172.4.327.428.344.03.017-.004.031-.072.031-.068 0-.26-.155-.428-.344zm-19.929.133c.09-.036.199-.031.24.01.042.042-.032.072-.164.066-.146-.006-.176-.035-.076-.075zm40.582 0c.09-.036.198-.031.24.01.042.042-.032.072-.164.066-.146-.006-.176-.035-.076-.075zm-41.208-.125c.09-.036.198-.031.24.01.042.042-.032.071-.164.066-.146-.006-.176-.036-.076-.076zm41.834 0c.09-.036.199-.031.24.01.042.042-.032.071-.164.066-.146-.006-.176-.036-.076-.076zm-42.46-.125c.09-.036.198-.032.24.01.041.042-.033.071-.165.066-.146-.006-.175-.036-.075-.076zm43.086 0c.09-.036.199-.032.24.01.042.042-.032.071-.164.066-.146-.006-.176-.036-.076-.076zm-43.838-.125c.09-.036.199-.032.24.01.042.041-.032.07-.164.066-.146-.006-.176-.036-.076-.076zm22.945.038c0-.026.098-.125.219-.22.199-.155.203-.15.047.048-.163.209-.266.275-.266.172zm-24.448-.289c.09-.036.199-.031.24.01.042.042-.032.071-.164.066-.146-.006-.176-.036-.076-.076zm47.596 0c.09-.036.198-.031.24.01.042.042-.032.071-.164.066-.146-.006-.176-.036-.076-.076zm-48.473-.125c.09-.036.199-.032.24.01.042.042-.032.071-.164.066-.146-.006-.175-.036-.076-.076zm49.217.003a.484.484 0 0 1 .313 0c.086.035.015.063-.157.063s-.243-.028-.156-.063zm-50.093-.128c.09-.036.198-.032.24.01.041.042-.033.071-.165.066-.146-.006-.175-.036-.075-.076zm50.97.003a.483.483 0 0 1 .312 0c.087.035.016.063-.156.063s-.243-.028-.157-.063zm-51.972-.128c.09-.037.198-.032.24.01.041.041-.033.07-.165.065-.146-.006-.175-.035-.075-.075zm53.106 0c.09-.037.199-.032.24.01.042.041-.032.07-.164.065-.146-.006-.175-.035-.076-.075zm-54.302-.127a.713.713 0 0 1 .376.005c.085.034-.015.06-.222.058-.206-.002-.276-.03-.154-.063zm55.362 0a.713.713 0 0 1 .375.005c.085.034-.015.06-.221.058-.207-.002-.276-.03-.154-.063zm-56.742-.125c.12-.031.318-.031.439 0 .12.032.021.058-.22.058-.24 0-.34-.026-.219-.058zm57.992 0c.12-.031.318-.031.438 0 .12.032.022.058-.219.058s-.34-.026-.22-.058zm-60.434-.13c.224-.027.59-.027.814 0 .224.029.04.051-.407.051-.448 0-.631-.022-.407-.05zm62.5 0c.224-.027.59-.027.815 0 .223.029.04.051-.407.051-.448 0-.631-.022-.408-.05zm-49.09-.12c.09-.036.198-.031.24.01.041.042-.033.072-.165.066-.146-.006-.175-.035-.075-.075zm18.043-.76c-.152-.193-.149-.2.028-.063.11.085.245.114.302.063.056-.052.062-.023.012.063-.116.203-.137.199-.342-.062zm-21.801.009c.09-.037.198-.032.24.01.042.041-.032.07-.164.065-.146-.006-.176-.035-.076-.075zm-.752-.126c.09-.036.199-.031.24.01.042.042-.032.072-.164.066-.146-.006-.175-.036-.076-.076zm45.209.003a.484.484 0 0 1 .313 0c.086.035.015.064-.157.064s-.243-.029-.156-.064zm-46.093-.125a.483.483 0 0 1 .313 0c.086.035.016.063-.157.063-.172 0-.242-.028-.156-.063zm46.97 0a.483.483 0 0 1 .312 0c.087.035.016.063-.156.063s-.243-.028-.157-.063zm-47.972-.125a.483.483 0 0 1 .313 0c.086.035.016.063-.157.063-.172 0-.242-.028-.156-.063zm48.973 0a.483.483 0 0 1 .313 0c.087.035.016.063-.156.063s-.243-.028-.157-.063zm-49.975-.125a.483.483 0 0 1 .313 0c.086.034.016.063-.157.063-.172 0-.242-.029-.156-.063zm50.977 0a.483.483 0 0 1 .313 0c.087.034.016.063-.156.063s-.243-.029-.157-.063zm-52.104-.126a.483.483 0 0 1 .313 0c.086.035.015.064-.157.064s-.243-.029-.156-.064zm53.24-.003c.09-.036.198-.031.24.01.041.042-.033.072-.165.066-.146-.006-.175-.036-.076-.076zm-54.68-.126c.12-.031.317-.031.438 0 .12.032.021.058-.22.058-.24 0-.34-.026-.219-.058zm55.987 0c.12-.031.318-.031.438 0 .12.032.022.058-.219.058s-.34-.026-.22-.058zm-58.242-.128c.19-.03.5-.03.689 0 .189.028.034.052-.345.052s-.534-.024-.344-.052zm31.156.042c0-.026.099-.125.22-.22.198-.155.202-.15.047.048-.164.209-.267.275-.267.172zm29.09-.042c.19-.03.5-.03.689 0 .19.028.034.052-.345.052s-.534-.024-.344-.052zm-63.583-.138c-.035-.056.103-.078.306-.048s.369.076.369.102c0 .095-.613.046-.675-.054zm66.933.054c0-.026.166-.073.37-.102.202-.03.34-.008.305.048-.062.1-.675.15-.675.054zm-34.46-.421c-.156-.199-.151-.203.047-.047.12.094.22.193.22.219 0 .103-.103.036-.267-.172zm2.834-.407c.125-.138.255-.25.29-.25.034 0-.04.112-.165.25-.124.138-.254.25-.289.25-.034 0 .04-.112.164-.25zm-3.519-.407-.238-.282.281.238c.265.225.34.326.239.326-.024 0-.15-.127-.282-.282zm4.208-.384c0-.022.183-.205.407-.407l.407-.368-.368.407c-.343.38-.446.465-.446.368zm-6.14-1.683-1.187-1.221 1.221 1.187c1.134 1.103 1.278 1.255 1.187 1.255-.018 0-.568-.55-1.22-1.221zm9.209-1.409c.269-.276.517-.501.552-.501.034 0-.158.225-.427.501-.27.276-.517.501-.552.501-.034 0 .158-.225.427-.501zm-4.79-.438c0-.276.026-.374.056-.218.03.156.029.381-.003.5-.031.12-.056-.007-.054-.282zm17.104.352c.09-.036.198-.031.24.01.041.042-.033.072-.165.066-.146-.006-.175-.036-.075-.076zm-35.948-.125c.09-.036.199-.032.24.01.042.042-.032.071-.164.066-.146-.006-.176-.036-.076-.076zm-.626-.125c.09-.036.198-.032.24.01.042.041-.032.071-.164.066-.146-.006-.176-.036-.076-.076zm37.826 0c.09-.036.199-.032.24.01.042.041-.032.071-.164.066-.146-.006-.176-.036-.076-.076zm-38.577-.125c.09-.037.198-.032.24.01.041.041-.033.07-.165.065-.146-.006-.175-.035-.075-.075zm22.067.038c0-.026.099-.125.22-.22.198-.155.203-.15.047.048-.164.209-.267.275-.267.172zm17.262-.038c.09-.037.198-.032.24.01.041.041-.033.07-.165.065-.146-.006-.175-.035-.075-.075zm-40.081-.126c.09-.036.198-.031.24.01.042.042-.032.072-.164.066-.146-.006-.176-.036-.076-.076zm40.832 0c.09-.036.199-.031.24.01.042.042-.032.072-.164.066-.146-.006-.176-.036-.076-.076zm-41.717-.122a.484.484 0 0 1 .314 0c.086.034.015.063-.157.063s-.243-.028-.157-.063zm14.987-.2-.238-.28.282.238c.264.224.338.325.238.325-.024 0-.15-.127-.282-.282zm27.474.2a.484.484 0 0 1 .313 0c.086.034.016.063-.157.063-.172 0-.242-.028-.156-.063zm-43.463-.126a.483.483 0 0 1 .314 0c.086.035.015.064-.157.064s-.243-.029-.157-.064zm44.465 0a.483.483 0 0 1 .313 0c.086.035.016.064-.157.064-.172 0-.242-.029-.156-.064zm-45.467-.125a.483.483 0 0 1 .314 0c.086.035.015.063-.157.063s-.243-.028-.157-.063zm29.904-.167c.125-.138.255-.25.29-.25.034 0-.04.112-.164.25-.125.137-.255.25-.29.25-.034 0 .04-.113.164-.25zm16.565.167a.483.483 0 0 1 .313 0c.086.035.016.063-.157.063-.172 0-.242-.028-.156-.063zm-47.659-.128c.121-.032.318-.032.439 0 .12.031.022.057-.22.057-.24 0-.34-.026-.219-.057zm48.723 0c.121-.032.318-.032.439 0 .12.031.022.057-.22.057-.24 0-.34-.026-.219-.057zm-51.04-.13c.224-.028.59-.028.814 0 .224.028.041.05-.407.05-.447 0-.63-.022-.407-.05zm30.092-.222c.162-.173.322-.314.357-.314.034 0-.07.141-.232.314-.161.172-.322.313-.356.313-.035 0 .07-.141.231-.313zm22.89.222c.224-.028.59-.028.814 0 .224.028.04.05-.407.05-.448 0-.631-.022-.407-.05zm-33.427-.504c-.156-.199-.151-.203.047-.048.12.095.22.194.22.22 0 .103-.103.036-.267-.172zm7.931-.094c.003-.207.03-.276.063-.154a.712.712 0 0 1-.005.375c-.035.085-.06-.014-.058-.221zm6.614.14c0-.026.099-.124.22-.219.198-.156.202-.151.047.048-.164.208-.267.275-.267.171zm-15.171-.547c-.156-.199-.152-.203.047-.048.12.095.22.194.22.22 0 .103-.104.036-.267-.172zm-.627-.501c-.155-.199-.15-.203.048-.048.12.095.219.194.219.22 0 .103-.103.036-.267-.172zm9.295-.23c.006-.146.036-.175.076-.076.036.09.031.199-.01.24-.042.042-.072-.032-.066-.164zm4.75-.74c.161-.173.322-.314.356-.314.035 0-.07.14-.231.313-.162.172-.322.313-.357.313-.034 0 .07-.14.232-.313zm-4.615-.189c0-.172.028-.242.063-.156a.484.484 0 0 1 0 .313c-.035.086-.063.015-.063-.157zm-39.633-.466c.222-.028.616-.028.876-.001s.078.05-.404.05c-.482 0-.695-.021-.472-.049zm76.654 0c.222-.028.617-.028.877-.001s.077.05-.405.05c-.482 0-.695-.021-.472-.049zm-30.903-.583c0-.026.098-.125.219-.22.198-.155.203-.15.047.048-.163.209-.266.275-.266.172zm-7.13-2.907c.006-.146.036-.175.076-.075.036.09.032.198-.01.24-.042.041-.071-.033-.066-.165zm.25-.25c.007-.146.036-.176.076-.076.037.09.032.199-.01.24-.041.042-.07-.032-.065-.164zm-.5-1.127c.006-.146.035-.176.075-.076.037.09.032.198-.01.24-.041.042-.07-.032-.065-.164zm.751-.376c.006-.146.036-.176.076-.076.036.09.032.199-.01.24-.042.042-.071-.032-.066-.164zm-24.708-.764c.09-.036.199-.032.24.01.042.041-.032.071-.164.066-.146-.006-.176-.036-.076-.076zm49.725-.25c.09-.037.199-.032.24.01.042.04-.032.07-.164.065-.146-.006-.176-.036-.076-.076zm-51.604-.126c.09-.036.199-.032.24.01.042.042-.032.071-.164.066-.146-.006-.176-.036-.076-.076zm52.982-.125c.09-.036.198-.032.24.01.042.041-.032.071-.164.066-.146-.006-.176-.036-.076-.076zm-54.485-.125c.09-.037.199-.032.24.01.042.041-.032.07-.164.065-.146-.006-.176-.035-.076-.075zm55.362 0c.09-.037.198-.032.24.01.041.041-.033.07-.165.065-.146-.006-.175-.035-.075-.075zm-56.371-.123a.484.484 0 0 1 .313 0c.086.035.015.063-.157.063s-.243-.028-.156-.063zm57.24 0a.484.484 0 0 1 .313 0c.086.035.015.063-.157.063s-.242-.028-.156-.063zm-58.806-.129c.12-.031.318-.031.438 0 .12.032.022.058-.219.058s-.34-.026-.22-.058zm60.246 0c.12-.031.318-.031.438 0 .121.032.022.058-.219.058-.24 0-.34-.026-.219-.058zm-13.778-1.506c.19-.029.5-.029.69 0 .189.029.034.052-.345.052-.38 0-.534-.023-.345-.052zm2.693.007a.483.483 0 0 1 .313 0c.086.035.016.063-.156.063s-.243-.028-.157-.063zm-3.75-.128c.09-.036.199-.032.24.01.042.042-.032.071-.164.066-.146-.006-.175-.036-.075-.076zm4.885 0c.09-.036.199-.032.24.01.042.042-.032.071-.164.066-.146-.006-.176-.036-.076-.076zm.752-.125c.09-.036.198-.032.24.01.042.041-.032.07-.164.066-.146-.006-.176-.036-.076-.076zm.712-.04c-.042-.069-.017-.125.055-.125.073 0 .133.056.133.125s-.025.125-.055.125-.09-.056-.133-.125zm.439-.125a.752.752 0 0 1 .313-.122c.069 0 .04.055-.063.122a.752.752 0 0 1-.313.121c-.069 0-.04-.054.063-.121zm-9.833-.877c-.042-.069-.017-.125.056-.125.073 0 .132.056.132.125s-.025.125-.055.125-.09-.056-.133-.125zm4.008-1.002c.27-.276.518-.501.552-.501.035 0-.157.225-.426.501-.27.276-.518.501-.552.501-.035 0 .157-.225.426-.501zm1.34-2.818c.003-.207.03-.276.062-.154a.712.712 0 0 1-.005.375c-.034.085-.06-.014-.057-.221zm-7.529-.063a.77.77 0 0 1 .115-.376c.148-.228.148-.03 0 .314-.071.165-.11.186-.115.062zm.014-2.317c.003-.207.03-.276.062-.154a.712.712 0 0 1-.005.376c-.034.084-.06-.015-.057-.222zm1.353.015c0-.026.099-.124.22-.219.198-.156.202-.151.047.047-.164.21-.267.275-.267.172zm-1.242-.902c.006-.146.035-.176.075-.076.036.09.032.199-.01.24-.041.042-.07-.032-.066-.164zm3.348-.138c.09-.036.198-.032.24.01.042.042-.032.071-.164.066-.146-.006-.176-.036-.076-.076zm.869.003a.484.484 0 0 1 .313 0c.086.035.016.063-.156.063-.173 0-.243-.028-.157-.063zm-16.04-1.728c-.1-.1-.217-.156-.26-.125-.042.031-.048.019-.014-.027.035-.046-.035-.201-.154-.345-.119-.143-.006-.066.25.171.257.238.468.45.468.47 0 .086-.119.027-.29-.144zm3.546.018c0-.022.182-.205.405-.407.223-.203.307-.251.188-.108-.12.144-.175.308-.124.365.052.057.024.063-.062.014-.086-.05-.156-.03-.156.042 0 .073-.057.133-.126.133s-.125-.018-.125-.04zm.948-1.25c.047-.124.117-.193.155-.155.039.039 0 .14-.085.225-.124.123-.138.108-.07-.07zm1.745-1.09c.479-.483.898-.878.933-.878.034 0-.33.395-.808.877-.478.482-.898.877-.932.877-.035 0 .328-.395.807-.877zm-8.96-.095-.684-.72.72.685c.396.376.72.7.72.72 0 .093-.12-.016-.756-.685zm-2.642.376c-.156-.199-.151-.203.047-.047.121.094.22.193.22.219 0 .103-.103.037-.267-.172zm4.16-.104c.005-.146.035-.176.075-.076.036.09.032.198-.01.24-.041.042-.071-.032-.066-.164zm6.011 0c.006-.146.036-.176.076-.076.036.09.032.198-.01.24-.041.042-.071-.032-.066-.164zm7.13-.1c0-.026.099-.125.22-.22.198-.155.202-.15.046.048-.163.209-.266.275-.266.172zm-18.052-.798c-.156-.199-.152-.203.047-.047.12.094.22.193.22.219 0 .103-.104.036-.267-.172zm19.054-.345c.162-.172.322-.313.357-.313.034 0-.07.141-.232.313-.162.173-.322.314-.357.314-.034 0 .07-.141.232-.314zm-8.132-.01c.006-.146.036-.176.076-.076.036.09.032.199-.01.24-.041.042-.071-.032-.066-.164zm5.126.026c0-.026.099-.125.22-.22.198-.155.202-.15.046.048-.163.209-.266.275-.266.172zm-16.55-.297c-.155-.199-.15-.203.048-.048.12.095.22.194.22.22 0 .103-.104.036-.267-.172zm2.447-.063-.238-.282.281.239c.265.224.34.325.239.325-.024 0-.15-.127-.282-.282zm11.974-.016c0-.026.098-.125.219-.22.198-.155.203-.15.047.048-.164.209-.266.275-.266.172zm2.943-.579c.125-.138.255-.25.29-.25.034 0-.04.112-.165.25-.124.138-.255.25-.289.25-.034 0 .04-.112.164-.25zm-18.108-.22-.304-.344.344.304c.322.284.402.385.304.385-.022 0-.177-.155-.344-.344zm19.173-.954c0-.026.098-.125.219-.22.199-.155.203-.151.047.048-.163.208-.266.275-.266.172zm-10.488-.666a.712.712 0 0 1 .376.005c.085.034-.015.06-.222.058-.206-.003-.276-.031-.154-.063zm.752 0a.712.712 0 0 1 .375.005c.085.034-.014.06-.221.058-.207-.003-.276-.031-.154-.063zm-27.68-37.952a.712.712 0 0 1 .375.005c.085.035-.015.06-.222.058-.206-.003-.276-.03-.154-.062zm.936.004a.483.483 0 0 1 .313 0c.086.035.016.064-.156.064-.173 0-.243-.029-.157-.064zm34.382-.007c.19-.028.5-.028.689 0 .189.03.034.053-.345.053s-.534-.024-.344-.053zm-26.358-.12c.09-.037.198-.032.24.01.042.041-.032.07-.164.065-.146-.006-.176-.035-.076-.075zm9.345-2.483c0-1.446.018-2.02.04-1.277.023.745.023 1.928 0 2.63-.022.703-.04.094-.04-1.353zm5.488-1.592-.03-4.222-1.033-.042-1.033-.042 1.037-.026c.737-.018 1.055.02 1.098.132.033.087.044 2.017.025 4.29l-.035 4.133zm6.65 3.346c0-.482.023-.664.05-.404.027.26.027.654-.001.876-.028.223-.05.01-.05-.472zm19.024-.724c-.023-1.355.003-1.613.17-1.676.107-.042.256-.015.33.06.097.095.06.114-.13.065-.257-.068-.265-.028-.303 1.541l-.04 1.61zm5.795-2.72.002-4.196 1.002-.008 1.002-.008-.97.043-.968.044-.036 4.16-.035 4.16.002-4.196zm-22.738 3.037-.432-.47.47.432c.437.402.527.508.432.508-.021 0-.232-.212-.47-.47zm-21.286.172c0-.026.099-.125.22-.22.198-.155.202-.15.047.048-.164.208-.267.275-.267.172zm-10.803-.537a.483.483 0 0 1 .313 0c.086.035.016.063-.156.063-.173 0-.243-.028-.157-.063zm-.61-.261c-.157-.2-.152-.204.046-.048.121.095.22.193.22.22 0 .103-.103.036-.267-.172zm43.145-.72c0-.552.022-.762.049-.467a6.26 6.26 0 0 1-.001 1.002c-.027.257-.049.016-.048-.536zm-35.935.653c-.034-.088-.045-1.202-.024-2.474l.037-2.313.028 2.405.029 2.405.783.045.782.044-.786.024c-.543.017-.806-.025-.849-.136zm20.276-.654c0-.482.024-.664.05-.404.028.26.027.655 0 .877-.028.222-.05.01-.05-.473zm7.952.729c.09-.036.198-.032.24.01.042.042-.032.071-.164.066-.146-.006-.176-.036-.076-.076zm1.002 0c.09-.036.198-.032.24.01.042.042-.032.071-.164.066-.146-.006-.176-.036-.076-.076zm-38.92-.363c.006-.146.036-.176.076-.076.036.09.031.198-.01.24-.042.042-.071-.032-.066-.164zm39.82.025c0-.026.099-.124.22-.219.198-.155.202-.151.047.048-.164.208-.267.275-.267.172zm-5.752-1.278c.006-.146.036-.175.076-.075.036.09.032.198-.01.24-.041.041-.071-.033-.066-.165zm-18.898-.24c.003-.207.03-.276.062-.154a.717.717 0 0 1-.004.376c-.035.085-.06-.015-.058-.222zm-2.144-.01c.006-.146.036-.176.076-.076.036.09.032.198-.01.24-.042.042-.071-.032-.066-.164zm19.655-.55v-.746l-1.347-.036-1.346-.036-.009-.814-.008-.814.045.783.046.783h2.744v.814c0 .448-.028.814-.063.814-.034 0-.062-.336-.062-.747zm15.68.032-.024-.779-1.346-.035-1.347-.036-.009-.814-.009-.814.046.783.046.783h1.313c1.492 0 1.47-.017 1.398 1.017l-.046.674-.023-.779zm-47.82-.317-.238-.282.282.238c.155.132.282.259.282.282 0 .1-.101.027-.325-.238zm14.629-.157c.003-.207.03-.276.062-.154a.717.717 0 0 1-.004.376c-.035.085-.06-.015-.058-.222zm-2.144-.01c.006-.146.036-.176.076-.076.036.09.032.198-.01.24-.042.042-.071-.032-.066-.164zm39.094-.96-.025-1.096.845.024.846.024-.778.044-.778.044-.042 1.028-.042 1.027zm-18.052.71c.006-.147.036-.176.076-.076.036.09.032.198-.01.24-.041.041-.071-.033-.066-.165zm-34.044-1.055c0-.31.025-.437.054-.282.03.155.03.409 0 .564-.03.155-.054.028-.054-.282zm54.46.303c.007-.146.036-.176.076-.076.036.09.032.198-.01.24-.041.042-.071-.032-.066-.164zm-17.795-.225c0-.026.098-.125.22-.22.198-.155.202-.15.046.048-.163.209-.266.275-.266.172zm2.931-.235-.238-.281.282.238c.155.131.281.258.281.282 0 .1-.1.026-.325-.239zm-35.888-.438c-.156-.199-.152-.203.047-.047.209.163.275.266.172.266-.026 0-.125-.098-.22-.219zm34.186.008c.09-.036.198-.032.24.01.042.042-.032.071-.164.066-.146-.006-.176-.036-.076-.076zm.618.003a.483.483 0 0 1 .313 0c.087.035.016.063-.156.063s-.243-.028-.157-.063zm-5.456-.948-.023-.843-2.6-.036-2.598-.037 2.603-.028c2.1-.023 2.615.004 2.668.142.036.094.045.502.02.908l-.046.737zm-19.071.31-.304-.344.345.304c.189.167.344.322.344.344 0 .099-.101.019-.385-.303zm41.834-.375-.304-.344.345.303c.19.167.344.322.344.345 0 .098-.101.018-.385-.304zm-50.351-.125-.304-.345.344.304c.19.167.345.322.345.344 0 .099-.102.019-.385-.303zm-5 .172c0-.026.098-.125.218-.22.199-.155.203-.15.048.048-.164.208-.267.275-.267.172zm11.374-.79c.09-.036.198-.032.24.01.041.042-.033.071-.165.066-.146-.006-.175-.036-.075-.076zm-3.322-.133a24.884 24.884 0 0 1 1.879 0c.496.024.057.043-.976.043-1.034 0-1.44-.02-.903-.043zm10.895.001c.33-.026.837-.026 1.127 0 .291.027.022.048-.598.048s-.858-.022-.529-.048zm17.978.007c.09-.036.198-.032.24.01.042.042-.032.071-.164.066-.146-.006-.176-.036-.076-.076zm1.753 0c.09-.036.199-.032.24.01.042.042-.032.071-.164.066-.146-.006-.175-.036-.076-.076zm5.698-.008a51.904 51.904 0 0 1 2.63 0c.703.022.094.04-1.353.04-1.446 0-2.02-.018-1.277-.04zm6.13 0a26.74 26.74 0 0 1 1.942 0c.534.024.097.043-.97.043-1.068 0-1.505-.02-.971-.043zm-48.033-.115a.483.483 0 0 1 .313 0c.086.035.016.064-.157.064-.172 0-.242-.029-.156-.064z" transform="translate(47.492 -42.915) scale(.33034)"/><path style="fill:#fe9b9b;stroke-width:.125252" d="M-59.607 289.234c0-.026.098-.125.219-.22.198-.155.203-.15.047.048-.164.209-.266.275-.266.172zm.626-.752c0-.026.098-.124.219-.219.199-.156.203-.151.047.048-.163.208-.266.275-.266.171zm-1.763-.547-.304-.345.345.304c.189.167.344.322.344.344 0 .099-.101.019-.385-.303zm3.516-1.347c.444-.447.835-.814.87-.814.034 0-.3.367-.744.814-.444.448-.836.814-.87.814-.034 0 .3-.366.744-.814zm-3.381-1.628c-.514-.517-.905-.94-.871-.94.034 0 .483.423.996.94.513.517.905.94.87.94-.034 0-.482-.423-.995-.94zm-2.766.344-.303-.344.344.304c.19.167.345.322.345.344 0 .098-.102.018-.386-.304zm-.883-.751c-.156-.199-.151-.203.048-.047.208.163.275.266.171.266-.026 0-.124-.098-.219-.219zm6.655-.58c0-.026.098-.124.219-.219.198-.156.203-.151.047.047-.164.21-.266.275-.266.172zM-60 282.925c-.156-.199-.152-.203.047-.048.209.164.275.267.172.267-.026 0-.125-.099-.22-.22zm3.398.172c0-.026.098-.125.219-.22.198-.155.203-.151.047.048-.164.208-.266.275-.266.172zm-6.655-.548c-.156-.199-.151-.203.048-.047.208.163.275.266.171.266-.026 0-.124-.098-.219-.22zm4.525-.094c.162-.172.323-.313.357-.313.035 0-.07.14-.231.313-.162.172-.323.313-.357.313-.035 0 .07-.14.231-.313zm-2.395-.532c-.156-.199-.152-.203.047-.048.208.164.275.267.172.267-.026 0-.125-.099-.22-.22zm1.832-.407c.124-.138.255-.25.289-.25.034 0-.04.112-.164.25-.125.137-.255.25-.29.25-.034 0 .04-.113.165-.25zm1.44.203c0-.026.099-.125.22-.22.198-.155.202-.15.047.048-.164.209-.267.275-.267.172zm-36.597-11.436c.09-.037.198-.032.24.01.042.041-.032.07-.164.065-.146-.006-.176-.035-.076-.075zm84.819-4.471c0-.026.099-.125.22-.22.198-.155.202-.15.047.048-.164.209-.267.275-.267.172zm-100.343-.297c-.155-.199-.151-.203.048-.048.208.164.275.267.172.267-.027 0-.125-.099-.22-.22zm40.107-.355c.006-.146.035-.176.075-.076.037.09.032.199-.01.24-.041.042-.07-.032-.065-.164zm5.86-.397c-.155-.198-.15-.203.048-.047.209.164.275.266.172.266-.026 0-.125-.098-.22-.219zm9.16-.094c.162-.172.322-.313.357-.313.034 0-.07.141-.232.313-.161.172-.322.313-.356.313-.035 0 .07-.14.231-.313zm-56.814-.845-.238-.282.282.239c.265.224.339.325.238.325-.024 0-.15-.127-.282-.282zm101.279-.282c.161-.172.322-.313.356-.313.035 0-.07.14-.231.313-.162.172-.323.313-.357.313-.034 0 .07-.14.232-.313zm2.755.266c0-.026.099-.125.22-.22.198-.155.202-.15.047.048-.164.209-.267.275-.267.172zm-101.84-.673-.303-.345.345.304c.322.284.401.385.303.385-.022 0-.177-.155-.344-.344zm24.286-.117c.09-.036.198-.032.24.01.041.042-.033.071-.165.066-.146-.006-.175-.036-.075-.076zm2.004 0c.09-.036.198-.032.24.01.041.042-.033.071-.165.066-.146-.006-.175-.036-.075-.076zm47.094 0c.09-.036.199-.032.24.01.042.042-.032.071-.164.066-.146-.006-.176-.036-.076-.076zm2.004 0c.09-.036.199-.032.24.01.042.042-.032.071-.164.066-.146-.006-.175-.036-.076-.076zm.877-.125c.09-.036.199-.032.24.01.042.041-.032.071-.164.066-.146-.006-.176-.036-.076-.076zm-9.62-.1c0-.01.182-.184.406-.386.33-.299.353-.308.124-.046-.155.178-.254.352-.219.387.035.035-.02.063-.124.063-.103 0-.188-.008-.188-.018zm30.874-.316c.125-.137.255-.25.29-.25.034 0-.04.113-.165.25-.125.138-.255.25-.29.25-.034 0 .04-.112.165-.25zm2.442.204c0-.026.099-.125.22-.22.198-.155.203-.151.047.048-.164.208-.267.275-.267.172zm-64.974-.517c.002-.275.027-.373.057-.218.03.156.029.382-.002.501-.032.12-.056-.008-.055-.283zm-33.599-.376c-.304-.31-.525-.563-.49-.563.034 0 .311.253.615.563.305.31.525.564.49.564-.034 0-.31-.254-.615-.564zm69.816.282-.239-.282.282.239c.265.224.34.325.239.325-.024 0-.15-.127-.282-.282zm-29.176-.626-.622-.658.658.622c.361.342.657.638.657.658 0 .093-.116-.011-.693-.622zm-43.286.313c-.156-.199-.152-.203.047-.047.209.163.275.266.172.266-.026 0-.125-.098-.22-.219zm35.486-.094c.003-.206.031-.276.063-.154a.717.717 0 0 1-.005.376c-.034.085-.06-.015-.057-.222zm23.837-.313c.269-.275.517-.5.551-.5.035 0-.157.225-.426.5-.27.276-.518.501-.552.501-.035 0 .157-.225.427-.5zm-55.8-.188c-.304-.31-.525-.563-.49-.563.034 0 .31.253.615.563.304.31.525.564.49.564-.034 0-.31-.254-.615-.564zm94.565.517c0-.026.099-.125.22-.22.198-.155.202-.151.046.048-.163.208-.266.275-.266.172zm-20.44-.54c.09-.036.199-.031.24.01.042.042-.032.071-.164.066-.146-.006-.175-.036-.076-.076zm22.632-.165c.125-.137.255-.25.29-.25.034 0-.04.113-.165.25-.125.138-.255.25-.29.25-.034 0 .04-.112.165-.25zm-74.366.035c.225-.028.563-.027.751 0 .189.03.004.052-.409.052-.413-.001-.567-.025-.342-.052zm49.85 0c.225-.028.563-.027.752 0 .188.03.004.052-.41.052-.413-.001-.567-.025-.342-.052zm-31.558-.37c.09-.037.199-.032.24.01.042.04-.032.07-.164.065-.146-.006-.176-.036-.076-.076zm14.028 0c.09-.037.199-.032.24.01.042.04-.032.07-.164.065-.146-.006-.176-.036-.076-.076zm18.913 0c.09-.037.199-.032.24.01.042.04-.032.07-.164.065-.146-.006-.175-.036-.076-.076zm-50.92-.13c.19-.03.472-.028.626.002.154.03-.002.053-.346.052-.345 0-.47-.025-.28-.054zm18.856.004c.09-.036.198-.032.24.01.042.041-.032.07-.164.066-.146-.006-.176-.036-.076-.076zm12.275 0c.09-.036.198-.032.24.01.041.041-.033.07-.165.066-.146-.006-.175-.036-.075-.076zm17.764-.01c-.033-.054.176-.079.462-.057.843.065.946.122.248.138-.358.008-.677-.029-.71-.082zm24.406-.28c.125-.138.255-.25.29-.25.034 0-.04.112-.164.25-.125.137-.255.25-.29.25-.034 0 .04-.113.164-.25zm-51.94-.086c.09-.036.198-.032.24.01.042.042-.032.071-.164.066-.146-.006-.176-.036-.076-.076zm-45.459-.51c-.156-.198-.151-.202.047-.047.209.164.275.267.172.267-.026 0-.124-.099-.219-.22zm23.097-2.41c0-.31.024-.437.054-.282.03.155.03.408 0 .563-.03.155-.054.029-.054-.281zm-.636-.439c.002-.206.03-.276.062-.154a.717.717 0 0 1-.005.376c-.034.085-.06-.015-.057-.222zm8.068-.586c.036-.059.118-.074.182-.035.164.102.146.141-.065.141-.1 0-.153-.048-.117-.106zm.534-.197c-.156-.198-.152-.203.047-.047.208.164.275.267.172.267-.026 0-.125-.1-.22-.22zm-15.297-.114a.483.483 0 0 1 .314 0c.086.035.015.063-.157.063s-.243-.028-.157-.063zm66.259 0a.483.483 0 0 1 .313 0c.086.035.016.063-.157.063-.172 0-.242-.028-.156-.063zm-52.94-.742c.005-.145.035-.175.075-.075.036.09.032.198-.01.24-.041.041-.071-.033-.066-.165zm39.19-.584c.445-.465.826-.845.845-.845.02 0 .035.093.035.208 0 .115-.04.17-.087.122-.048-.048-.428.239-.845.637l-.759.723zm-50.614-.063c-.156-.198-.152-.203.047-.047.12.095.22.193.22.22 0 .102-.104.036-.267-.173zm63.769.151c0-.014.075-.088.167-.165.125-.103.167-.097.167.027 0 .09-.075.165-.167.165-.092 0-.167-.012-.167-.027zm-51.985-.376c-.274-.291-.308-.3-.39-.094-.078.2-.09.202-.097.014-.015-.367.19-.356.56.028.195.204.326.371.29.371-.035 0-.199-.143-.363-.319zm50.983.147c0-.026.098-.125.219-.22.199-.155.203-.15.047.048-.163.208-.266.275-.266.172zm-63.644-.673c-.156-.199-.152-.203.047-.047.209.163.275.266.172.266-.026 0-.125-.099-.22-.22zm64.708-.282c.125-.138.255-.25.29-.25.034 0-.04.112-.164.25-.125.138-.255.25-.29.25-.034 0 .04-.112.164-.25zm-65.879-.108c.036-.036-.231-.379-.595-.762l-.66-.696.782.748c.43.411.783.754.783.762a.626.626 0 0 1-.188.014c-.103 0-.158-.03-.122-.066zm-2.344-.103c.09-.036.199-.032.24.01.042.042-.032.071-.164.066-.146-.006-.176-.036-.076-.076zm71.394 0c.09-.036.198-.032.24.01.041.042-.033.071-.164.066-.146-.006-.176-.036-.076-.076zm-72.529-.122a.483.483 0 0 1 .313 0c.086.034.016.063-.156.063s-.243-.029-.157-.063zm73.586-.003c.12-.032.317-.032.438 0 .12.031.022.057-.22.057-.24 0-.339-.026-.218-.057zm-76.215-.378c.156-.03.382-.03.501.003.12.03-.007.055-.283.054-.275-.001-.373-.027-.218-.057zm2.692.002c.12-.032.318-.032.438 0 .12.031.022.057-.219.057s-.34-.026-.22-.057zm2.72-.76-.81-.845.845.81c.786.753.903.88.81.88-.018 0-.399-.38-.845-.845zm70.555.76a.712.712 0 0 1 .375.004c.085.034-.015.06-.221.058-.207-.003-.276-.03-.154-.063zm2.627 0c.121-.032.318-.032.439 0 .12.03.022.056-.22.056-.24 0-.34-.025-.219-.057zm-10.677-.087c0-.026.098-.125.219-.22.199-.155.203-.15.047.048-.163.209-.266.275-.266.172zm-85.788-.276c.006-.146.036-.176.076-.076.036.09.031.198-.01.24-.042.042-.071-.032-.066-.164zm109.595 0c.006-.146.036-.176.076-.076.036.09.032.198-.01.24-.041.042-.071-.032-.066-.164zm-105.587-.126c.006-.146.036-.175.076-.075.036.09.032.198-.01.24-.042.041-.071-.033-.066-.165zm24.458.104c.046-.074.012-.163-.074-.198-.113-.045-.115-.066-.008-.073.215-.014.319.207.146.314-.087.054-.113.036-.064-.043zm.567-.124c-.156-.2-.152-.204.047-.048.209.164.275.267.172.267-.026 0-.125-.099-.22-.22zm85.708-.282c0-.172.028-.243.063-.156a.484.484 0 0 1 0 .313c-.035.086-.063.015-.063-.157zm-4.018-.073c.006-.146.035-.176.075-.076.037.09.032.199-.01.24-.041.042-.07-.032-.065-.164zm-105.713-.125c.006-.146.036-.176.076-.076.036.09.032.199-.01.24-.042.042-.071-.032-.066-.164zm107.591 0c.006-.146.036-.176.076-.076.036.09.032.199-.01.24-.041.042-.071-.032-.066-.164zm-26.187-.365c.234-.242.453-.439.487-.439.035 0-.128.197-.362.439-.233.24-.453.438-.487.438-.035 0 .128-.197.362-.438zm6.075-.063c.124-.138.255-.25.289-.25.034 0-.04.112-.164.25-.125.138-.255.25-.29.25-.034 0 .04-.112.165-.25zm17.242 0c0-.172.028-.243.063-.157a.483.483 0 0 1 0 .314c-.035.086-.063.015-.063-.157zm-109.804-43.838c0-24.146.014-34.023.032-21.95.017 12.072.017 31.827 0 43.9-.018 12.073-.032 2.195-.032-21.95zm2.13 19.195v-24.644h110.66l-55.299.031-55.298.032-.032 24.612-.032 24.612v-24.643zm1.877 1.096c0-12.986.015-18.298.033-11.805.018 6.492.018 17.117 0 23.61-.018 6.492-.033 1.18-.033-11.805zm23.713 22.98c-.323-.308-.546-.56-.496-.56.05 0 .34.253.645.563.713.727.613.725-.15-.003zm-5.872.097-.304-.344.344.303c.322.284.402.386.304.386-.022 0-.177-.155-.344-.345zm65.776.021c.006-.146.036-.175.076-.076.036.09.032.199-.01.24-.042.042-.071-.032-.066-.164zm-64.859-1.367c.002-.276.027-.374.057-.218.03.156.03.381-.002.501s-.056-.008-.055-.283zm69.744.115c.006-.146.036-.176.076-.076.036.09.031.198-.01.24-.042.042-.072-.032-.066-.164zm-71.826-.528c-.034-.055-.012-.181.05-.28.083-.137.106-.112.09.1-.023.303-.046.333-.14.18zm71.826-.224c.006-.146.036-.176.076-.076.036.09.031.199-.01.24-.042.042-.072-.032-.066-.164zm1.753-1.002c.006-.146.036-.176.076-.076.036.09.032.199-.01.24-.041.042-.071-.032-.066-.164zm-73.737-1.618c0-.689.021-.955.047-.59.025.363.025.927 0 1.252-.027.325-.047.027-.047-.662zm78.738.125c.374-.378.708-.688.743-.688.034 0-.244.31-.618.688-.374.38-.709.69-.743.69-.034 0 .243-.31.618-.69zm-3.193.315c-.044-.071.006-.092.117-.05.217.084.257.174.077.174-.065 0-.152-.056-.194-.124zm-1.672-.502c0-.173.028-.243.063-.157a.483.483 0 0 1 0 .313c-.035.086-.063.016-.063-.156zm-76.048-.126c-.113-.073-.128-.122-.039-.123a.291.291 0 0 1 .227.123c.096.156.053.156-.188 0zm-3.03-.461c.09-.036.199-.032.24.01.042.042-.032.071-.164.066-.146-.006-.176-.036-.076-.076zm2.683-1.167c0-.241.026-.34.058-.22.031.121.031.319 0 .44-.032.12-.058.021-.058-.22zm79.256-.383c0-.073.056-.098.125-.055.069.042.125.102.125.132 0 .03-.056.056-.125.056s-.125-.06-.125-.133zm.876-2.42c0-.026.099-.124.22-.219.198-.156.203-.151.047.047-.164.209-.267.275-.267.172zm-81.805-.422c-.156-.199-.151-.203.047-.047.12.094.22.193.22.219 0 .103-.103.036-.267-.172zm-.996-1.002-.303-.345.344.304c.322.284.402.385.304.385-.023 0-.178-.155-.345-.344zm84.304-.079c0-.026.099-.124.22-.219.198-.156.203-.151.047.047-.164.209-.267.275-.267.172zm-84.91-.276c.006-.146.035-.176.075-.076.036.09.032.199-.01.24-.041.042-.071-.032-.066-.164zm13.55-1.517a.712.712 0 0 1 .376.005c.085.034-.015.06-.221.058-.207-.003-.276-.03-.154-.063zm57.99 0c.12-.03.318-.03.438 0 .12.032.022.058-.219.058s-.34-.026-.22-.057zm-54.29-1.627c.091-.036.2-.032.241.01.042.042-.032.071-.164.066-.146-.006-.176-.036-.076-.076zm24.974-.227c.003-.207.03-.276.062-.155a.717.717 0 0 1-.004.376c-.035.085-.06-.015-.058-.221zm25.88.227c.09-.036.198-.032.24.01.04.042-.033.071-.165.066-.146-.006-.176-.036-.076-.076zm-52.614-.123a.483.483 0 0 1 .313 0c.086.035.015.064-.157.064s-.243-.029-.156-.064zm54.234 0a.483.483 0 0 1 .313 0c.086.035.015.064-.157.064s-.242-.029-.156-.064zm-32.55-4.895c-.156-.199-.152-.203.047-.048.12.095.219.194.219.22 0 .103-.103.036-.267-.172zm-29.293-3.288c-.292-.094-.295-.101-.04-.113.152-.007.31.044.353.113.042.069.06.12.038.113l-.351-.113zm69.492-.027c.066-.067.226-.1.353-.073.173.037.141.068-.121.122-.229.046-.31.029-.232-.05zm-56.341-5.985c-.16-.104-.156-.122.031-.124.12 0 .22.055.22.124 0 .152-.015.152-.251 0zm5.502-2.098-.304-.345.344.304c.19.167.345.322.345.344 0 .099-.102.019-.385-.303zm75.343-11.711c-.033-.086-.045-5.99-.027-13.12l.033-12.964.03 13.06.032 13.059 7.577-.033c4.168-.019 7.578.009 7.578.06 0 .052-3.412.094-7.582.094-5.95 0-7.594-.033-7.641-.156zm-83.88-13.209c.155-.03.38-.029.5.003.12.031-.008.056-.283.054-.276 0-.374-.027-.218-.057zm-9.49-4.1v-4.065l-.658-.046-.657-.046.72-.023.72-.023v4.133c0 2.273-.028 4.133-.063 4.133-.034 0-.062-1.829-.062-4.064zm2.687-1.197c0-2.928.017-4.126.037-2.662.02 1.464.02 3.86 0 5.323-.02 1.464-.037.267-.037-2.661zm34.807 4.258c0-.585.021-.825.048-.532.026.293.026.772 0 1.065-.027.292-.048.053-.048-.533zm3.02-4.07c0-2.825.016-3.998.036-2.608.02 1.39.02 3.702 0 5.136-.02 1.434-.037.296-.037-2.528zm2.505 3.164c.005-1.758.023-1.912.237-1.953.128-.025.287.01.354.076.079.079.008.1-.198.06l-.319-.06-.04 1.893-.04 1.893.006-1.909zm-36.015.938-.303-.345.344.304c.19.167.345.322.345.344 0 .098-.102.019-.386-.303zm1.747-1.378c-.155-.199-.15-.203.048-.047.208.163.275.266.172.266-.026 0-.125-.099-.22-.22zm54.646-.407c0-.172.028-.243.063-.157a.483.483 0 0 1 0 .313c-.034.086-.063.016-.063-.156zm-6.899-.449c.006-.146.036-.176.076-.076.036.09.032.199-.01.24-.042.042-.071-.032-.066-.164zm2.505 0c.006-.146.036-.176.076-.076.036.09.032.199-.01.24-.042.042-.071-.032-.066-.164zm-47.971-.501c.006-.146.036-.176.075-.076.037.09.032.199-.01.24-.041.042-.07-.032-.065-.164zm23.569-.52a19.782 19.782 0 0 1 1.69 0c.465.023.085.043-.845.043-.93 0-1.31-.02-.845-.044zm-21.293-.472c.001-.275.027-.373.057-.217.03.155.029.38-.002.5-.032.12-.056-.007-.055-.283zm-2.537.266c0-.026.1-.124.22-.219.198-.156.203-.151.047.047-.164.209-.267.275-.267.172zm16.91-.266c.161-.172.322-.313.356-.313.035 0-.07.141-.231.313-.162.173-.323.314-.357.314-.035 0 .07-.141.231-.314zm-20.992-.094-.239-.281.282.238c.265.224.339.325.239.325-.024 0-.15-.127-.282-.282zm36.326-.886c-.035-.092-.048-.67-.028-1.284l.037-1.117.72-.01.721-.011-.69.048-.689.048v2.355l.783.045.783.044-.787.024c-.556.017-.805-.024-.85-.142zm-29.707-.523c.001-.275.027-.373.057-.217.03.155.029.38-.002.5-.032.12-.056-.007-.055-.283zm35.07-.751c.002-.276.028-.374.058-.218.03.156.028.381-.003.501-.032.12-.056-.008-.055-.283zm-22.776-.846-.239-.281.282.238c.265.224.339.325.239.325-.024 0-.15-.127-.282-.282zm11.892-1.346c0-.586.021-.825.048-.532.026.292.026.772 0 1.064-.027.293-.048.053-.048-.532zm-9.704.157c-.156-.2-.152-.204.047-.048.12.095.22.193.22.22 0 .103-.104.036-.267-.172zm-15.715-.94-.239-.282.282.239c.265.224.339.325.238.325-.023 0-.15-.127-.281-.282zm33.368-.18c.09-.036.198-.031.24.01.041.042-.033.072-.165.066-.146-.006-.175-.035-.075-.075zm-81.726-2.137c2.123-.02 5.561-.02 7.64 0 2.08.02.342.035-3.86.035s-5.903-.016-3.78-.035zm15.172-12.306c0-2.79.017-3.931.037-2.536.02 1.395.02 3.677 0 5.072s-.037.254-.037-2.536zm1.876-.188c0-1.722.018-2.444.04-1.604.021.84.021 2.249 0 3.131-.022.882-.04.195-.04-1.527zm105.134-2.277c.09-.037.199-.032.24.01.042.041-.032.07-.164.065-.146-.006-.176-.035-.076-.075zm-104.836-.877c.09-.036.199-.032.24.01.042.041-.032.071-.164.066-.146-.006-.176-.036-.076-.076zm106.214 0c.09-.036.198-.032.24.01.042.041-.032.071-.164.066-.146-.006-.176-.036-.076-.076zm-1.002-.125c.09-.037.198-.032.24.01.041.041-.033.07-.164.065-.146-.006-.176-.035-.076-.075zm-106.596-1.632a1.38 1.38 0 0 1 .501.002c.12.032-.008.056-.283.055-.276-.001-.374-.027-.218-.057zm108.655.002c.12-.031.317-.031.438 0 .12.032.022.058-.22.058-.24 0-.339-.026-.218-.058zm-107.27-.124c.09-.036.198-.032.24.01.04.042-.033.071-.165.066-.146-.006-.176-.036-.076-.076zm106.088 0c.09-.036.198-.032.24.01.041.042-.033.071-.165.066-.146-.006-.175-.036-.075-.076zm-108.163-2.005c.12-.031.318-.031.438 0 .12.032.022.057-.219.057s-.34-.025-.22-.057zm110.035-.002a1.38 1.38 0 0 1 .501.002c.12.032-.008.056-.283.055-.276-.001-.374-.027-.218-.057zm-1.371-.122c.09-.036.198-.032.24.01.041.041-.033.071-.165.066-.146-.006-.175-.036-.075-.076zm-1.002-.125c.09-.037.198-.032.24.01.041.041-.033.07-.165.065-.146-.006-.175-.035-.075-.075zm-16.025-2.138c-.156-.199-.152-.203.047-.047.209.163.275.266.172.266-.026 0-.125-.098-.22-.219zm1.628-.125c-.156-.199-.151-.203.047-.048.121.095.22.194.22.22 0 .103-.103.036-.267-.172zm-75.887-.204c0-.026.1-.125.22-.22.198-.155.203-.15.047.048-.164.209-.267.275-.267.172zm1.754.013c0-.02.437-.456.97-.971l.971-.936-.936.97c-.87.902-1.005 1.028-1.005.937zm73.256-.56c-.155-.2-.151-.204.048-.048.208.163.275.266.172.266-.026 0-.125-.098-.22-.219zm-73.757-.596c.162-.172.322-.313.357-.313.034 0-.07.14-.232.313-.162.172-.322.313-.357.313-.034 0 .07-.14.232-.313zm-2.13-.486c0-.026.1-.124.22-.219.199-.155.203-.151.047.048-.163.208-.266.275-.266.172zm76.029-1.267c-.514-.517-.905-.94-.87-.94.033 0 .482.423.995.94.513.516.905.939.87.939-.034 0-.482-.423-.995-.94zm-72.646.5c.161-.172.322-.312.356-.312.035 0-.07.14-.231.313-.162.172-.323.313-.357.313-.034 0 .07-.141.232-.313zm69.123.095c-.156-.2-.152-.204.047-.048.208.164.275.267.172.267-.026 0-.125-.099-.22-.22zm.876-.752c-.155-.199-.151-.203.048-.047.12.094.219.193.219.219 0 .103-.103.037-.267-.172zm5.386-.25c-.156-.2-.151-.204.047-.048.21.164.275.267.172.267-.026 0-.124-.099-.219-.22zm-74.509-.08c0-.025.099-.124.22-.218.198-.156.203-.152.047.047-.164.209-.267.275-.267.172zm-5.072-.453c.124-.138.254-.25.289-.25.034 0-.04.112-.164.25-.125.138-.255.25-.29.25-.034 0 .04-.112.165-.25zm73.444-.094c-.156-.198-.152-.203.047-.047.209.164.275.266.172.266-.026 0-.125-.098-.22-.219zm-69.937-.407c.124-.138.255-.25.289-.25.034 0-.04.112-.164.25-.125.138-.255.25-.29.25-.034 0 .04-.112.165-.25zm2.192.203c0-.026.098-.124.219-.219.198-.156.203-.151.047.048-.164.208-.266.275-.266.171zm72.51-.422-.303-.344.345.303c.19.167.344.322.344.345 0 .098-.101.018-.385-.304zm-3.137-.25c-.156-.2-.151-.204.047-.048.209.164.275.267.172.267-.026 0-.124-.099-.219-.22zm-73.57-.533c.125-.138.255-.25.29-.25.034 0-.04.112-.164.25-.125.138-.255.25-.29.25-.034 0 .04-.112.165-.25zm75.449-.595c-.156-.198-.152-.203.047-.047.209.164.275.266.172.266-.026 0-.125-.098-.22-.219zm-64.103-11.753c.006-.145.035-.175.075-.075.037.09.032.198-.01.24-.041.041-.07-.033-.065-.165zm54.36-.25c.005-.146.035-.176.075-.076.036.09.031.199-.01.24-.042.042-.071-.032-.066-.164zm-55.362-.25c.006-.146.035-.176.075-.076.037.09.032.198-.01.24-.041.041-.07-.033-.065-.165zm55.236-.627c.006-.146.036-.175.076-.075.036.09.031.198-.01.24-.042.041-.072-.033-.066-.165zm1.889-.052c0-.172.028-.243.063-.157a.484.484 0 0 1 0 .314c-.035.086-.063.015-.063-.157zm-56.958-.25c.013-.167 3.162-.188 27.537-.189h27.522l-27.484.032c-21.826.025-27.494.064-27.536.188-.03.09-.046.076-.039-.031zm-1.92-.074c.005-.145.035-.175.075-.075.036.09.032.198-.01.24-.042.041-.071-.033-.066-.165zm60.997 0c.006-.145.036-.175.076-.075.036.09.031.198-.01.24-.042.041-.072-.033-.066-.165zm-63.127-.25c.006-.146.036-.176.076-.076.036.09.031.199-.01.24-.042.042-.072-.032-.066-.164zm60.892-.679c0-.24.025-.34.057-.219.031.12.031.318 0 .439-.032.12-.057.022-.057-.22zm2.124-.313c.003-.206.03-.276.063-.154a.713.713 0 0 1-.005.376c-.035.085-.06-.015-.058-.222zm-60.742-.188c0-.24.025-.34.057-.219.031.12.031.318 0 .439-.032.12-.057.022-.057-.22zm-2.125-.5c0-.31.025-.437.055-.282.03.155.03.408 0 .563-.03.155-.055.028-.055-.282zm16.854-.094a8043.2 8043.2 0 0 1 29.309 0c8.037.017 1.424.032-14.696.032s-22.696-.015-14.613-.032zm-1.065-2.13c8.669-.018 22.816-.018 31.439 0 8.622.018 1.53.033-15.76.033-17.292 0-24.347-.015-15.679-.033z" transform="translate(47.492 -42.915) scale(.33034)"/><path style="fill:#f7b21b;stroke-width:.125252" d="M-60.459 247.379c-2.309-1.794-5.993-3.83-9.231-5.102-6.282-2.467-12.246-3.665-19.66-3.95l-2.251-.086-2.034-4.885c-1.119-2.686-2.037-4.935-2.04-4.996-.006-.133 1.367-.01 1.503.136.052.055.83 1.876 1.73 4.046l1.635 3.946 2.417.079c8.544.279 16.574 2.198 23.287 5.565 1.765.885 3.68 2.05 4.97 3.025l.54.408.964-.684c6.86-4.873 17.244-7.978 27.728-8.291l2.592-.078.247-.576c.135-.317.876-2.098 1.645-3.958.77-1.86 1.443-3.427 1.496-3.483.054-.055.422-.134.82-.175.668-.07.715-.057.643.164-.043.13-.969 2.38-2.057 4.997l-1.98 4.76-1.182.028c-2.995.072-7.155.476-10.092.98-7.482 1.283-15.4 4.527-20.038 8.21l-.766.608zm.078-9.983c-.987-1.996-3.992-5.293-6.766-7.424-3.349-2.573-8.134-5.227-12.653-7.017-.67-.266-1.196-.505-1.169-.531.027-.027.377.025.779.115.455.102 1.605.165 3.047.167 2.085.003 2.412-.026 3.257-.29.905-.282 2.435-1.007 2.336-1.107-.027-.026-.324.014-.66.09-2.268.512-4.682-1.49-4.682-3.883 0-2.204 2.102-3.77 4.293-3.2.792.206 1.527.625 2.032 1.157.369.388.94 1.43.94 1.714 0 .102.064.225.143.274.107.066.126-.326.073-1.527-.094-2.153-.627-4.212-1.91-7.378-.156-.384.818.717 2.066 2.336 4.858 6.305 8.107 14.443 8.942 22.402.199 1.898.38 4.76.302 4.76-.025 0-.192-.297-.37-.658z" transform="translate(47.492 -42.915) scale(.33034)"/><path style="fill:#fe5656;stroke-width:.125252" d="M-60.108 288.582c-.688-.885-3.585-3.674-4.76-4.581-6.953-5.37-16.735-9.267-28.557-11.376-4.4-.785-7.34-1.682-10.459-3.19-4.23-2.046-7.288-4.616-9.602-8.071a20.929 20.929 0 0 1-3.351-8.618c-.096-.632-.136-14.021-.136-44.996v-44.096h1.132c10.014 0 19.324-6.357 23.103-15.775 1.091-2.72 1.644-5.345 1.777-8.43l.08-1.848h62.712v1.372c0 11.043 7.9 21.092 18.774 23.881 1.906.489 4.261.8 6.058.8h1.223l-.035 44.433-.035 44.433-.286 1.252c-1.81 7.93-7.11 13.66-15.567 16.829-2.162.81-4.816 1.494-8.316 2.144-5.238.973-10.22 2.327-14.23 3.869-7.99 3.073-14.01 6.887-17.885 11.334-.578.665-1.086 1.206-1.127 1.203-.041-.003-.272-.258-.513-.569zm1.615-3.72c3.567-3.433 7.666-6.103 13.227-8.616 5.741-2.594 11.369-4.25 19.978-5.877 2.57-.485 4.892-1.115 6.727-1.825 6.845-2.645 11.477-7.14 13.423-13.022.951-2.874.892-.97.892-28.701v-24.84l-55.33.03-55.33.032v50.226l.28 1.266c.565 2.549 1.417 4.606 2.715 6.555 3.623 5.442 9.985 8.97 18.861 10.457 6.828 1.145 13.82 3.239 19.409 5.813 5.701 2.626 9.82 5.334 12.966 8.526.55.557 1.023 1.014 1.052 1.014.029 0 .537-.467 1.13-1.038zm-2.122-2.55c-2.886-2.555-6.095-4.65-10.328-6.745-6.39-3.162-12.564-5.163-20.708-6.711-3.999-.76-4.99-.986-6.576-1.494-7.278-2.331-12.207-6.718-14.03-12.487-.747-2.365-.708-.893-.708-26.856v-23.784h.998l.035 24.205.035 24.205.333 1.13c1.734 5.888 6.04 9.992 13.018 12.406 1.72.595 3.223.954 7.02 1.674 6.087 1.155 11.037 2.55 15.886 4.476 5.967 2.371 10.692 5.051 14.684 8.33.74.608 1.38 1.105 1.423 1.105.043 0 .383-.279.756-.62 2.085-1.905 5.6-4.212 9.378-6.156 6.301-3.243 13.509-5.561 22.92-7.374 3.862-.744 6.57-1.56 8.918-2.69 5.25-2.524 8.623-6.333 10.032-11.328l.34-1.203.033-24.08.034-24.08h1.002l-.036 24.143-.037 24.142-.271 1.008c-.996 3.701-2.74 6.556-5.485 8.976-2.636 2.325-6.31 4.163-10.71 5.357-.516.14-2.572.567-4.569.949-5.563 1.063-9.606 2.139-13.836 3.68-7.307 2.664-13.61 6.239-17.735 10.057l-.757.701zm-4.002-11.59c0-.092.197-1.316.438-2.721s.438-2.655.438-2.777c0-.121-.937-1.145-2.082-2.274l-2.082-2.052 2.907-.424 2.908-.424 1.336-2.67 1.336-2.67 1.334 2.67 1.333 2.67 2.912.424 2.913.425-2.086 2.04c-1.43 1.399-2.086 2.126-2.086 2.312 0 .15.2 1.423.445 2.83.245 1.408.428 2.607.407 2.665-.021.059-1.194-.506-2.606-1.254l-2.568-1.36-1.44.759c-.792.417-1.962 1.037-2.599 1.377-.729.39-1.158.557-1.158.453zm-7.39-5.423c-2.915-.848-5.627-1.873-7.669-2.9-.463-.232-.898-.423-.967-.423-.069 0-.366.17-.66.376-.347.243-.884.452-1.517.588-.856.185-1.152.193-2.343.06-1.387-.154-3.3-.594-4.267-.98l-.534-.214 1.053-.354c1.451-.488 3.44-.853 4.667-.857l1.027-.003-.371-.216c-1.173-.683-4.586-3.053-5.771-4.007l-1.383-1.113-.349.26c-.297.222-.528.26-1.56.26-.84 0-1.424-.07-1.902-.229-1.087-.361-2.85-1.241-3.996-1.995l-1.053-.692 1.178-.085c.648-.047 1.77-.026 2.493.045 1.157.115 1.61.205 3.007.596.226.063-.067-.311-1.065-1.36-.758-.796-1.77-1.947-2.249-2.558l-.87-1.111-.758-.006c-.817-.006-1.458-.267-2.386-.972-.671-.51-1.557-1.352-1.703-1.619-.105-.19-.07-.208.291-.147.761.13 2.154.574 2.751.877.76.385.8.379.477-.075-.147-.207-.244-.376-.215-.376.029 0 .577.705 1.218 1.567.642.862 1.191 1.542 1.221 1.512.03-.03-.006-.344-.082-.696-.076-.353-.138-1.407-.138-2.342 0-1.409.03-1.676.169-1.56.28.233 1.55 2.784 1.776 3.57.211.735.207 2.014-.009 2.695-.083.263.055.443 1.145 1.49 1.288 1.235 3.848 3.417 4.854 4.135l.58.414-.431-.852a13.325 13.325 0 0 1-.737-1.918c-.328-1.14-.778-3.603-.677-3.704.11-.11 2.168 2.17 2.774 3.074.326.484.77 1.262.987 1.727.348.744.398.989.417 2.036l.022 1.19.984.598c1.426.866 4.119 2.215 5.995 3.003 2.379 1 2.315.993 1.648.173-1.184-1.452-2.07-3.988-2.512-7.178l-.165-1.188.807.793c1.874 1.841 3.47 4.162 3.993 5.803.26.818.311 1.195.278 2.056l-.041 1.053 1.252.35c.69.193 1.676.445 2.192.56.517.115 1.01.265 1.096.333.239.19.187.695-.085.841-.312.167-.211.183-1.887-.305zm-3.195-3.98c-.169-1.274-.861-2.698-2.163-4.446-.633-.85-.905-1.144-.905-.978 0 .142 3.01 6.081 3.08 6.081.042 0 .036-.296-.012-.657zm-7.452-.007c-.477-.227-.776-.266-1.941-.254-1.181.012-3.113.294-3.302.483-.032.033 1.26.055 2.874.049l2.933-.01-.564-.268zm-3.566-5.374a7.472 7.472 0 0 0-.586-1.476c-.432-.776-1.74-2.543-1.821-2.461-.03.03.524 1.2 1.23 2.603 1.275 2.533 1.57 2.867 1.177 1.334zm-6.027-1.49c-.576-.637-2.346-1.195-4.18-1.319-.657-.044-1.16-.043-1.12.001.07.075 5.16 1.55 5.425 1.572.062.005.006-.11-.125-.255zM-94.8 248.1c-.174-.69-.917-2.36-.974-2.19-.046.137.623 2.919.881 3.666l.151.439.04-.687c.02-.378-.023-.93-.098-1.228zm-3.177-.535c-.099-.142-.365-.394-.59-.56-.468-.345-2.03-.989-2.232-.92-.101.035 2.768 1.713 2.965 1.734.02.002-.043-.112-.143-.254zm48.835 17.927c-.324-.358-.15-.73.407-.873.254-.065 1.054-.266 1.777-.446.723-.181 1.578-.414 1.9-.518.576-.187.582-.194.47-.589-.398-1.384.417-3.74 2.043-5.912.975-1.303 2.905-3.27 2.956-3.014.069.343-.362 2.677-.75 4.063-.472 1.684-1.198 3.192-1.927 4.003-.32.356-.527.647-.46.647.257 0 3.764-1.492 5.308-2.259a54.812 54.812 0 0 0 2.323-1.281l1.53-.888-.073-.7c-.137-1.31.482-2.946 1.753-4.632.695-.922 2.486-2.908 2.558-2.836.027.026-.068.734-.21 1.572-.285 1.672-.854 3.525-1.339 4.354-.17.293-.262.533-.202.533.245 0 3.573-2.788 5.007-4.194l1.535-1.505-.183-.501c-.237-.648-.24-1.21-.007-2.135.21-.84 1.279-3.055 1.75-3.627l.308-.376.004 1.503c.004 1.434-.116 2.601-.319 3.12-.194.496.236.026 1.35-1.475 1.181-1.59 1.618-2.115 1.062-1.276-.18.271-.308.513-.284.537.024.024.234-.066.467-.2.475-.275 2.165-.82 2.927-.943l.501-.081-1.087 1.054c-1.328 1.286-2.214 1.768-3.263 1.772l-.717.003-1.046 1.312a46.844 46.844 0 0 1-2.268 2.595c-1.025 1.075-1.155 1.254-.804 1.107 1.14-.476 4.329-.812 5.804-.611l.751.102-.9.599c-2.943 1.957-5.832 2.784-7.36 2.108-.329-.145-.662-.225-.74-.178-.079.048-.566.436-1.084.862-1.335 1.102-3.588 2.696-4.992 3.533l-1.2.715 1.312.077c.721.042 1.65.144 2.063.227 1.226.245 3.236.895 3.117 1.008-.225.212-2.286.778-3.743 1.027-2.272.389-4.17.118-4.943-.706l-.287-.305-.836.421c-2.156 1.086-6.062 2.543-8.423 3.141-.667.17-1.236.308-1.265.308-.028 0-.15-.109-.27-.242zm5.895-4.674c1.32-2.625 2.41-4.996 2.229-4.846-.47.39-1.76 2.282-2.271 3.33-.405.829-.578 1.356-.628 1.91-.039.42-.034.764.009.764.043 0 .34-.521.66-1.158zm11.82.67c-.239-.132-1.449-.351-2.524-.458-.935-.093-2.462.117-2.82.388-.198.15.163.174 2.651.175 1.594 0 2.797-.047 2.693-.104zm-.29-6.87a337.23 337.23 0 0 1 1.265-2.6c.037-.068-.088.016-.277.188-.555.504-1.716 2.338-2.033 3.213-.27.742-.393 1.672-.221 1.672.039 0 .61-1.113 1.267-2.473zm7.418-.667c1.485-.418 2.73-.792 2.765-.831.123-.135-2.334.09-3.075.283a9.878 9.878 0 0 0-1.37.482c-.627.29-1.353.815-1.136.822.063.002 1.33-.338 2.816-.756zm.578-6.238c.246-.99.425-1.822.399-1.848-.086-.086-.951 1.88-1.082 2.459-.15.665-.171 1.423-.042 1.553.131.131.225-.15.725-2.164zm4.694-1.13c1.014-.55.954-.656-.156-.274-.778.267-1.245.533-1.754.996-.544.496-.403.57.313.162.362-.206 1.08-.604 1.597-.884zm-80.567-1.567c-.727-.432-1.045-.786-1.52-1.69-.429-.816-1.08-2.801-1.08-3.293 0-.606 2.283 1.896 2.845 3.119.228.495.293.834.272 1.409-.015.416-.032.751-.038.745a16.373 16.373 0 0 0-.479-.29zm-.207-2.123a7.62 7.62 0 0 0-1.018-1.458c-.723-.784-.678-.659.49 1.378.647 1.125.837 1.375.87 1.145.023-.163-.131-.642-.342-1.065zm79.707 1.887c-.177-1.182 1.08-3.319 2.715-4.613l.5-.396-.087.488c-.048.268-.25 1.004-.45 1.635-.46 1.457-1.162 2.528-1.985 3.035l-.614.378zm1.314-1.999.978-1.722c.098-.172-.138.02-.525.43-.678.715-1.22 1.64-1.38 2.357-.146.657.132.337.927-1.065zm-63.755-47.642c.926-.387 1.584-1.337 1.898-2.74.099-.44.169-1.502.169-2.568 0-1.519-.046-1.96-.276-2.7-.357-1.147-.855-1.824-1.618-2.2-.522-.256-.788-.298-1.921-.297-1.104 0-1.396.044-1.818.27-.715.381-1.179.88-1.535 1.652-.273.591-.303.798-.256 1.774.046.954.103 1.186.425 1.707.228.369.61.748.985.98.559.346.71.38 1.697.38.98 0 1.134-.034 1.622-.357l.54-.357-.09.733c-.107.856-.357 1.516-.663 1.749-.12.09-.434.167-.698.17-.365.002-.565-.083-.845-.363-.201-.201-.366-.455-.366-.563 0-.166-.19-.198-1.19-.198-1.348 0-1.354.005-1 1.009.534 1.512 1.94 2.325 3.75 2.168.41-.035.946-.147 1.19-.25zm-2.411-5.876c-.584-.329-.77-1.226-.401-1.938.402-.778 1.853-.774 2.256.006.282.546.238 1.299-.1 1.692-.36.418-1.228.537-1.755.24zm52.967 5.858c.283-.146.689-.465.903-.709.702-.8.776-1.323.776-5.48v-3.735h-2.505v3.413c0 1.973-.056 3.61-.131 3.881-.211.76-.897.958-1.44.415-.169-.17-.307-.451-.307-.627v-.318h-2.634l.08.532c.206 1.369 1.026 2.42 2.174 2.79.82.263 2.424.179 3.084-.162zm-59.068-5.04v-5.26h-4.142l.036 1.159.036 1.158.657.038.658.038v8.128h2.755zm20.542 3.445v-1.816h1.22c1.446-.002 1.937-.12 2.747-.661 1.228-.82 1.669-2.609.995-4.036-.357-.758-.698-1.087-1.52-1.466-.578-.266-.82-.29-3.286-.328l-2.661-.04v10.163h2.505v-1.816zm0-5.089v-1.268l1.003.058c.817.047 1.059.11 1.301.338.392.368.493.922.268 1.46-.225.538-.583.681-1.704.681h-.868zm14.278 5.903v-1.002h-3.758v-2.129H-56.726v-2.004h-3.256v-2.004H-56.226v-2.004h-6.262v10.145h6.262zm5.511-.885c0-1.853.005-1.887.266-1.848.198.03.525.51 1.284 1.888l1.018 1.847h1.41c.774 0 1.408-.025 1.408-.055 0-.031-.504-.919-1.121-1.973l-1.122-1.917.464-.233c1.156-.581 1.701-1.471 1.701-2.773 0-1.052-.288-1.7-1.045-2.348-.856-.732-1.44-.846-4.34-.846h-2.553v10.145h2.63zm0-4.939v-1.19h.934c1.063 0 1.484.146 1.683.584.29.638.082 1.417-.444 1.657-.168.076-.726.139-1.24.139h-.933zm10.772 1.754v-5.073h-2.505v10.145h2.505zm15.531 0v-5.073h-2.505v10.145h2.505zm20.166-19.398v-5.056l-.47-.078a6.998 6.998 0 0 0-.927-.079c-.863-.003-3.426-.504-5.179-1.012-6.118-1.775-11.41-5.704-15.002-11.139-2.555-3.865-3.939-7.956-4.415-13.057l-.08-.846H-59.54c-26.532 0-29.23.018-29.3.198-.041.11-.075.454-.075.767 0 .889-.352 3.089-.75 4.689-1.95 7.832-7.569 14.595-14.989 18.037-2.221 1.03-5.94 2.067-8.216 2.29l-1.409.143-.689.072v4.98c0 2.74.038 5.018.084 5.064.046.046 24.958.083 55.361.083h55.278zm-108.719-.267c0-1.688.043-3.069.094-3.069.518 0 3.433-.584 4.618-.925 8.921-2.568 16.033-9.045 19.407-17.675.778-1.99 1.276-3.953 1.754-6.92l.066-.407h54.94l.206 1.347c1.242 8.082 5.941 15.371 12.854 19.94a29.196 29.196 0 0 0 12.306 4.578l.595.078v6.122h-1.002v-5.22l-1.757-.337c-12.273-2.35-21.716-11.936-23.864-24.222l-.224-1.284H-86.15l-.074.47c-.832 5.276-3.121 10.472-6.388 14.501-1.191 1.468-3.698 3.892-5.2 5.027-3.67 2.773-8.05 4.692-12.716 5.57l-1.435.27v5.225h-1.002zm-20.805 38.414c.067-.124 1.873-3.063 4.014-6.53l3.893-6.303-3.835-6.208c-2.11-3.415-3.92-6.338-4.024-6.497l-.189-.288H-118.726v26.052h-7.582c-7.273 0-7.578-.009-7.462-.226zM-.363 195.593v-13.026h7.515c4.652 0 7.515.045 7.515.118 0 .066-1.778 2.995-3.952 6.51-3.585 5.8-3.937 6.417-3.802 6.67.082.153 1.86 3.054 3.951 6.446 2.092 3.393 3.803 6.2 3.803 6.238 0 .039-3.382.07-7.515.07H-.363z" transform="translate(47.492 -42.915) scale(.33034)"/><path style="fill:#04a79f;stroke-width:.125252" d="M-59.562 251.267c0-.689.022-.954.047-.59s.025.927 0 1.252c-.026.325-.047.027-.047-.662zm-.86-8.46c-1.012-.831-3.267-2.326-4.571-3.032-6.01-3.251-13.591-5.25-21.154-5.578l-2.053-.09-1.861-4.883c-1.024-2.687-1.861-4.935-1.861-4.997 0-.066.667-.077 1.597-.026 8.252.45 15.993 3.541 23.07 9.213 1.796 1.439 4.953 4.56 6.466 6.391l1.244 1.507.25-.345c.7-.965 2.29-2.762 3.633-4.105 3.77-3.773 7.437-6.428 12.024-8.706 3.569-1.772 6.865-2.846 10.772-3.51 1.626-.276 5.515-.596 5.646-.465.045.045-.763 2.297-1.794 5.004l-1.875 4.923-2.053.089c-8.843.383-17.525 3-23.785 7.17-.86.573-1.828 1.274-2.148 1.557-.32.283-.63.511-.69.507-.057-.004-.443-.285-.857-.624zm-29.52-.831c.09-.036.199-.032.24.01.042.041-.032.07-.164.066-.146-.006-.176-.036-.076-.076zm60.622 0c.09-.036.198-.032.24.01.042.041-.032.07-.164.066-.146-.006-.176-.036-.076-.076zm-61.381-1.751a.484.484 0 0 1 .313 0c.086.035.016.063-.157.063-.172 0-.242-.028-.156-.063zm62 0a.484.484 0 0 1 .313 0c.086.035.015.063-.157.063s-.243-.028-.157-.063zm-30.396-4.625c.006-.146.036-.175.076-.075.036.09.032.198-.01.24-.041.041-.071-.033-.066-.165zm3.498-2.494c.161-.172.322-.313.356-.313.035 0-.07.14-.231.313-.162.172-.323.313-.357.313-.034 0 .07-.141.232-.313zm-4.122-5.967c-1.35-7.878-4.732-14.837-9.719-20.007-1.518-1.574-1.5-1.609.376-.712 1.668.797 3.155 1.92 5.234 3.953 1.021.998 2.065 1.923 2.32 2.053l.462.237-.527-.573c-.719-.782-.946-1.352-.958-2.406-.022-1.952 1.227-3.337 3.01-3.337 1.722 0 2.97 1.403 2.97 3.337-.001.984-.287 1.699-.963 2.41-.213.225-.344.408-.292.408.278 0 .82-.457 2.584-2.18 2.093-2.042 3.563-3.14 5.287-3.951 1.593-.75 1.782-.769 1.09-.113-5.124 4.865-9.157 12.663-10.44 20.192l-.275 1.61zm16.506-11.976c-.156-.198-.152-.203.047-.047.208.164.275.267.172.267-.026 0-.125-.099-.22-.22zm-2.646-.99a.484.484 0 0 1 .313 0c.086.034.016.063-.157.063-.172 0-.242-.029-.156-.064zm-40.574-45.845c.09-.037.199-.032.24.01.042.041-.032.07-.164.065-.146-.006-.176-.035-.076-.075zm30.845-3.87c.006-.147.036-.176.076-.076.036.09.032.198-.01.24-.041.041-.071-.033-.066-.165zm-18.913-.376c.006-.146.036-.176.076-.076.036.09.032.198-.01.24-.041.042-.071-.032-.066-.164zm-5.112-2.522c.19-.03.472-.028.627.002.154.03-.002.053-.347.052-.344 0-.47-.025-.28-.054z" transform="translate(47.492 -42.915) scale(.33034)"/><path style="fill:#005f9d;stroke-width:.125252" d="M-60.547 251.753c-1.373-1.078-3.158-2.218-5.167-3.302-7.225-3.898-16.362-6.21-25.666-6.493-1.527-.047-2.8-.113-2.828-.147-.083-.1-4.353-10.455-4.353-10.556 0-.05.328-.09.729-.09h.729l1.857 4.485 1.857 4.486 3.207.147c11.562.53 21.838 3.611 29.228 8.764l1.347.939v1.235c0 .68-.015 1.232-.032 1.228a27.592 27.592 0 0 1-.908-.696zm1.065-.541v-1.249l1.221-.865c3.775-2.675 8.939-5.011 14.438-6.53 4.715-1.302 9.48-2.034 14.849-2.282l3.265-.15 1.862-4.486 1.862-4.486h.728c.4 0 .728.042.728.092 0 .099-4.27 10.451-4.354 10.555-.028.034-1.328.1-2.89.147-10.589.318-21.201 3.383-28.679 8.283-.874.574-1.914 1.307-2.31 1.63l-.72.59zm.432-15.038c.195-4.386 1.089-8.97 2.528-12.963 1.913-5.308 4.988-10.622 8.225-14.216l.601-.667-.278.678c-1.177 2.877-1.744 5.308-1.726 7.398.012 1.345.02 1.394.173.913.596-1.886 2.053-3.058 3.808-3.06 1.078-.002 1.676.199 2.344.787.841.74 1.11 1.337 1.11 2.468 0 1.162-.32 1.937-1.148 2.78-.99 1.008-2.366 1.405-3.67 1.058l-.688-.184.376.303c.504.407 2.092 1.011 3.08 1.171 1.446.235 4.018.154 5.938-.185.206-.037-.37.243-1.283.622-9.08 3.773-15.94 8.837-18.921 13.967l-.55.947zm-28.776-68.078c-.923-.339-1.715-1.247-1.716-1.969v-.344h1.064c.968 0 1.065.022 1.065.241 0 .31.57.76.964.76.334 0 .8-.21.944-.425.05-.076.093-.289.094-.473.002-.47-.437-.772-1.7-1.175-1.898-.604-2.369-1.099-2.369-2.485 0-.796.042-.964.341-1.356 1.182-1.55 4.569-1.385 5.41.262.093.181.208.513.256.737l.088.407h-1.075c-.664 0-1.075-.05-1.075-.131 0-.285-.62-.746-1.004-.746-.614 0-.874.2-.874.674 0 .568.246.753 1.767 1.328 1.983.75 2.618 1.608 2.237 3.023-.188.698-1.007 1.535-1.688 1.724-.68.189-2.149.16-2.73-.052zm5.798-4.002v-4.222l2.224.046c2.134.044 2.254.06 3.007.405.848.39 1.485 1.002 1.927 1.853.427.824.476 2.542.1 3.54-.364.965-1.223 1.822-2.215 2.207-.619.24-1.028.289-2.882.337l-2.16.056zm4.196 2.204c.947-.437 1.316-1.068 1.316-2.25 0-1.569-.852-2.389-2.53-2.435l-.915-.026-.034 2.474-.034 2.473.848-.003c.555-.002 1.021-.082 1.35-.234zm7.077-2.206v-4.196h1.033l1.034.002 1.69 2.578 1.692 2.577.033-2.578.034-2.579h2v8.392h-1.975l-1.675-2.56c-.92-1.409-1.716-2.564-1.768-2.568-.052-.004-.094 1.148-.094 2.56v2.568h-2.004zm9.018 0v-4.196h5.136v1.628h-3.143l.037.846.037.845 1.346.036 1.347.035v1.495h-2.756v1.879h3.132v1.628h-5.136zm9.059 4.023c-1.149-.375-1.975-1.12-2.49-2.247-.273-.599-.333-.912-.334-1.754-.002-1.865.726-3.116 2.248-3.865.757-.373.934-.41 1.967-.406 1.189.004 1.86.205 2.711.811.368.262 1.114 1.409 1.117 1.716 0 .112-.285.156-1.016.156-.947 0-1.045-.025-1.438-.37-.7-.614-1.916-.675-2.677-.133-1.28.91-1.167 3.47.185 4.227.627.35 1.686.38 2.314.065.396-.199 1.005-.912 1.005-1.177 0-.059-.595-.107-1.322-.107h-1.321l.038-.72.037-.72 2.223-.034 2.224-.034v.922c0 1.573-.723 2.686-2.255 3.473-.698.359-2.4.463-3.216.197zm6.598-4.023v-4.196h5.135v1.628H-44.076v1.754h2.755V164.78h-2.755v1.879H-40.945v1.628h-5.135zm6.513-.012v-4.208l2.286.046c2.055.042 2.338.074 2.802.32 1.789.946 1.9 3.34.204 4.365l-.638.386.93 1.596c.51.878.929 1.62.929 1.65 0 .029-.493.052-1.096.051l-1.096-.002-.879-1.595c-.673-1.222-.944-1.605-1.158-1.635-.278-.04-.28-.026-.28 1.597v1.637h-2.004v-4.208zm4.123-.646c.148-.12.302-.428.343-.683.064-.4.022-.515-.308-.845-.353-.354-.447-.382-1.268-.382h-.886v2.13h.925c.696 0 .992-.055 1.194-.22zm3.768.658v-4.196h2.004v8.392h-2.004z" transform="translate(47.492 -42.915) scale(.33034)"/></svg>