<svg width="403.48" height="50" version="1.1" viewBox="0 0 106.75 13.229" xml:space="preserve" fill='currentColor' class="text-base-content" xmlns="http://www.w3.org/2000/svg">
<g transform="translate(400.22 177.72)">
<path d="m-317.42-177.7c-0.23796-0.0119-0.501 0.0815-0.64712 0.24793-0.20394 0.23228-0.22662 0.41367-0.11632 0.92967 0.09 0.42078 0.0978 1.1922 0.0163 1.6009-0.10959 0.54936-0.33703 1.0862-0.64381 1.5198-1.0752 1.5195-3.0252 1.9569-4.6179 1.0358-0.41266-0.23866-0.52556-0.28938-0.72384-0.32491-0.53067-0.0951-1.1218 0.22802-1.3623 0.74462-0.0729 0.15665-0.0842 0.22131-0.0839 0.48 5.3e-4 0.40566 0.0795 0.60598 0.34189 0.86785 0.18133 0.18098 0.67988 0.50512 1.056 0.68658 0.18773 0.0906 0.56514 0.39522 0.77758 0.62767 0.49085 0.53706 0.70127 1.1057 0.70216 1.8972 5.3e-4 0.48739-0.0617 0.83942-0.22331 1.2632-0.11879 0.31145-0.1279 0.35665-0.11521 0.57409 0.0283 0.48381 0.34931 0.84435 0.87399 0.98149 0.25088 0.0656 0.37834 0.0687 0.58234 0.0144 0.36706-0.0977 0.75613-0.33752 1.1605-0.71516 0.42502-0.39692 1.0654-1.2286 1.4729-1.9128 0.96394-1.6186 1.7786-3.6734 2.2472-5.6682 0.0591-0.25163 0.13425-0.54248 0.16698-0.64634 0.13388-0.42482 0.17487-0.7837 0.1726-1.5106-2e-3 -0.76549-0.0467-1.1036-0.23396-1.7824-0.15288-0.55433-0.27439-0.73548-0.57852-0.86256-0.0685-0.0286-0.14501-0.0442-0.22433-0.0482zm-76.038 0.0397c-0.0541 2e-3 -0.10619 0.01-0.15758 0.0198-0.10989 8e-3 -0.18753 0.0254-0.28449 0.0766-0.21954 0.11574-0.24047 0.19055-0.22331 0.79786 0.0118 0.41845 0.0209 0.48158 0.0845 0.58563 0.0893 0.14614 0.15602 0.16783 0.30828 0.10022 0.18492-0.0821 0.53272-0.0674 0.87564 0.0372 0.15579 0.0475 0.37533 0.1116 0.48784 0.1425 0.28021 0.077 0.55465 0.0751 0.76915-5e-3 0.16023-0.0599 0.23375-0.0989 0.26881-0.22474 0.0155-0.029 0.0212-0.0972 0.0249-0.16241 6e-3 -0.0937 7e-3 -0.21449 7e-3 -0.37632 0-0.0609-2e-3 -0.066-3e-3 -0.1142 1.8e-4 -0.0316 2e-3 -0.0752 1e-3 -0.10257-1e-5 -5.3e-4 6e-5 -2e-3 5e-5 -2e-3v-1e-4c-2.7e-4 -0.0173-2e-3 -0.0259-3e-3 -0.0418-5.3e-4 -0.0149-2e-3 -0.0256-3e-3 -0.0392-6e-3 -0.17862-0.0188-0.27403-0.0642-0.34142-0.093-0.13795-0.16521-0.15224-0.35198-0.0696-0.12062 0.0534-0.19308 0.0648-0.33009 0.0521-0.16738-0.0155-0.2713-0.0474-0.77348-0.23729-0.13255-0.0501-0.23528-0.0666-0.37337-0.0748-6e-5 -1e-5 -9e-5 1e-5 -1.8e-4 0-0.093-0.0155-0.17957-0.023-0.26098-0.0198zm33.25 0.0256c-0.27162 0-0.31111 7e-3 -0.3399 0.0609-0.0353 0.0659-0.0478 12.767-0.0128 12.898 0.0181 0.0677 0.0341 0.0708 0.3565 0.0708h5.3e-4c5.3e-4 0 2.6e-4 4e-5 1e-3 4e-5h2.7e-4c0.16619 0 0.25075-4e-3 0.29938-0.0151h5e-5l0.0307-5.3e-4v-8e-3c0.0146-7e-3 0.0238-0.0153 0.0282-0.0264 0.0105-0.0274 0.0191-2.942 0.0191-6.4769 0-4.5259-8e-3 -6.081-0.0314-6.3517l1.5e-4 -0.11208-0.0709-0.019c-2e-3 -5.3e-4 -7e-3 -5.3e-4 -9e-3 -1e-3 -0.0244-5e-3 -0.0512-8e-3 -0.0885-0.0112-0.0376-3e-3 -0.0768-5e-3 -0.12158-5e-3 -0.023-5.3e-4 -0.036-2e-3 -0.0615-2e-3zm30.888 5e-3c-0.0786-2e-3 -0.1524 1e-3 -0.21377 6e-3l-0.15688 5e-3 -5e-5 0.041-0.0157 8e-3v6.4443c0 0.0501 1.8e-4 0.0533 1.8e-4 0.10267-2e-3 1.9885 2e-3 3.6403 8e-3 4.8368 1e-5 5.3e-4 0 5.3e-4 0 1e-3 1e-5 1.2e-4 0 1.4e-4 0 2.6e-4 1e-3 0.24458 3e-3 0.41419 5e-3 0.59203 5.3e-4 0.0469 5.3e-4 0.11093 1e-3 0.15094v1e-3 1.9e-4c1e-3 0.0856-1.8e-4 0.79353 1e-3 0.79625 7e-3 0.0197 0.0705 0.0274 0.16855 0.0302 0.0307 3e-3 0.0694 4e-3 0.10866 5e-3 0.0161 5.2e-4 0.0289 2e-3 0.0453 3e-3 4e-3 7e-5 7e-3 -2.6e-4 0.0109-2.3e-4h1.7e-4c7e-3 4e-5 0.0109 5.3e-4 0.0185 5.3e-4 0.0291 0 0.0324-2e-3 0.0562-2e-3 0.0488-5.2e-4 0.092-2e-3 0.12996-6e-3 0.0203-2e-3 0.0563-2e-3 0.0698-6e-3l0.085-2e-3 2e-3 -1.6652c6e-3 -1.335 8e-3 -3.2475 6e-3 -5.2166 5e-3 -4.3918-2e-3 -6.0586-0.0282-6.09-0.0222-0.0267-0.10556-0.0342-0.25402-0.0338-1.7e-4 0-2.6e-4 1e-5 -5.3e-4 0-0.0167-5.3e-4 -0.0299-2e-3 -0.0469-3e-3zm-26.274 0.0259c-0.21955-2e-3 -0.44192 9e-3 -0.48779 0.0332-5e-3 3e-3 -9e-3 8e-3 -0.0129 0.0124-2e-3 5.3e-4 -0.0138 5.3e-4 -0.0149 1e-3 -1e-3 5.2e-4 -2e-3 0.0394-3e-3 0.0455-0.0133 0.0641-0.0192 0.40169-0.0232 0.76233-9e-3 0.68403-0.01 1.6488-7e-3 2.6011-5.2e-4 0.7693 2e-3 1.3544 8e-3 1.787 5.3e-4 0.0628 2e-3 0.1058 3e-3 0.15794 3e-3 0.14449 4e-3 0.42466 8e-3 0.43534 2e-3 5e-3 9e-3 8e-3 0.0136 0.0128 2e-3 0.0106 4e-3 0.0466 7e-3 0.0477 4e-5 1e-5 1e-3 3e-5 1e-3 4e-5 0.0355 0.0139 0.25045 0.0187 0.46829 0.017 0.0174 1.8e-4 0.0174 1e-3 0.0351 1e-3l0.46498 2e-3 0.0307-0.0807c0.017-0.0448 0.0322-0.48264 0.0342-0.98352 2.6e-4 -0.0984 1e-3 -0.14133 1e-3 -0.22124l8e-3 -0.48664c0.0172-0.16948 0.0722 0.11655 0.25559 0.95088 0.0862 0.39237 0.16493 0.68786 0.19648 0.75241l0.01 0.0373h2e-3c1.8e-4 1.8e-4 1e-3 5e-3 2e-3 5e-3 2.6e-4 1.8e-4 2e-3 1.8e-4 2e-3 2.7e-4 4e-5 3e-5 2.7e-4 1e-3 2.7e-4 1e-3 0.0285 0.0181 0.16165 0.0246 0.30325 0.0243 0.19685 1e-3 0.41482-0.0118 0.43533-0.038 0.017-0.0216 0.12135-0.47125 0.23203-0.99919l0.0176-0.0839c0.092-0.43783 0.17568-0.82514 0.18394-0.84291l8e-3 0.92414c6e-3 0.64217 0.0198 0.97106 0.0432 0.99923 2e-3 3e-3 0.0145 5e-3 0.0203 7e-3 0.0279 0.022 0.13482 0.0281 0.29052 0.0307 0.18249 7e-3 0.39265 7e-3 0.53708-5e-3 7e-3 -5.3e-4 0.0141-2e-3 0.0204-2e-3 0.0657-7e-3 0.11681-0.0148 0.12816-0.0262 1e-3 -1e-3 2e-3 -0.0374 3e-3 -0.0432 0.0267-0.10287 0.0318-0.74242 0.0332-2.2716 6e-3 -1.6143-2e-3 -3.458-0.0288-3.5011-3e-3 -5e-3 -0.0112-8e-3 -0.0165-0.0114v-5e-3l-6e-3 -8e-5h-9e-5c-0.0442-0.0244-0.15504-0.0348-0.44068-0.0414-0.23867-6e-3 -0.47005 3e-3 -0.51421 0.0204-3e-3 1e-3 -6e-3 4e-3 -9e-3 6e-3h-0.0472l-0.0328 0.10225c-0.018 0.0563-0.20411 0.84548-0.41348 1.7538-0.2057 0.89241-0.37301 1.602-0.38476 1.6334-9e-3 0.0233-0.0172 0.0307-0.0349-0.0256-5.3e-4 -2e-3 -2e-3 -6e-3 -2e-3 -8e-3 -0.0225-0.0735-0.0705-0.28125-0.14452-0.59927-0.0173-0.0732-0.0442-0.18788-0.0673-0.28633-0.0779-0.3343-0.17283-0.74142-0.23632-1.0128-0.0769-0.32888-0.18746-0.80262-0.24562-1.0528-0.0171-0.0733-0.0295-0.11089-0.0444-0.16753-0.0414-0.16364-0.0787-0.29914-0.0891-0.30957-5.3e-4 -5.3e-4 -0.0149-1e-3 -0.0169-2e-3 -4e-3 -5e-3 -8e-3 -0.0141-0.0113-0.0167-0.0345-0.0252-0.25123-0.0396-0.47078-0.0415zm14.253 2.6e-4c-0.52652 5.3e-4 -1.036 0.0114-1.0965 0.0317h-0.0162v5e-5l-5.2e-4 1e-3c-1e-5 1e-5 -9e-5 0-9e-5 0-6e-3 3e-3 -0.0103 8e-3 -0.015 0.0144l-0.0301 2.6e-4 -5.3e-4 0.27177c-7e-3 0.1547-9e-3 0.74107-0.0103 1.1829-5e-3 0.7402-5e-3 1.5566-2e-3 2.3701 1e-5 3e-3 2e-5 7e-3 4e-5 0.01 1e-5 2e-3 -1e-5 3e-3 0 5e-3s-1e-5 3e-3 0 5e-3c3e-3 1.2032 0.0101 1.8731 0.0298 1.9585 5.3e-4 3e-3 1e-3 0.0227 2e-3 0.0238 9e-5 1.8e-4 1e-3 1.8e-4 1e-3 2.7e-4 1e-3 2e-3 2e-3 0.0211 3e-3 0.0216 2e-3 5.2e-4 0.084 5.2e-4 0.0917 2e-3 0.13012 0.0147 0.42084 0.0193 1.0676 0.0193 0.69566 0 0.94555-3e-3 1.0565-0.0188 0.016-2e-3 0.0271-3e-3 0.0388-5e-3 0.01-2e-3 0.0247-5e-3 0.0311-7e-3 8e-3 -2e-3 0.0262-4e-3 0.0289-7e-3 0.0259-0.0259 0.0378-0.183 0.0378-0.50245 0-0.4272-5e-3 -0.46729-0.0609-0.49724-0.0357-0.0191-0.3026-0.0326-0.64519-0.0326h-0.34824l-0.23604-4e-3v-1.3497h0.51308c0.0109 0 0.0138-5.3e-4 0.0243-5.3e-4 0.25888-5.2e-4 0.48836-9e-3 0.51439-0.0185 0.0255-0.01 0.0364-0.0713 0.0426-0.18348 5e-3 -0.0705 6e-3 -0.15486 6e-3 -0.25678 8e-5 -0.0259 1e-3 -0.0276 1e-3 -0.057 0-5e-3 -2.6e-4 -6e-3 -2.6e-4 -0.0111 0-3e-3 2.6e-4 -5e-3 2.6e-4 -8e-3 0-5.2e-4 -9e-5 -1e-3 -9e-5 -2e-3s9e-5 -2e-3 9e-5 -3e-3c0-0.27288-3e-3 -0.38088-0.0196-0.43612-2e-3 -0.0108-5e-3 -0.0171-7e-3 -0.0247-1e-3 -2e-3 -2e-3 -6e-3 -3e-3 -7e-3 -3e-3 -8e-3 -6e-3 -0.0206-9e-3 -0.024-0.0263-0.0263-0.1937-0.0378-0.55073-0.0378h-0.0213c-5.3e-4 0-1e-3 -5e-5 -2e-3 -5e-5h-0.48987v-1.3532h0.60743c0.21523 0 0.36982-3e-3 0.47396-9e-3s0.15779-0.0155 0.17117-0.0289c0.0225-0.0225 0.0326-0.1667 0.0354-0.40726 5.3e-4 -0.0307 2e-3 -0.0551 2e-3 -0.0861 0-5e-3 2.6e-4 -6e-3 2.6e-4 -0.011v-0.46654l-0.0808-0.0307c-0.0557-0.0212-0.59841-0.0314-1.1371-0.0309zm3.9563 2e-3c-0.22473-5e-5 -0.44946 6e-3 -0.49512 0.0182-0.0168 5e-3 -0.0328 0.0197-0.05 0.0452-2e-3 2e-3 -6e-3 3e-3 -8e-3 5e-3s-0.0141 0.0373-0.018 0.0454c-0.0115 0.0238-0.031 0.0767-0.0455 0.11475-0.0319 0.0861-0.0692 0.19533-0.11595 0.33723-0.015 0.0458-0.0187 0.051-0.0362 0.10538-0.1122 0.34864-0.24639 0.76135-0.29822 0.91714l-0.0928 0.27872-2e-3 -0.86282c-2e-3 -0.51797-9e-3 -0.76589-0.0275-0.86657-2e-3 -0.0159-3e-3 -0.0722-6e-3 -0.0757-0.0237-0.0376-0.12254-0.0493-0.48512-0.0574-0.29215-7e-3 -0.47868 2e-3 -0.52048 0.0247l-0.031 0.0166-0.0184 2.6e-4 -5e-5 0.01-0.0157 8e-3v2.2917c-5.3e-4 0.22258-3e-3 0.4018-2e-3 0.62983 2.6e-4 0.36841 4e-3 0.6698 6e-3 1.0133 3e-3 1.2484 0.0116 1.886 0.0358 1.8958 3e-3 1e-3 0.0582 1e-3 0.0679 2e-3 0.093 0.0126 0.2902 0.0178 0.50268 0.015 0.36755 1e-3 0.4308-5e-3 0.45899-0.0575 0.02-0.0375 0.0334-0.39738 0.0348-0.93626l2.7e-4 -0.1088 0.0128-0.73287 0.14577 0.45405c0.0861 0.2683 0.22322 0.6861 0.30463 0.92843l0.14803 0.44059h0.10087c0.0773 0.0109 0.20522 0.0157 0.43381 0.0157 0.46604 0 0.56145-0.011 0.57571-0.0691 8e-5 -2.6e-4 5.3e-4 -5.2e-4 5.3e-4 -1e-3 0-2e-5 -1.7e-4 -2.7e-4 -1.7e-4 -5.3e-4 1e-3 -5e-3 6e-3 -9e-3 6e-3 -0.0148 0-5e-3 -0.0653-0.1745-0.0766-0.2081-0.0631-0.18844-0.15944-0.45848-0.29611-0.81525-0.20738-0.54136-0.45043-1.1781-0.54011-1.4149l-0.16307-0.43063 0.53805-1.4105c0.29594-0.77574 0.538-1.4336 0.538-1.4619-6e-5 -0.0283-0.0319-0.0599-0.0709-0.0703-0.0458-0.0123-0.27053-0.0185-0.49526-0.0185zm-7.9471 1e-3c-0.15584 4e-3 -0.2678 0.0124-0.2951 0.027l-0.0332 0.0177h-0.0179l-4e-5 0.01-0.0157 8e-3v2.888c0 2.2042 9e-3 2.8969 0.0378 2.9258v5e-5c5.3e-4 5.3e-4 7e-3 1e-3 9e-3 2e-3 0.0268 0.023 0.17653 0.0297 0.42547 0.0303 0.4398 0.0112 1.0729 3e-3 1.2357-0.0297 0.0174-3e-3 0.0337-9e-3 0.0507-0.0136 0.0172-4e-3 0.0354-9e-3 0.0509-0.0135 0.0246-7e-3 0.0488-0.0148 0.0725-0.0236 4e-3 -2e-3 8e-3 -2e-3 0.0115-4e-3 7e-3 -3e-3 0.0128-6e-3 0.0197-9e-3 0.0376-0.015 0.0741-0.0314 0.10935-0.0501 6e-3 -3e-3 0.0116-7e-3 0.0176-0.01 0.0332-0.0183 0.0655-0.0375 0.0963-0.0589 0.0146-0.01 0.0281-0.0211 0.0421-0.0317 0.0213-0.0164 0.0427-0.0326 0.0627-0.0505 0.0151-0.0136 0.029-0.0283 0.0433-0.0426 0.0195-0.0196 0.039-0.0392 0.0569-0.0602 5e-3 -6e-3 9e-3 -0.0122 0.0141-0.0182 0.0795-0.0977 0.1431-0.20842 0.18348-0.33137 7e-3 -0.0211 0.011-0.0517 0.0163-0.0762 9e-3 -0.0315 0.0181-0.0625 0.025-0.0958 0.0236-0.11392 0.0317-0.79018 0.0256-2.1312l-9e-3 -1.9644-0.0735-0.18196c-6e-3 -0.015-0.0129-0.0258-0.0191-0.04-0.0427-0.1081-0.0987-0.20253-0.16757-0.2843-7e-3 -8e-3 -0.0134-0.0158-0.0203-0.0233-0.10006-0.11099-0.22628-0.19698-0.38019-0.25905l-0.11959-0.0611h-0.14139c-0.31361-0.0338-0.93766-0.0537-1.313-0.0448zm10.197 2e-3c-0.30911-2e-3 -0.62062 9e-3 -0.65524 0.0342-3e-3 2e-3 -6e-3 0.0112-0.01 0.0149-0.0349 0.0203-0.0765 0.2329-0.12991 0.56156-9e-3 0.0567-0.0141 0.0723-0.0251 0.14111-0.028 0.17563-0.0322 0.20613-0.0571 0.36296-1e-3 8e-3 -1e-3 6e-3 -2e-3 0.0137-0.0194 0.12578-0.0403 0.2554-0.0627 0.39924-0.12409 0.78314-0.23724 1.5047-0.30053 1.9267-0.0448 0.29554-0.0968 0.66069-0.14268 1.0001-0.01 0.0722-0.0221 0.15016-0.0323 0.22649-0.0127 0.0948-0.0105 0.0879-0.0212 0.16818-0.0104 0.0791-0.0168 0.12058-0.0281 0.20754-0.0154 0.11807-0.0159 0.14078-0.0266 0.22747-0.0525 0.42207-0.0652 0.59113-0.0255 0.60715v-5e-5c4e-3 2e-3 0.0774 2e-3 0.0944 3e-3 0.0917 9e-3 0.22893 0.0168 0.40688 0.017 0.14946 1.8e-4 0.25018-2e-3 0.32917-8e-3 0.10893-6e-3 0.17917-0.0144 0.19233-0.0309 2e-3 -2e-3 7e-3 -0.0346 0.01-0.0429 0.0205-0.0331 0.0297-0.078 0.0383-0.14356 5e-3 -0.0397 0.0241-0.18478 0.0383-0.29366 6e-3 -0.0423 0.0118-0.0732 0.0176-0.11779l0.0727-0.55865h0.58373l0.017 0.10229c9e-3 0.0563 0.0454 0.31385 0.08 0.57244 0.0337 0.25117 0.0691 0.41943 0.0932 0.46544 5.2e-4 1e-3 2e-3 9e-3 3e-3 0.0101 9e-5 9e-5 5.3e-4 1.8e-4 5.3e-4 2.6e-4 2e-3 3e-3 5e-3 0.0184 6e-3 0.0194 7e-3 5e-3 0.0506 6e-3 0.072 9e-3 0.0181 3e-3 0.0402 6e-3 0.0671 8e-3 0.11334 8e-3 0.26432 0.0109 0.43095 8e-3 0.28247-5.3e-4 0.39633-7e-3 0.43266-0.0321 7e-3 -2e-3 0.02-4e-3 0.022-6e-3 9e-3 -0.0104 5e-3 -0.0964-5e-3 -0.21732-0.0106-0.14862-0.0316-0.3568-0.0721-0.67123-3e-3 -0.0237-0.0187-0.12441-0.0225-0.15296-0.0872-0.66846-0.22063-1.5863-0.38182-2.6008-0.13062-0.8222-0.25959-1.6436-0.28665-1.8254-0.0161-0.10808-0.034-0.19713-0.0505-0.26521l-0.0263-0.10866-0.0524-5.3e-4c-0.0975-0.0177-0.33908-0.0283-0.59102-0.03zm-15.438 2e-3c-0.93908 8e-3 -1.107 0.016-1.1324 0.0563-1.8e-4 1.8e-4 -2.6e-4 6e-3 -2.6e-4 6e-3 -5.3e-4 5.2e-4 -4e-3 5.2e-4 -4e-3 1e-3 -1e-3 2e-3 -2e-3 0.10846-3e-3 0.12249-8e-3 0.13302-0.014 0.3844-0.018 0.78911-5e-5 6e-3 -1.8e-4 7e-3 -1.8e-4 0.0125-0.01 1.0219-8e-3 2.6251 3e-3 3.7193 5.3e-4 0.0694 5.3e-4 0.16114 1e-3 0.22576 5e-3 0.41718 0.012 0.67773 0.0202 0.81133 1e-3 0.0108 2e-3 0.1028 3e-3 0.10487 1e-3 2e-3 3e-3 3e-3 4e-3 6e-3 2.6e-4 1e-3 5.2e-4 0.0171 1e-3 0.0174 3e-3 3e-3 0.0211 5e-3 0.0289 7e-3 6e-3 3e-3 0.021 5e-3 0.0304 7e-3 0.0123 2e-3 0.0245 4e-3 0.0416 5e-3 0.1119 0.0159 0.36196 0.0187 1.0521 0.0187 0.0179 0 0.0204-2.7e-4 0.0378-2.7e-4 0.34186-2.6e-4 0.61573-3e-3 0.82036-8e-3 0.022-5.3e-4 0.0417-2e-3 0.061-2e-3 0.0976-3e-3 0.22336-5e-3 0.23217-9e-3 3e-3 -1e-3 6e-3 -0.0132 8e-3 -0.0179 2.6e-4 -2.7e-4 3e-3 -5.3e-4 3e-3 -5.3e-4 5e-3 -5e-3 8e-3 -0.0186 0.0121-0.0318 1.8e-4 -5.3e-4 2.6e-4 -5.3e-4 5.2e-4 -1e-3 1e-3 -4e-3 2e-3 -5e-3 3e-3 -9e-3 2.6e-4 -5.3e-4 3e-3 -1e-3 3e-3 -2e-3 5.3e-4 -1e-3 5.3e-4 -0.0216 1e-3 -0.0239v-5e-5c3e-3 -0.021 7e-3 -0.0425 9e-3 -0.074 0.0199-0.19178 0.0203-0.51037 1e-3 -0.70548-3e-3 -0.0446-8e-3 -0.0921-0.0165-0.11083-5.2e-4 -2e-3 -1e-3 -4e-3 -2e-3 -6e-3s-2e-3 -6e-3 -3e-3 -7e-3c-6e-3 -0.0205-0.0124-0.039-0.02-0.0418-0.0274-0.0105-0.31768-0.0191-0.64514-0.0191h-0.59539v-1.3532h0.50098c0.27553 0 0.52334-9e-3 0.55072-0.0191 4e-3 -2e-3 7e-3 -8e-3 0.0101-0.0108 5.3e-4 -2.6e-4 8e-3 -5.3e-4 8e-3 -1e-3 0.0392-0.0248 0.0457-0.11074 0.0385-0.50964-6e-3 -0.33521-0.0203-0.4871-0.0472-0.50416-3e-3 -2e-3 -0.0343-3e-3 -0.0433-5e-3 -0.028-6e-3 -0.075-9e-3 -0.12909-0.0127-0.0447-2e-3 -0.1085-2e-3 -0.16476-4e-3 -0.0688-2e-3 -0.11675-5e-3 -0.21109-5e-3h-0.51297v-1.3518l0.10594-2e-3 0.49987-2.6e-4c0.2135-1.8e-4 0.37863-6e-3 0.49776-0.0129l0.17103-2e-3 2e-3 -0.0937c3e-3 -0.0219 4e-3 -0.0586 6e-3 -0.0919 1.7e-4 -2e-3 5.2e-4 -2e-3 5.2e-4 -5e-3 5.3e-4 -7e-3 2e-3 -7e-3 2e-3 -0.0145 5.3e-4 -9e-3 2e-3 -9e-3 2e-3 -0.0179v-4e-5c4e-3 -0.0868 5e-3 -0.1969 4e-3 -0.3063-1e-3 -0.0742-5e-3 -0.13892-8e-3 -0.20501-5.2e-4 -0.0768-5.2e-4 -0.17843-7e-3 -0.21045l-1e-3 -0.0628-0.0288-1.8e-4c-6e-3 -5e-3 -0.0101-0.0111-0.0177-0.0151-0.0434-0.0232-0.41703-0.0312-1.1664-0.0251zm2.0745 1e-3c-0.15034 3e-3 -0.25944 9e-3 -0.28731 0.0202l-0.0865 0.0336v2.8899c0 1.9866 8e-3 2.7119 0.0306 2.8642 5.3e-4 5e-3 1e-3 0.0388 2e-3 0.0403 5.3e-4 1e-3 2e-3 2e-3 3e-3 3e-3 1e-3 2e-3 1e-3 0.019 2e-3 0.0199 3e-3 3e-3 0.016 6e-3 0.0246 9e-3 1e-3 5.3e-4 4e-3 1e-3 6e-3 2e-3 8e-3 2e-3 0.0158 5e-3 0.0279 7e-3 0.0569 0.0158 0.16845 0.0193 0.44981 0.0193 5.2e-4 0 1e-3 -4e-5 2e-3 -4e-5 2e-3 0 2e-3 9e-5 3e-3 9e-5 0.32766 0 0.48692-0.0118 0.51297-0.0378 7e-3 -7e-3 0.0128-0.0302 0.0177-0.0733 1e-5 -2e-5 0-8e-5 0-1e-4 0.0148-0.12949 0.0211-0.43785 0.0225-1.0202l2e-3 -1.0503 0.086 0.32031 0.022 0.0832c0.0192 0.0729 0.0285 0.10398 0.0468 0.17293l0.12678 0.47221c0.0109 0.0406 0.0163 0.0561 0.0267 0.0946 0.0849 0.31176 0.14859 0.53785 0.1956 0.69387 1e-3 4e-3 2e-3 7e-3 3e-3 0.0104 0.0354 0.11684 0.0831 0.28331 0.0922 0.2943 0.0241 0.0291 0.16761 0.0398 0.53017 0.0398 4e-3 0 6e-3 -1.8e-4 0.0103-1.8e-4 0.14937 2e-3 0.2845-2e-3 0.39121-8e-3 0.0691-3e-3 0.13442-7e-3 0.1454-0.0108 4e-3 -2e-3 6e-3 -6e-3 0.01-8e-3 5.2e-4 -2.6e-4 3e-3 -2.6e-4 4e-3 -5.3e-4 8e-3 -5e-3 0.0138-0.0109 0.0184-0.0186 0.0104-0.0143 0.0175-0.0311 0.0175-0.0478 0-5e-3 -0.0196-0.0636-0.0254-0.0848-3e-3 -0.0137-0.0146-0.0474-0.0192-0.064-0.0439-0.143-0.11893-0.37079-0.22598-0.6739-0.22205-0.62872-0.40813-1.1744-0.49844-1.4463-0.0414-0.12652-0.10838-0.32384-0.10539-0.32589 1e-3 -1e-3 0.0249-0.0151 0.0322-0.0195 0.0174-0.01 0.0254-0.0166 0.0564-0.0294 0.0533-0.0221 0.11015-0.069 0.1662-0.12419 0.0117-0.0106 0.0216-0.0234 0.0328-0.0347 0.0213-0.0231 0.0426-0.0436 0.0626-0.0696 0.0372-0.0462 0.0707-0.0961 0.0997-0.15006 1e-3 -2e-3 2e-3 -3e-3 3e-3 -5e-3 0.0207-0.039 0.0373-0.0805 0.0532-0.12267 6e-3 -0.0168 0.0167-0.0338 0.0218-0.0504 1e-3 -4e-3 2e-3 -8e-3 3e-3 -0.0121 2.7e-4 -1e-3 5.3e-4 -2e-3 1e-3 -3e-3 0.0386-0.127 0.0496-0.27182 0.0524-0.50659 3e-3 -0.11134 7e-3 -0.19323 7e-3 -0.385 0-0.29882-9e-3 -0.49493-0.0251-0.65873-8e-3 -0.11843-0.0218-0.21059-0.0428-0.27412-4e-3 -0.0137-9e-3 -0.0266-0.0131-0.0397-3e-3 -7e-3 -4e-3 -0.0133-7e-3 -0.0203-5.3e-4 -2e-3 -2e-3 -3e-3 -2e-3 -5e-3 -0.0215-0.0592-0.0533-0.11619-0.0857-0.17195-0.0118-0.0208-0.0229-0.0438-0.0355-0.0631-7e-3 -0.0104-0.0101-0.0199-0.0172-0.0305-0.0267-0.04-0.0626-0.0807-0.10419-0.12041-0.0224-0.0224-0.0495-0.0408-0.0743-0.0608-0.0285-0.0229-0.0564-0.0451-0.0878-0.066-0.0179-0.0113-0.036-0.0229-0.0551-0.0334-0.0778-0.0468-0.15838-0.0881-0.23655-0.11249-0.11557-0.0361-0.93801-0.0598-1.389-0.0511zm4.1485 1.0609c0.0773 1e-3 0.11892 0.0244 0.14134 0.18915 7e-3 0.0549 0.0128 0.12551 0.0167 0.2163v5e-5c4e-3 0.0908 6e-3 0.20171 7e-3 0.33723 3e-3 0.27108 2e-3 0.64052 2e-3 1.1438 0 0.57991-3e-3 1.0276-8e-3 1.3353-3e-3 0.15387-6e-3 0.27273-0.0102 0.35563-4e-3 0.0829-9e-3 0.1298-0.0141 0.13977v5e-5c-7e-3 0.0122-0.014 0.0221-0.0236 0.0301-0.0289 0.024-0.0776 0.0308-0.18099 0.0308h-0.17196v-3.7766h0.15246c0.0342 0 0.064-2e-3 0.0898-2e-3zm-3.4208 2e-3h0.12097c0.0124 0 0.0181 3e-3 0.0291 3e-3 0.0522 4e-3 0.10044 0.0172 0.12825 0.0358 0.0619 0.062 0.0678 0.22256 0.0678 0.64264 0 0.35627-4e-3 0.48909-0.0233 0.55579-5e-3 0.0127-0.01 0.0269-0.015 0.0352-4e-3 6e-3 -8e-3 0.0133-0.0127 0.0185-0.0102 0.0104-0.0237 0.0164-0.0359 0.024-0.0381 0.0208-0.0925 0.0376-0.14355 0.0376h-0.11581v-0.67663zm-49.337 0.0153c-0.54447 0.0267-1.0246 0.38115-1.2264 0.90524-0.01 0.0253-0.0138 0.0538-0.0222 0.0799-9e-3 0.0255-0.0175 0.0527-0.0222 0.0797-0.0102 0.0389-0.025 0.0754-0.0322 0.11576v5e-5c-0.0148 0.0829-0.0211 0.16602-0.0194 0.24834 2e-3 0.0824 0.0113 0.16395 0.0284 0.24392 0.0171 0.08 0.0415 0.15826 0.0728 0.23405v5e-5c0.0313 0.0758 0.0694 0.14905 0.11382 0.21889v5e-5c0.0444 0.0698 0.0952 0.13625 0.15153 0.19837 0.1692 0.18641 0.38973 0.33406 0.64639 0.41892 0.0506 0.0167 0.14261 0.0253 0.24875 0.0298 0.11617 0.0119 0.23297 9e-3 0.34761-9e-3 0.13889-0.011 0.23285-0.0306 0.37166-0.0958 0.1403-0.0659 0.27034-0.15719 0.38356-0.26601 0.0377-0.0363 0.0736-0.0744 0.10738-0.11433v-4e-5c0.0337-0.0399 0.0654-0.0814 0.0947-0.12434 0.0586-0.0858 0.10769-0.17717 0.14541-0.27167 0.0188-0.0472 0.0349-0.0952 0.0477-0.14379v-5e-5c0.0103-0.0387 0.0196-0.099 0.0262-0.16499 7e-3 -0.066 0.0106-0.13777 0.0104-0.19929-3e-3 -0.68977-0.50256-1.2614-1.1973-1.3692-0.0933-0.0145-0.18585-0.0191-0.2766-0.0146zm75.752 0.0839c-0.18791-8e-3 -0.37466 5e-3 -0.50062 0.0418-0.14591 0.0424-0.28121 0.10313-0.40661 0.1762-8e-3 5e-3 -0.0154 9e-3 -0.023 0.0132-0.44566 0.2686-0.74754 0.71334-0.8253 1.2055-8e-3 0.0531-0.0142 0.10676-0.0173 0.1608v4e-5c-3e-3 0.054-3e-3 0.10841-1e-3 0.16301s8e-3 0.10948 0.0157 0.16436c8e-3 0.0548 0.0191 0.10974 0.0331 0.16453v4e-5c0.0189 0.0739 0.0416 0.1452 0.0681 0.21382v5e-5c0.0265 0.0686 0.0566 0.13455 0.0904 0.19768v4e-5c0.0338 0.0631 0.0712 0.12343 0.11207 0.18081 0.20453 0.28696 0.49661 0.5005 0.86181 0.62513 0.0854 0.0292 0.17114 0.0483 0.25678 0.063 3e-3 5.3e-4 7e-3 2e-3 0.0107 3e-3 9e-3 2e-3 0.0176 1e-3 0.0262 3e-3 0.58034 0.0857 1.1484-0.14602 1.5176-0.56695 0.0431-0.0492 0.0836-0.10088 0.12101-0.15494 0.18711-0.27029 0.29893-0.59873 0.29832-0.95844-2.6e-4 -0.18065-0.0287-0.35622-0.0816-0.52177-0.0265-0.0828-0.0591-0.16301-0.0974-0.24018-0.19176-0.38586-0.52667-0.69409-0.95125-0.8485-0.13046-0.0474-0.31949-0.0764-0.50739-0.0843zm17.93 0.77662c-0.0408 2e-3 -0.0882 6e-3 -0.14318 6e-3 -0.12628 0-0.20876-1e-3 -0.26712 0.013l-0.11054 3e-3 -2e-3 0.13355c-5e-3 0.0301-9e-3 0.0649-0.011 0.1083v4e-5c-5e-3 0.093-3e-3 0.21949-3e-3 0.39126v4e-5c0 0.16051-3e-3 0.30509-7e-3 0.40869-4e-3 0.0985-0.01 0.15199-0.0158 0.15494l-0.14204-0.0736c-0.13769-0.0714-0.2032-0.0847-0.41629-0.0847-0.21351 0-0.28098 0.0138-0.43308 0.0885-0.43302 0.21264-0.64379 0.68437-0.61392 1.3741 0.0176 0.40556 0.0671 0.59763 0.21875 0.84798 0.12692 0.20955 0.28444 0.33952 0.5031 0.41504 0.28562 0.0987 0.57339 0.0685 0.8176-0.0856l0.1211-0.0765 0.0302 0.0794c0.0296 0.0779 0.0364 0.0794 0.36033 0.0794 5.5e-4 0 5.3e-4 -5e-5 1e-3 -5e-5 2.6e-4 0 4.4e-4 5e-5 5.5e-4 5e-5 0.11701 0 0.19576 0.0167 0.24977-9e-3 0.0634-8e-3 0.095-0.0219 0.11101-0.0519 0.0512-0.0957 0.0444-3.5931-7e-3 -3.6636-0.0179-0.0245-0.0469-0.0372-0.10953-0.0433-0.034-0.0156-0.0767-0.017-0.13241-0.0143zm3.7399 6e-3c-0.0782-5.3e-4 -0.15462 2e-3 -0.21834 8e-3 -0.0991 4e-3 -0.15704 0.0139-0.17887 0.0438-0.052 0.0711-0.0583 3.568-7e-3 3.6646 0.0222 0.0416 0.088 0.0508 0.23105 0.0519 0.12361 8e-3 0.27323 7e-3 0.38029-4e-3l0.15808-4e-3 2e-3 -0.0935c1e-3 -5e-3 3e-3 -7e-3 4e-3 -0.0128v-5e-5c8e-3 -0.0573 0.01-0.15467 0.01-0.32957v-0.0329c0-0.0744 4.5e-4 -0.12623 1e-3 -0.17348 9e-3 -0.15129 0.0274-0.17599 0.0937-0.23954 0.0512-0.0491 0.0985-0.0832 0.10497-0.0758 6e-3 7e-3 0.14406 0.22275 0.3057 0.47862 0.12891 0.20407 0.22821 0.34551 0.29255 0.42021l0.0275 0.043h0.0159c7e-3 6e-3 0.0175 0.0168 0.0224 0.018 0.01 2e-3 0.0856 2.7e-4 0.11502 2e-3 0.2036 0.0162 0.57696 0.0164 0.63919-7e-3 0.0137-5e-3 0.0261-0.0144 0.0351-0.0247 9e-3 -0.0104 0.0146-0.022 0.0146-0.0324 0-1e-3 -0.0158-0.0257-0.0174-0.0294-0.0245-0.0762-0.18908-0.3471-0.45373-0.74222-0.2586-0.38608-0.46766-0.70341-0.47018-0.71351 1e-3 -3e-3 2e-3 -5e-3 3e-3 -8e-3l5e-5 -4e-5c1e-3 -3e-3 0.0185-0.0241 0.0222-0.0301 0.0234-0.0328 0.18588-0.22464 0.41311-0.48591 0.24296-0.27933 0.43754-0.52989 0.43239-0.5568-3e-3 -0.0164-0.023-0.0268-0.0603-0.035-5e-3 -3e-3 -8e-3 -9e-3 -0.0138-0.0106-0.0505-0.0194-0.4291-0.0226-0.63494-0.0112-0.0949 3e-3 -0.16561 7e-3 -0.17823 0.0148-0.0233 0.0135-0.18075 0.18741-0.34986 0.38647-0.16912 0.19905-0.31925 0.36658-0.33363 0.37226-5e-3 2e-3 -9e-3 -0.0958-0.0134-0.16831l-6e-3 -0.67644-1.8e-4 -0.0153v-5e-5c-3e-3 -0.40659-7e-3 -0.63579-0.0155-0.76776v-5e-5c-2e-3 -0.0247-5e-3 -0.0322-6e-3 -0.0506l-2e-3 -0.15717-0.15536-4e-3c-0.0599-7e-3 -0.13408-0.0109-0.21022-0.0116zm-80.021 0.054c-0.11507 1e-3 -0.2289 0.0218-0.29662 0.0609-0.28332 0.16358-0.2786 0.61773 8e-3 0.77145 0.13799 0.074 0.43642 0.0765 0.58737 5e-3 0.11852-0.0563 0.22755-0.24213 0.22755-0.38794 0-0.13874-0.11231-0.33825-0.22248-0.39522-0.0725-0.0375-0.18878-0.0554-0.30385-0.054zm7.3406 0.0761c-0.0717 2.7e-4 -0.14382 0.0196-0.22865 0.0581-0.0991 0.0449-0.15339 0.0717-0.18487 0.22004-2.3e-4 5.3e-4 -5.3e-4 1e-3 -1e-3 2e-3 -2.5e-4 5.3e-4 -5.3e-4 6e-3 -5.3e-4 7e-3 -2e-3 9e-3 -4e-3 0.0177-6e-3 0.0278l-3e-3 6e-3v0.0131c-0.0319 0.22125-0.0314 0.65912-0.0314 1.611 0 0.92339 0.0125 1.637 0.0296 1.6817 0.0147 0.0387 0.0414 0.0754 0.0724 0.10977 2.1e-4 2.6e-4 5.2e-4 5.3e-4 5.2e-4 5.3e-4 0.0531 0.0585 0.12253 0.10748 0.19534 0.12866 0.14947 0.0435 0.24233 0.0368 0.38443-0.0278 0.20654-0.0938 0.22683-0.13486 0.2289-1.3293 5e-3 -0.38106 5e-3 -0.74048 0-1.1215-1e-5 -5.3e-4 0-1e-3 0-2e-3 -1e-5 -1.7e-4 0-2.6e-4 0-5.2e-4 -1e-3 -0.54082-6e-3 -0.89986-0.0301-1.0621v-0.04935l-0.0123-0.0123c-0.0322-0.13572-0.0872-0.15838-0.18638-0.20339-0.0836-0.0379-0.15508-0.0569-0.22682-0.0567zm-5.9251 0.0123c-0.12186-8e-3 -0.24416 0.0238-0.32787 0.0983-0.0417 0.0372-0.071 0.0702-0.0928 0.13028l-0.0107 0.0114v0.0248c-3e-3 0.0115-7e-3 0.0195-0.01 0.0331l-6e-3 9e-3v0.0399c-0.0297 0.20563-0.0314 0.61656-0.0314 1.5873 0 0.97141 2e-3 1.3824 0.0314 1.5878v0.0395l6e-3 9e-3c0.022 0.11384 0.0568 0.14948 0.11207 0.19865 0.0351 0.0313 0.10434 0.0697 0.1538 0.0852 0.11025 0.0347 0.30296 0.013 0.41947-0.0472 0.06-0.031 0.0993-0.0792 0.12885-0.14596 5.3e-4 -5.2e-4 1e-3 -2e-3 2e-3 -2e-3 9e-5 -1.7e-4 1.7e-4 -2e-3 2.6e-4 -2e-3l4e-5 -5e-5c0.041-0.0958 0.0591-0.23555 0.0598-0.46889l1.8e-4 -0.0589 0.0115-0.24844c9e-3 -6e-3 0.0215-5e-3 0.0359 2e-3l4e-5 5e-5 0.19501 0.21602c0.49668 0.55003 0.67677 0.71578 0.81908 0.75371 0.18714 0.0499 0.34913 0.012 0.47161-0.11027 0.1222-0.12199 0.13475-0.25936 0.0382-0.41777-0.0351-0.0576-0.21212-0.27366-0.39329-0.4801-0.18117-0.20643-0.32939-0.3905-0.32939-0.40905 0-0.0185 0.14337-0.19196 0.3186-0.38536s0.33946-0.40052 0.36498-0.46027c0.10147-0.23754-0.0772-0.47319-0.35894-0.47346-0.26077-2.6e-4 -0.33421 0.0548-0.85471 0.64132l-0.30395 0.34248-0.0157-0.93055-0.0157-0.93059-0.0929-0.0969c-3e-3 -3e-3 -7e-3 -6e-3 -0.0108-9e-3 -0.0142-0.0151-0.0303-0.0288-0.0487-0.0406-0.0762-0.0542-0.17059-0.0859-0.26596-0.0923zm-10.026 5e-3c-0.0977-2.6e-4 -0.1985 0.0168-0.26384 0.0512-0.21752 0.11471-0.21299 0.0746-0.21299 1.8779 0 1.4879 5e-3 1.6291 0.0554 1.7221 0.0558 0.10218 0.12543 0.15325 0.27323 0.20063 0.10439 0.0335 0.31308 6e-3 0.40265-0.0522 0.0932-0.061 0.13653-0.11847 0.16131-0.26969 1e-3 -7e-3 2e-3 -0.0157 3e-3 -0.0237 4e-3 -0.0252 8e-3 -0.0677 0.0109-0.10354 9e-3 -0.11633 0.016-0.26079 0.0212-0.48305l0.0157-0.66394c5.2e-4 2.6e-4 4e-3 4e-3 5e-3 5e-3 1.8e-4 9e-5 1e-3 1e-3 1e-3 1e-3l0.36908 0.38951c0.91337 0.96395 1.1231 1.1652 1.2501 1.1994 0.17556 0.0473 0.33982 7e-3 0.45995-0.11304 0.10852-0.10833 0.13307-0.24371 0.0729-0.402-0.0162-0.0426-0.32069-0.38922-0.67667-0.77044-0.35598-0.38121-0.64721-0.70291-0.64721-0.71488 0-0.012 0.27517-0.30382 0.61148-0.64851 0.65837-0.67475 0.71335-0.75589 0.64754-0.9553-0.0553-0.16765-0.16476-0.23649-0.37577-0.23649-0.14092 0-0.20435 0.0175-0.30261 0.0837-0.0684 0.0461-0.41463 0.38752-0.76947 0.75878l-0.57022 0.59659c-9e-3 8e-3 -0.0246 0.0225-0.0314 0.028-0.01 8e-3 -0.0397 0.0372-0.0439 0.0391l-0.0154-0.61522c-0.017-0.67677-0.0306-0.73268-0.20616-0.8477-0.0531-0.0348-0.14773-0.0524-0.24544-0.0526zm77.473 0.0409c-6e-3 0-6e-3 2.6e-4 -0.0121 2.6e-4 -0.0164 2.7e-4 -0.0297 5.3e-4 -0.046 1e-3 -0.34771 1e-3 -0.42737 8e-3 -0.45091 0.0537-0.0158 0.0303-0.20224 0.55076-0.41441 1.1566-0.21216 0.60583-0.39474 1.1117-0.40573 1.1241-0.011 0.0124-0.20316-0.49448-0.42699-1.1264-0.20028-0.56547-0.36296-0.99648-0.41357-1.1044-1e-3 -3e-3 -0.0185-0.0517-0.019-0.0525-2.6e-4 -2.7e-4 -2e-3 -5.3e-4 -3e-3 -1e-3 -1e-3 -2e-3 -8e-3 -0.0215-9e-3 -0.022-0.0178-0.0148-0.17923-0.0212-0.38476-0.0213-0.16247-6e-3 -0.31552-5e-3 -0.43155 5e-3l-0.18818 3e-3 -1e-3 0.19773c-2e-3 0.0264-5e-3 0.0306-6e-3 0.0677v5e-5c-2e-3 0.0418-5.3e-4 0.22673-2e-3 0.2849-3e-3 0.26641-5e-3 0.60218-6e-3 0.98062-4e-5 0.11823-1e-3 0.10667-1e-3 0.24663v5e-5c0 0.14022 1e-3 0.13774 2e-3 0.25628 5.6e-4 0.37169 2e-3 0.70428 6e-3 0.96793 1e-5 2.7e-4 0 2.7e-4 0 5.3e-4v1.8e-4c1e-3 0.0517 1.8e-4 0.20918 1e-3 0.2488v5e-5c1e-3 0.0382 4e-3 0.0451 6e-3 0.0735 0 9e-5 -1e-5 1.8e-4 0 2.7e-4 5.5e-4 0.0226-1.8e-4 0.20494 5.5e-4 0.20745h-1.8e-4c0.0109 0.0284 0.11958 0.0394 0.3926 0.0394 0.34105 0 0.38068-6e-3 0.41011-0.0609 0.0416-0.0775 0.0416-0.59358 0-1.4302-0.013-0.26217-0.0142-0.37564-0.0158-0.48452 4.5e-4 -0.0295-2e-3 -0.16415-1e-3 -0.17085 0.01 5e-3 0.16263 0.41162 0.34834 0.92778 0.18819 0.52312 0.36748 1.0113 0.3984 1.0849l0.0562 0.13378h0.26476c0.15311 0 0.23506-0.0119 0.27287-0.0321 3e-3 -2e-3 0.0128-2e-3 0.0144-3e-3v-4e-5c1e-5 -1e-5 5.3e-4 -1e-3 5.3e-4 -1e-3h4e-5c2e-3 -2e-3 9e-3 -2e-3 0.0108-3e-3 0.0186-0.0224 0.20382-0.50746 0.41158-1.0779l0.37776-1.0371-0.0194 1.0293c-2e-3 0.12405-5.5e-4 0.15477-2e-3 0.2529-6e-5 2e-3 -1.8e-4 5e-3 -2.7e-4 7e-3v5e-5c-6e-3 0.18023-8e-3 0.32602-7e-3 0.44201 4e-5 5e-3 5.2e-4 6e-3 5.2e-4 0.0101 1.8e-4 0.0162 2e-3 0.0224 2e-3 0.0374 2e-3 0.19984 0.01 0.30745 0.0275 0.32856 7e-3 9e-3 0.0285 0.0162 0.0566 0.0228 0.0368 0.0146 0.11579 0.0193 0.21431 0.0219 0.20804 0.0115 0.45951 4e-3 0.5056-0.0317l0.0115-3e-3v-0.05695c0.0453-0.30723 0.0453-3.089 0-3.3962v-0.057l-0.0127-3e-3c-0.0186-0.0131-0.0837-0.0217-0.18201-0.0273-0.087-6e-3 -0.19202-9e-3 -0.31372-8e-3 -7e-3 -1e-5 -9e-3 -2.7e-4 -0.0161-2.7e-4zm-82.32 0.0816c-0.39871 2e-3 -0.65818 0.17376-0.94788 0.62675-1.0199 1.5948-2.7393 2.6136-4.6438 2.7517-0.5178 0.0375-0.67498 0.0881-0.89335 0.28772-0.22959 0.20983-0.31686 0.41032-0.31395 0.72115 3e-3 0.27697 0.073 0.46305 0.24881 0.65768 0.15616 0.17285 0.28958 0.24995 0.5249 0.3033 0.42241 0.0957 1.4343-0.0421 2.3512-0.32022 0.91277-0.27691 1.9232-0.81615 2.6958-1.4386 0.68248-0.54989 1.4465-1.4384 1.8386-2.1382 0.36261-0.64717-0.11652-1.4554-0.86034-1.4513zm58.004 0.37199c6e-3 7e-3 0.0345 0.20536 0.0615 0.39997 0.0195 0.15229 0.03 0.22789 0.0428 0.33921 0.011 0.0913 0.0296 0.22832 0.0299 0.25135-2.6e-4 0.01-1e-3 0.0187-3e-3 0.0259-5.3e-4 2e-3 -5.3e-4 5e-3 -1e-3 7e-3 -2e-3 6e-3 -7e-3 9e-3 -0.0106 0.0128-3e-3 3e-3 -6e-3 7e-3 -0.0109 9e-3 -0.0126 6e-3 -0.0454 6e-3 -0.0737 7e-3 -0.0158 1e-3 -0.0212 4e-3 -0.0431 4e-3 -0.0918-1.8e-4 -0.13961-0.0135-0.13867-0.0392 2e-3 -0.0606 0.13296-0.96392 0.14669-1.0176zm29.328 0.39827c-0.1271-0.0135-0.26997 0.0176-0.40979 0.0912l-0.17749 0.0933-0.0298-0.0787c-0.0206-0.054-0.0719-0.0661-0.19086-0.0684-0.0506-5e-3 -0.11066-8e-3 -0.18602-8e-3 -0.1225 0-0.20237-8e-3 -0.25867 0.0131l-0.10326 3e-3 -1e-3 0.20298c-1.8e-4 5e-3 -3.7e-4 0.0125-5.5e-4 0.0172-3e-5 5.3e-4 -6e-5 2e-3 -9e-5 3e-3 -5e-5 1e-3 -9e-5 3e-3 -1.8e-4 4e-3 -4.5e-4 5e-3 -1e-3 7e-3 -2e-3 0.0118-5.3e-4 6e-3 -2e-3 8e-3 -2e-3 0.0147v5e-5c-5e-3 0.0647-8e-3 0.14449-9e-3 0.24286v5e-5c-3e-3 0.19678-4.4e-4 0.46786-4.4e-4 0.84093v4e-5c0 0.1114 2e-3 0.11157 2e-3 0.20469 5.6e-4 0.26928 2e-3 0.5099 6e-3 0.70198 1e-5 2.6e-4 0 2.6e-4 0 5.3e-4 1e-5 8e-5 0 8e-5 0 1.7e-4 1e-3 0.0397 1.8e-4 0.15817 2e-3 0.18865v5e-5c1e-3 0.0275 4e-3 0.0327 5e-3 0.0537 1e-5 6e-5 -1e-5 9e-5 0 1.8e-4 1e-3 0.0192-1.7e-4 0.16171 5.5e-4 0.16436 0.0213 0.0556 0.72668 0.0556 0.7627 0 0.014-0.0216 0.0325-0.4273 0.0412-0.90146l0.0156-0.85135c2e-3 -2e-3 3e-3 -5e-3 5e-3 -8e-3 3e-3 -4e-3 5e-3 -9e-3 8e-3 -0.0129l0.072-0.0538c0.0641-0.0478 0.14988-0.0672 0.34621-0.0783 0.0354-2e-3 0.0622-7e-3 0.0941-0.0103 0.0756-3e-3 0.13258-0.01 0.15246-0.0237 4.5e-4 -6e-5 6e-3 -1.8e-4 7e-3 -2.7e-4 4.5e-4 -6e-5 5.5e-4 -6e-3 1e-3 -6e-3 8e-3 -3e-3 0.0279-6e-3 0.03-9e-3 0.0127-0.0194 0.0232-0.18068 0.0236-0.35852 4.5e-4 -0.31834-5.5e-4 -0.32385-0.0803-0.35406-0.0382-0.0145-0.0788-0.024-0.12115-0.0285zm9.4395 0.0117c-7e-3 0-0.0127 1e-3 -0.0194 1e-3 -4e-3 6e-5 -8e-3 5.2e-4 -0.0124 5.2e-4 -0.17131 2e-3 -0.33978 0.0198-0.44428 0.0563-0.35211 0.12292-0.61045 0.37401-0.66076 0.64218-0.0186 0.0994-6e-3 0.14802 0.0682 0.17223 2e-3 1e-3 3e-3 3e-3 6e-3 4e-3 0.0482 0.0197 0.13733 0.0225 0.30132 0.0222 0.11598-1.7e-4 0.19131-5e-3 0.2518-0.0121l0.12618-3e-3 0.0521-0.0944c0.0587-0.10628 0.16532-0.16175 0.27301-0.17122 0.0211-1e-3 0.0411-9e-5 0.0619 0 0.10604 9e-3 0.20472 0.0642 0.24889 0.16997 0.0211 0.0506 0.0348 0.088 0.0427 0.11945 5.4e-4 7e-3 3e-3 0.0149 3e-3 0.0218v5e-5c0 0.0199-5.7e-4 0.0339-2e-3 0.0464-0.0192 0.0428-0.092 0.0495-0.25098 0.0495-0.66938 0-1.1212 0.25646-1.2267 0.69639-0.11202 0.46697 0.1648 0.91185 0.64615 1.0384 0.0604 0.0159 0.13833 0.02 0.22009 0.0192 9e-3 1e-3 0.0271 5e-3 0.0329 5e-3 0.0226 1e-3 0.058-4e-3 0.0946-0.0103 0.13757-0.0138 0.27431-0.0457 0.36434-0.0924 0.16146-0.0838 0.16251-0.0839 0.2069-0.0205 0.0403 0.0576 0.0789 0.0637 0.40094 0.0637 0.0222 0 0.033-1e-3 0.0532-2e-3 0.0758-5.3e-4 0.14374-2e-3 0.19021-5e-3 0.187-0.015 0.20753-0.0597 0.15039-0.17514-0.031-0.0627-0.047-0.32133-0.0597-0.96683l-0.0174-0.88117-0.0891-0.1815c-0.10363-0.21104-0.28871-0.36823-0.53459-0.454-0.11181-0.039-0.2945-0.0586-0.47705-0.0588zm-5.1172 1.8e-4c-0.0188-1e-3 -0.0372 2e-3 -0.0559 2e-3 -2e-3 0-2e-3 -2.6e-4 -5e-3 -2.6e-4 -0.0684 9e-5 -0.0994 5e-3 -0.14743 7e-3 -7e-3 5.2e-4 -0.0135 8e-5 -0.0202 1e-3 -0.13337 7e-3 -0.22552 0.0213-0.32017 0.0645-0.46557 0.21246-0.70346 0.55354-0.77302 1.1083-0.0972 0.77537 0.27977 1.3878 0.96185 1.5625 0.0927 0.0238 0.27365 0.0355 0.44058 0.0287 0.37605-0.0154 0.60402-0.10388 0.82954-0.32196l6e-3 -6e-3c0.0137-0.0117 0.0366-0.0264 0.0475-0.0374 0.0129-0.013 0.021-0.0252 0.0301-0.0376l0.0849-0.0821-0.0576-0.0975c-0.0316-0.0536-0.11851-0.15723-0.19298-0.23031-0.11538-0.11324-0.14343-0.12727-0.18975-0.0947-0.1969 0.13847-0.36518 0.21183-0.52426 0.22493-2e-3 1.8e-4 -5e-3 2.6e-4 -7e-3 5.2e-4 -0.0289 2e-3 -0.0576 2e-3 -0.0861 9e-5 -2e-3 -8e-5 -4e-3 -1.7e-4 -6e-3 -2.6e-4 -0.0623-5e-3 -0.12388-0.0191-0.18583-0.0428-0.13436-0.0513-0.26374-0.18055-0.30879-0.30842-0.0181-0.0515 0.0312-0.055 0.76007-0.055 3e-3 0 4e-3 -1e-4 8e-3 -1e-4 0.27799 1.8e-4 0.46471 5.3e-4 0.59055-8e-3 0.13549-6e-3 0.20504-0.0154 0.21898-0.0293 0.0119-0.0119 0.0213-0.0506 0.028-0.10211 1e-3 -5e-3 4e-3 -9e-3 5e-3 -0.0141v-5e-5c5.6e-4 -8e-3 -2e-3 -0.0235-2e-3 -0.0318 3e-3 -0.036 7e-3 -0.07 7e-3 -0.11359 0-0.65392-0.22842-1.0856-0.68861-1.3013-0.12698-0.0595-0.21755-0.073-0.39352-0.0773-0.0178-2e-3 -0.0355-7e-3 -0.0533-7e-3zm-7.116 2.6e-4c-0.0491-5.3e-4 -0.0983 2e-3 -0.1472 7e-3 -0.17041 5e-3 -0.26129 0.0189-0.38942 0.0789-0.0993 0.0465-0.22974 0.12213-0.28993 0.16804-0.12551 0.0957-0.29703 0.34509-0.37535 0.54574-0.13536 0.34683-0.12374 0.9257 0.0251 1.2509 0.14793 0.32314 0.46199 0.58325 0.83641 0.6928 0.21308 0.0624 0.69784 0.0364 0.90938-0.0486 0.21533-0.0866 0.4159-0.23002 0.48485-0.34673 0.0532-0.0901 0.0528-0.0917-0.0678-0.24309-0.18768-0.23562-0.24982-0.28286-0.31331-0.23811-0.19603 0.13815-0.36469 0.21144-0.52421 0.22428-2e-3 8e-5 -3e-3 2.6e-4 -5e-3 2.6e-4 -0.03 2e-3 -0.0597 2e-3 -0.0892 9e-5 -2e-3 -6e-5 -3e-3 -1.8e-4 -5e-3 -2.6e-4 -0.0626-5e-3 -0.12423-0.0191-0.18624-0.0428-0.13437-0.0513-0.26374-0.18054-0.30879-0.30842-0.0181-0.0515 0.0312-0.0551 0.76007-0.0551 3e-3 0 4e-3 -9e-5 8e-3 -9e-5 0.27817 1.8e-4 0.46489 5.3e-4 0.59078-8e-3 0.13546-6e-3 0.20496-0.0154 0.21889-0.0293 0.0135-0.0134 0.0228-0.0519 0.0288-0.10437 5.6e-4 -5e-3 3e-3 -7e-3 3e-3 -0.0119v-4e-5c5.5e-4 -8e-3 -2e-3 -0.0262-2e-3 -0.0356 0.0109-0.15637-2e-3 -0.39583-0.0393-0.57446-0.0853-0.40253-0.29278-0.67282-0.64228-0.83664-0.1161-0.0545-0.20702-0.0694-0.35198-0.0757-0.043-5e-3 -0.0863-8e-3 -0.12968-9e-3zm-72.01 0.19441c-0.1974-9e-3 -0.4992 0.0821-0.65067 0.21893l-0.0718 0.0649-0.027 0.0207-0.0196 0.015-0.0506-0.10622c-0.13676-0.28678-0.66917-0.26396-0.79367 0.034-0.0106 0.0255-0.019 0.11217-0.0262 0.21999-5.3e-4 8e-3 -2e-3 9e-3 -3e-3 0.0178-1e-3 0.01-1e-3 0.0507-2e-3 0.0649-1e-5 8e-5 1e-5 2.6e-4 0 2.6e-4 -5e-3 0.092-7e-3 0.20901-0.01 0.32686-1.9e-4 0.0177-5.3e-4 0.0266-5.3e-4 0.0451-1e-5 2.6e-4 0 5.3e-4 0 1e-3 -0.0123 0.56785-5e-3 1.2879 0.0276 1.5107v0.0592l0.0113 0.0135c2e-5 3e-5 4e-5 1.8e-4 5e-5 1.8e-4 0.0552 0.13045 0.14854 0.21236 0.2784 0.24433 0.21951 0.054 0.43969-0.0228 0.53879-0.18592l0.0369-0.0368 1e-3 -0.0445v-4e-5c0.028-0.0922 0.0355-0.24923 0.0462-0.70973 0.017-0.72866 0.0247-0.76355 0.19335-0.86314 0.0486-0.0287 0.20158-0.0721 0.3399-0.0964 0.31031-0.0546 0.37278-0.0869 0.42929-0.22216 0.079-0.18904 0.0357-0.43913-0.0947-0.54731-0.0332-0.0275-0.0874-0.0418-0.15319-0.0449zm15.447 3e-3c-0.29711-2e-3 -0.51236 0.0736-0.70613 0.24784l-0.13899 0.12498-0.0103 9e-3c-3e-3 -2e-3 -5e-3 -5.3e-4 -8e-3 -3e-3 -4e-3 -3e-3 -0.0148-0.0142-0.0196-0.0179l-4e-5 -4e-5 -0.0635-0.0832c-0.1273-0.16691-0.37399-0.2745-0.63476-0.27684-0.27694-2e-3 -0.44525 0.0465-0.62148 0.18104l-0.0819 0.0626c-0.014 8e-3 -0.0365 0.0249-0.0462 0.0284-0.01 3e-3 -0.0161 3e-3 -0.0222 2e-3l-0.0383-0.0741c-0.14239-0.27536-0.66951-0.24657-0.79058 0.0432-2.7e-4 5.3e-4 -5.3e-4 5e-3 -1e-3 6e-3l-0.0129 0.0154v0.0673c-0.0498 0.38913-0.0475 2.0323 0.0114 2.1713 0.052 0.12295 0.14049 0.20553 0.26061 0.24337 0.10327 0.0325 0.28768 0.0156 0.40315-0.037 0.0929-0.0423 0.13927-0.0852 0.16588-0.22585 7e-3 -0.039 0.0125-0.0915 0.0177-0.16486 0.01-0.12916 0.0171-0.29167 0.0226-0.54837 3e-3 -0.16254 8e-3 -0.27704 0.0126-0.38711 1e-3 -0.0318 2e-3 -0.078 4e-3 -0.10461 0.0212-0.36361 0.0658-0.4284 0.20261-0.49913 0.1026-0.053 0.25215-0.0608 0.33801-0.0195 0.0189 0.0104 0.0355 0.0236 0.0506 0.0386v5e-5c0.0256 0.0303 0.043 0.0821 0.0556 0.16001 0.0165 0.13075 0.0216 0.34375 0.0281 0.66957 8e-5 0.0291 5.3e-4 0.045 5.3e-4 0.0761 6e-5 0.78126 0.0153 0.85751 0.19745 0.99113 0.11278 0.0827 0.38596 0.0879 0.50541 0.01 0.10169-0.0666 0.14781-0.12196 0.17343-0.27997 6e-3 -0.0331 0.0106-0.0821 0.0146-0.13438 0.01-0.126 0.0164-0.28415 0.0218-0.53454 3e-3 -0.14738 7e-3 -0.24818 0.0116-0.35138 2e-3 -0.0444 3e-3 -0.10339 6e-3 -0.13909 0.0138-0.2232 0.0375-0.33261 0.0881-0.3985 4e-3 -5e-3 0.0101-0.01 0.0146-0.0143 0.0117-0.0122 0.0235-0.025 0.0381-0.0371 0.018-0.0128 0.0383-0.0245 0.0611-0.0363 0.0715-0.037 0.16539-0.0505 0.24539-0.0424 0.0131 2e-3 0.0264 3e-3 0.0387 6e-3 0.0157 3e-3 0.0298 8e-3 0.0431 0.0138 0.0104 4e-3 0.0179 0.0106 0.0269 0.0159 8e-3 5e-3 0.018 9e-3 0.025 0.0147 0.0361 0.0348 0.0583 0.10098 0.0723 0.21972 2e-3 0.028 3e-3 0.11562 5e-3 0.15342 6e-3 0.10867 0.0105 0.2226 0.0153 0.4411 1.3e-4 0.036 1e-3 0.0567 1e-3 0.096 0 0.6477 0.0171 0.81 0.11397 0.91866 2.6e-4 5.3e-4 5.2e-4 1e-3 1e-3 1e-3 0.017 0.0189 0.0312 0.039 0.0538 0.0568 0.17978 0.14142 0.47067 0.11591 0.63504-0.0557l0.0929-0.097v-0.27053c8e-3 -0.10989 0.0113-0.26153 0.01-0.45013 9e-5 -6e-3 2.6e-4 -6e-3 5.3e-4 -0.0124 5e-3 -0.31513-5.3e-4 -0.56521-0.0178-0.77335-5e-3 -0.1469-0.01-0.29542-0.0238-0.36037l-9e-5 -6e-3 -4e-3 -8e-3c-8e-3 -0.032-0.0155-0.062-0.0268-0.0924-0.13395-0.36128-0.40947-0.54625-0.81769-0.54888zm-5.8721 8e-3c-0.14515 4e-3 -0.28483 0.0632-0.36194 0.17707-4e-3 6e-3 -6e-3 0.0141-9e-3 0.02l-0.0205 0.0184-2.6e-4 0.0258c-0.0279 0.0883-0.031 0.26551-0.0303 0.8921 5.3e-4 0.8312 4e-3 0.87275 0.074 1.049 0.12159 0.30493 0.32128 0.48174 0.62485 0.55326 0.30869 0.0727 0.65207 0.0138 0.87933-0.15079l0.12595-0.0912 0.0842 0.10557c0.14369 0.18008 0.42049 0.20876 0.6095 0.0788 0.0376-0.0209 0.0675-0.0445 0.0899-0.0815 0.10481-0.12455 0.11329-0.29701 0.10202-1.3529-9e-3 -0.81808-0.0172-0.95726-0.0637-1.0422-0.11819-0.2158-0.46335-0.25482-0.67391-0.12166-2e-3 1e-3 -5e-3 2e-3 -7e-3 3e-3 -2e-3 2e-3 -4e-3 3e-3 -6e-3 5e-3 -0.0433 0.0297-0.0824 0.0643-0.10934 0.10967-0.0535 0.0903-0.0616 0.18022-0.0713 0.79414-6e-3 0.38773-0.0258 0.73074-0.0446 0.77957-0.0602 0.15594-0.19819 0.24327-0.38434 0.24327-0.13684 0-0.17832-0.0139-0.24153-0.0811-0.0757-0.0806-0.0764-0.0871-0.092-0.89376-2e-3 -0.096-4e-3 -0.1028-6e-3 -0.17781-3e-3 -0.13771-6e-3 -0.24072-0.0109-0.33345-0.0103-0.21703-0.0248-0.32967-0.0619-0.37065-0.0991-0.10937-0.24974-0.16151-0.3949-0.1578zm-12.162 2.6e-4c-0.0959 0-0.19172 0.0213-0.26153 0.0639-0.17507 0.10674-0.19478 0.20119-0.19478 0.9324 0 0.023-5.2e-4 0.0225-5.2e-4 0.044-8e-3 0.36813-0.0162 0.55314-0.0312 0.65717-9e-3 0.0309-0.0197 0.0576-0.0341 0.0874-0.037 0.0764-0.10569 0.1571-0.15582 0.18302-0.12857 0.0665-0.3527 0.0595-0.4433-0.0137-0.0737-0.0596-0.0744-0.0662-0.09-0.85757-0.0133-0.67215-0.0241-0.81293-0.0694-0.89556-0.1247-0.22771-0.53443-0.2725-0.72738-0.0795l-0.10013 0.10013v0.23203c-3e-3 0.0588-7e-3 0.11396-9e-3 0.20561-3e-3 0.081-5e-3 0.17671-3e-3 0.28735-2e-3 0.19306-2.6e-4 0.386 5e-3 0.56432 5.3e-4 0.0215 5.3e-4 0.0439 1e-3 0.0644 1.8e-4 4e-3 5.3e-4 6e-3 5.3e-4 0.01 1e-3 0.046 5e-3 0.0633 6e-3 0.10253v0.37563l0.0953 0.18998c0.0116 0.0258 0.0276 0.0514 0.0422 0.0749 3e-5 5e-5 6e-5 9e-5 9e-5 1.8e-4 0.119 0.21478 0.26222 0.33215 0.49719 0.39845 0.18708 0.0528 0.57954 0.0359 0.73822-0.0318 0.0628-0.0268 0.16087-0.0879 0.21787-0.13591 0.0795-0.0669 0.1071-0.0767 0.11857-0.0423 0.0289 0.0867 0.15706 0.18606 0.28413 0.22027 0.21621 0.0582 0.43815-0.0266 0.51983-0.19878 0.0289-0.061 0.0395-0.23682 0.0452-0.54063 2.6e-4 -0.0183 5.2e-4 -0.0438 5.2e-4 -0.0632 2e-3 -0.15681 6e-3 -0.26681 6e-3 -0.54731 0-0.60412-3e-3 -0.90379-0.0315-1.0716v-0.0698l-0.0209-0.0208c-0.0288-0.0843-0.0732-0.11871-0.1424-0.16089-0.0698-0.0426-0.16571-0.0639-0.26158-0.0639zm3.5022 2.7e-4c-0.17142 1.8e-4 -0.31332 0.0861-0.38236 0.23161-0.0304 0.064-0.0403 0.22533-0.0437 0.51301-3e-3 0.14686-4e-3 0.3422-2e-3 0.58636 1e-5 1e-3 -1e-5 2e-3 0 3e-3 -4e-3 0.46545-1.8e-4 0.90217 0.0103 0.98725 2e-3 0.0153 8e-3 0.0293 0.0106 0.0443 0.01 0.12621 0.0257 0.16501 0.0553 0.20492 0.0363 0.0488 0.10002 0.10632 0.14162 0.1277 0.10498 0.0539 0.29137 0.0501 0.4233 3e-3 5.3e-4 -2.6e-4 2e-3 -5.2e-4 2e-3 -1e-3 0.0278-0.0102 0.0568-0.0197 0.0779-0.0339 0.0976-0.0656 0.14052-0.13773 0.16177-0.37019 1e-3 -9e-3 1e-3 -0.0252 2e-3 -0.0347 6e-3 -0.0823 0.0126-0.17453 0.0149-0.30612 2e-3 -0.0719 2e-3 -0.17234 2e-3 -0.26281 5.3e-4 -0.10749 2e-3 -0.1861 2e-3 -0.32331 1e-3 -0.93191-3e-3 -1.0172-0.0602-1.142-0.0707-0.15574-0.20154-0.22704-0.41629-0.22687zm5.9904 0c-0.16726-8e-3 -0.3391 0.0549-0.41893 0.19487-2e-3 3e-3 -2e-3 0.0112-4e-3 0.0146l-6e-3 5e-3 -5.2e-4 0.0185c-7e-3 0.0275-0.0136 0.0703-0.0192 0.12918-2e-3 0.0137-4e-3 0.0343-5e-3 0.0509-2e-3 0.0287-3e-3 0.0901-5e-3 0.12493-3e-3 0.0552-6e-3 0.14178-8e-3 0.2145-3e-3 0.0835-7e-3 0.13108-9e-3 0.23839-7e-3 0.301-0.0122 0.44768-0.0211 0.56152-5e-3 0.0595-0.0103 0.11104-0.0176 0.15213-0.0111 0.0495-0.0249 0.0872-0.047 0.12281-0.0385 0.0619-0.10646 0.12922-0.15098 0.1495-0.12631 0.0576-0.34322 0.0458-0.42855-0.0232-0.0737-0.0596-0.0744-0.0662-0.09-0.85757-0.0133-0.67216-0.0241-0.81293-0.0694-0.89556-0.14218-0.25963-0.6394-0.26883-0.78957-0.0146-0.0286 0.0484-0.0401 0.16661-0.0465 0.37213-1e-5 5.2e-4 -7e-5 5.2e-4 -8e-5 1e-3 -5.3e-4 0.0136-1e-3 0.0302-2e-3 0.0448-1e-3 0.0251-5.2e-4 0.0682-1e-3 0.0964-1e-3 0.0499-2e-3 0.10581-2e-3 0.16637-5.3e-4 0.0617-2e-3 0.10403-2e-3 0.17823 1e-5 3e-3 9e-5 4e-3 9e-5 7e-3 0 0.0118-2.6e-4 0.0166-2.6e-4 0.0288 0 5e-3 2.6e-4 8e-3 2.6e-4 0.013v1.8e-4c0 9e-3 -2.6e-4 8e-3 -2.6e-4 0.0171 0 0.7319 7e-3 0.85783 0.0599 1.0268 5e-3 0.0159 0.0127 0.0275 0.0181 0.0427 0.0129 0.0414 0.0289 0.0787 0.0478 0.11257 0.10762 0.22243 0.27359 0.36136 0.53353 0.43515 0.31873 0.0905 0.75486 5e-3 0.97365-0.1909 0.0605-0.0542 0.0782-0.0584 0.0912-0.0219 0.0312 0.0882 0.15841 0.18668 0.28522 0.22082 0.22226 0.0599 0.43066-0.0245 0.51209-0.20303l0.012-0.0107 2.6e-4 -0.0299c0.0672-0.24927 0.0709-2.0917 2e-3 -2.2574-0.0614-0.14705-0.2241-0.22718-0.39136-0.23558zm65.085 0.47479c0.19245 7e-3 0.37181 0.15005 0.37181 0.34179 0 0.0237-0.01 0.0369-0.0351 0.0464-0.022 3e-3 -0.0302 8e-3 -0.0684 0.0101-0.0582 6e-3 -0.13558 8e-3 -0.30607 8e-3h-0.40029c-3e-3 -3e-3 -2e-3 -9e-3 -3e-3 -0.0137l0.0426-0.10192c0.0611-0.14631 0.0996-0.19217 0.20833-0.2484 0.0297-0.0154 0.0607-0.0261 0.092-0.033 5e-3 -5.3e-4 9e-3 -1e-3 0.0136-2e-3 0.0283-5e-3 0.0568-8e-3 0.0851-7e-3zm7.0625 4e-5c0.20093-6e-3 0.39043 0.13835 0.39043 0.34535 0 0.0213-0.0103 0.0336-0.034 0.0426-0.0636 0.0105-0.17556 0.0182-0.36041 0.0182-0.33286-3e-5 -0.39232-7e-3 -0.39232-0.0487 0-0.0908 0.0969-0.23695 0.19818-0.29869 0.0629-0.0383 0.13117-0.0569 0.19815-0.0588zm-2.7589 1e-3c0.0405 2e-3 0.0837 0.0104 0.12941 0.0241 0.16748 0.0502 0.22377 0.10154 0.24194 0.34502 5.5e-4 0.0161 5.5e-4 0.0391 2e-3 0.0565 3e-3 0.085 7e-3 0.17273 7e-3 0.27729 0 3e-3 -1.8e-4 5e-3 -1.8e-4 8e-3 -9e-5 0.12316-3e-3 0.23413-8e-3 0.32727 0 5e-5 -4e-5 9e-5 -5e-5 1.7e-4 -0.0155 0.22206-0.0614 0.27254-0.19916 0.33009-0.0449 0.0188-0.0877 0.0311-0.12848 0.0384-9e-3 5.3e-4 -0.0185 2e-3 -0.0279 2e-3 -0.0203 2e-3 -0.0396 2e-3 -0.0587 2e-3 -0.0255-1e-3 -0.0487-6e-3 -0.0724-0.01-0.20013-0.05-0.31964-0.28151-0.32174-0.66763-2e-3 -0.39393 0.0991-0.63328 0.28422-0.70627 0.0315-0.0103 0.0637-0.0174 0.0974-0.0217 0.0185-2e-3 0.0357-6e-3 0.0555-5e-3zm8.2064 0.87716h0.0263l9e-3 0.19063c1e-3 0.0255-1e-3 0.0415-1e-3 0.0629-0.017 0.13643-0.0751 0.21682-0.19998 0.269-0.0192 8e-3 -0.0378 0.0123-0.0567 0.018-0.0363 8e-3 -0.0721 0.0168-0.11562 0.0199-0.0413 3e-3 -0.0737-9e-5 -0.10626-3e-3 -0.1323-0.0275-0.21808-0.12547-0.19552-0.26453 0.0335-0.20651 0.18481-0.29225 0.51647-0.2926zm-2.5083 1.7022c-0.0755-4e-3 -0.1559 9e-3 -0.23599 0.0425-0.30535 0.12758-0.30989 0.62604-7e-3 0.75776 0.31828 0.13836 0.65219-0.0552 0.65219-0.37817 0-0.24171-0.18276-0.40966-0.40929-0.42205zm-12.686 0.15453-0.0418 0.1023c-0.023 0.0563-0.20849 0.57671-0.41228 1.1566-0.20378 0.57986-0.37935 1.0646-0.39015 1.0772-0.0108 0.0126-0.20215-0.49393-0.42519-1.1255-0.20548-0.58185-0.37642-1.0352-0.42094-1.1236-5.6e-4 -2e-3 -0.0122-0.034-0.0126-0.0346-1.8e-4 -2.7e-4 -2e-3 -5.3e-4 -2e-3 -5.3e-4 -1e-3 -2e-3 -8e-3 -0.0209-9e-3 -0.0214-0.019-0.0158-0.17719-0.0224-0.38651-0.0224-9e-5 0-1.8e-4 1e-5 -3.4e-4 0-0.16207-6e-3 -0.3146-4e-3 -0.4304 5e-3 -4e-5 0-5e-5 -1e-5 -9e-5 0l-0.18832 3e-3 -1e-3 0.19782c-4e-3 0.0561-6e-3 0.24272-8e-3 0.35258-3e-3 0.26643-5e-3 0.60225-6e-3 0.98075-4e-5 0.1182-1e-3 0.10662-1e-3 0.24655 0 0.14024 1e-3 0.13776 2e-3 0.25631 5.6e-4 0.37165 2e-3 0.70422 6e-3 0.96785v5.3e-4 1.4e-4c2e-3 0.10174 3e-3 0.26438 7e-3 0.32243v1.9e-4c5.5e-4 0.0226-1.8e-4 0.20498 5.5e-4 0.2075h-1.7e-4c0.0109 0.0284 0.11957 0.0393 0.3926 0.0393 0.34104 0 0.38068-6e-3 0.41011-0.0609 0.0416-0.0775 0.0416-0.59358 0-1.4302-0.013-0.26218-0.0143-0.37569-0.0158-0.48456 4.5e-4 -0.0295-2e-3 -0.16415-1e-3 -0.17086 0.01 5e-3 0.16264 0.41167 0.34834 0.92783 0.1882 0.52313 0.36748 1.0113 0.39841 1.0849l0.0562 0.13374h0.26475c0.18342 0 0.2756-0.013 0.29993-0.0423 0.0193-0.0233 0.20448-0.50837 0.41146-1.0779l0.37632-1.0356-0.0193 1.0293c-2e-3 0.12569-5.5e-4 0.15716-2e-3 0.25627-7e-3 0.21358-7e-3 0.36732-5e-3 0.49218 2e-3 0.20026 0.01 0.30836 0.0276 0.32948 7e-3 9e-3 0.0285 0.0161 0.0566 0.0227 0.0365 0.0145 0.11511 0.0192 0.21234 0.0218 0.20864 0.0117 0.46219 4e-3 0.50789-0.0316l0.0111-3e-3v-0.057c0.0453-0.30734 0.0453-3.0888 0-3.3962v-0.057l-0.0124-3e-3 -4e-5 -5e-5c-0.0185-0.0132-0.0837-0.0217-0.18242-0.0274-0.0872-6e-3 -0.1925-9e-3 -0.31441-8e-3 -8e-3 -2e-5 -0.01-5.3e-4 -0.0179-5.3e-4zm-34.021 0.0914c-0.16572 2.7e-4 -0.33062 4e-3 -0.45709 0.0114-3e-3 1.8e-4 -5e-3 5.3e-4 -8e-3 5.3e-4 -0.1382 6e-3 -0.23424 0.014-0.24092 0.0248-0.0363 0.0588-0.69674 4.3304-0.82225 5.3185-0.0569 0.44815-0.0839 0.68011-0.0917 0.81091-1e-3 0.0121-0.013 0.0967-0.013 0.10198 0 5e-3 8e-3 0.0123 0.013 0.0189 3e-3 0.0226 9e-3 0.0365 0.0187 0.0423 0.0565 0.0358 1.0376 0.0402 1.0931 5e-3 5e-3 -3e-3 0.0156-0.0602 0.0242-0.0964 2e-3 -7e-3 5e-3 -0.0189 7e-3 -0.0273 0-2e-5 -1e-5 -7e-5 0-9e-5l4e-5 -5e-5c0.0529-0.24281 0.14479-0.82932 0.15951-1.038 0.0135-0.0418 0.0304-0.0704 0.0523-0.0882 0.0464-0.01 0.13046-0.0148 0.27858-0.0148h0.31316c2e-3 2e-3 7e-3 4e-3 8e-3 7e-3 2e-3 6e-3 0.0171 0.11983 0.0228 0.15361l0.0548 0.4411c0.0477 0.3839 0.0905 0.61719 0.11848 0.64513 0.0409 0.0409 0.41946 0.0524 0.72604 0.0419 0.0174-1e-5 0.0381 1e-3 0.0545 5.3e-4 0.0611-5.3e-4 0.0951-5e-3 0.13756-8e-3 9e-5 -1e-5 2.7e-4 1e-5 5.3e-4 0 2e-3 -1.2e-4 3e-3 -1.5e-4 5e-3 -2.6e-4 0.0236-2e-3 0.0632-2e-3 0.078-5e-3 9e-3 -2e-3 0.0167-6e-3 0.0257-9e-3 3e-5 -1e-5 9e-5 1e-5 1.8e-4 0 0.0422-7e-3 0.0742-0.015 0.0824-0.0249 2e-3 -3e-3 2e-3 -0.0166 5e-3 -0.0221 1e-3 -1e-3 5e-3 -3e-3 5e-3 -4e-3 2.7e-4 -1e-3 -1e-3 -0.0147-1e-3 -0.0162 0.0128-0.0882-0.0142-0.34812-0.11405-1.1024-0.1476-1.115-0.76017-5.0832-0.79285-5.136-0.01-0.0161-0.23312-0.0234-0.48797-0.0264-0.0853-2e-3 -0.16276-6e-3 -0.25379-6e-3zm6.6471 2.7e-4c-0.11502 0-0.21743 4e-3 -0.32068 7e-3 -0.2234 5e-3 -0.41268 0.0123-0.42173 0.0269-0.0344 0.0556-0.63303 3.9112-0.78934 5.0836-0.0604 0.45294-0.097 0.78508-0.1141 0.98481-1e-3 0.012-2e-3 0.0289-3e-3 0.0394-4e-3 0.0512-0.0156 0.15723-0.0131 0.1638v4e-5c0.0168 0.0437 0.10597 0.0511 0.46503 0.0521 0.0248 5.2e-4 0.0443 2e-3 0.0695 3e-3 0.13247 2e-3 0.25654-2e-3 0.3595-8e-3 6e-5 0 8e-5 1e-5 1.7e-4 0 0.1208-5e-3 0.21063-0.0111 0.22271-0.0188 5e-3 -3e-3 0.0179-0.0647 0.0288-0.11258 1.8e-4 -5.3e-4 5.3e-4 -2e-3 5.3e-4 -3e-3v-5e-5l5e-5 -4e-5v-5e-5c0.0475-0.21016 0.12528-0.69889 0.1525-0.96102 7e-3 -0.0399 0.0224-0.15094 0.0258-0.16103 0.0257-0.02 0.10756-0.0266 0.31202-0.0266h0.30726c5e-3 3e-3 0.014 5e-3 0.015 8e-3s0.0123 0.0859 0.0154 0.10257l0.0605 0.47969c0.0409 0.32455 0.0869 0.61489 0.10225 0.64518 0.0235 0.0466 0.10194 0.0534 0.50767 0.0537h1e-3c2e-3 0 2e-3 9e-5 3e-3 9e-5 0.0131 4e-5 0.0175 5.3e-4 0.0311 5.3e-4 2e-3 0 2e-3 -1.3e-4 4e-3 -1.5e-4h1.8e-4c3e-3 0 3e-3 1.5e-4 7e-3 1.5e-4 0.18333-1.7e-4 0.32819-6e-3 0.43487-0.0143 9e-3 -1e-3 0.0223-2e-3 0.0303-3e-3h1.8e-4c0.0402-4e-3 0.0992-7e-3 0.1064-0.0117 0.0392-0.0248 0.0247-0.18721-0.10354-1.1561-0.0821-0.61996-0.22001-1.5804-0.30653-2.1343-0.39187-2.5086-0.4675-2.9766-0.48554-3.0058-8e-3 -0.0126-0.14895-0.0203-0.32726-0.0254-0.11456-5e-3 -0.24077-9e-3 -0.3778-9e-3zm-10.388 5.2e-4c-0.26685 0-0.53367 0.0132-0.56017 0.0398-5.3e-4 5.2e-4 -1e-3 0.0201-1e-3 0.0217l-5e-3 2e-3v0.076c-0.0336 0.38264-0.0418 3.1942-0.0258 4.9021 1e-3 0.66888 5e-3 1.1516 0.01 1.182 3e-3 0.0195 0.0118 0.0352 0.0192 0.0515v4e-5c1e-3 6e-3 2e-3 0.0454 3e-3 0.0465 2e-3 2e-3 0.0287 4e-3 0.0376 6e-3h5e-5c5e-3 3e-3 8e-3 0.01 0.0122 0.0109h5e-5c2e-3 2.6e-4 0.0568 1.2e-4 0.0607 5.2e-4 0.46743 0.0398 2.354 0.0297 2.3978-0.023 0.0133-0.0159 0.0212-0.0819 0.0254-0.18615 0.0111-0.19428 0.01-0.49731-3e-3 -0.68493l-3e-3 -0.20265-0.11677-2e-3c-3e-5 0-5e-5 1e-5 -9e-5 0-0.0839-0.0118-0.24382-0.0143-0.60807-0.0143h-0.54362l-0.10046-1e-3v-2.5738c0-1.7894-8e-3 -2.4355-0.0315-2.5612v-0.0267l-3e-3 -1e-3c-1e-3 -3e-3 -2e-3 -0.0212-3e-3 -0.0222-4e-3 -4e-3 -0.0232-7e-3 -0.038-0.0108-2e-3 -2e-3 -3e-3 -7e-3 -6e-3 -8e-3 -0.0301-0.0115-0.18614-0.0158-0.36088-0.0169h-5.3e-4c-0.0538-1e-3 -0.0993-4e-3 -0.15531-4e-3zm-6.2083 1e-3c-0.0136 5e-5 -0.0233 5.3e-4 -0.0369 5.3e-4h-0.77454l-0.0222 0.0584-8e-3 3e-3v0.0172l-5.3e-4 2e-3c-0.0191 0.0504-0.0307 1.2137-0.0307 3.0979 0 1.8842 0.0115 3.0475 0.0307 3.0979l0.0307 0.0807 0.79542-5.3e-4c0.86475-5.3e-4 1.0937-0.0287 1.368-0.16767 0.17477-0.0886 0.35307-0.27072 0.44902-0.45879 0.0412-0.0807 0.0693-0.1656 0.0924-0.25964l0.0189-0.0383 5.3e-4 -0.0576c0.022-0.12655 0.0352-0.29055 0.0408-0.50919 5.3e-4 -0.0182 5.3e-4 -0.0406 5.3e-4 -0.0597 2e-3 -0.0967 5e-3 -0.1857 5e-3 -0.30758 1.8e-4 -0.34174-7e-3 -0.54821-0.0258-0.70761-5.3e-4 -6e-3 -1e-3 -0.0164-2e-3 -0.0225-6e-3 -0.0424-0.0109-0.0895-0.0189-0.12419v-9e-3l-3e-3 -7e-3c-0.0306-0.1222-0.0784-0.20731-0.15572-0.3086l-0.11051-0.1448 0.0961-0.1213c0.14135-0.17847 0.18336-0.25833 0.19708-0.60535 0.0151-0.16149 0.0237-0.35302 0.0234-0.63661-2.7e-4 -0.24803-8e-3 -0.44603-0.0242-0.61503-8e-3 -0.18945-0.0244-0.30174-0.0647-0.41851-0.0982-0.28425-0.26375-0.48807-0.496-0.61051-0.094-0.0496-0.18199-0.081-0.2807-0.10585l-0.0309-0.0146-0.0394-5.3e-4h-2.7e-4c-0.0233-5e-3 -0.0417-0.011-0.0677-0.0146-1e-3 -1.8e-4 -2e-3 -5.3e-4 -3e-3 -1e-3 -1.8e-4 -4e-5 -1e-3 -5e-5 -1e-3 -9e-5 -0.15267-0.0204-0.38485-0.0271-0.70659-0.0291-0.0837-5.3e-4 -0.1596-3e-3 -0.24414-3e-3zm3.8442 5.3e-4c-0.65288 0-1.2095 9e-3 -1.2368 0.0191-2e-3 1e-3 -4e-3 7e-3 -6e-3 0.0101-8e-3 2e-3 -0.0292 3e-3 -0.032 6e-3 -5.3e-4 5.3e-4 -1e-3 0.0209-2e-3 0.0227l-0.01 4e-3v0.13816c-0.0478 0.81462-0.0488 6.0646 6e-3 6.1199 6e-3 6e-3 0.054 0.0108 0.12891 0.0154h4e-5c5e-5 0 5e-5 -1e-5 9e-5 0 0.0629 5e-3 0.17011 9e-3 0.31404 0.0116 1e-3 2e-5 3e-3 3e-5 5e-3 5e-5 0.70514 0.0184 2.0066 0.0163 2.057-0.0157 0.0178-0.0113 0.026-0.0842 0.0299-0.20372 0.0125-0.19988 0.0107-0.52338-5e-3 -0.716v-2.3e-4l-3e-3 -0.1709-0.15019-2e-3c-1e-4 -1e-5 -1.8e-4 1e-5 -2.7e-4 0-0.10933-9e-3 -0.28827-0.0138-0.57967-0.0138h-0.42616l-0.0133-2e-4 -0.19939-3e-3v-1.4727l0.20137-3e-3h0.3588c0.39375 0 0.57143-0.0113 0.59798-0.0378 1e-3 -1e-3 2e-3 -0.0195 3e-3 -0.0229 5.3e-4 -1e-3 3e-3 -1e-3 3e-3 -2e-3 6e-3 -0.0101 0.0115-0.0704 0.0164-0.1313 5.3e-4 -6e-3 1e-3 -7e-3 2e-3 -0.0129 4e-3 -0.0524 6e-3 -0.11651 7e-3 -0.18846 0-1.5e-4 -1e-5 -2.6e-4 0-5.3e-4 0-1e-4 4e-5 -2.1e-4 5e-5 -2.6e-4 0-5e-5 -1e-5 -9e-5 0-1.4e-4 0.0101-0.28094 9e-3 -0.62773-0.0139-0.68677-0.0165-0.0429-0.0992-0.0497-0.59797-0.0497h-0.5788v-1.4792h0.62716c0.27841 0 0.44502-2e-3 0.54722-9e-3 0.0278-2e-3 0.0412-6e-3 0.0604-8e-3 0.0387-3e-3 0.1058-6e-3 0.11138-9e-3 0.0172-0.011 0.0257-0.0776 0.0299-0.19017 6e-3 -0.0783 9e-3 -0.1822 9e-3 -0.36161 0-0.19745-5e-3 -0.3275-0.0136-0.41114l-2e-3 -0.12793-0.20487-1e-3c-1.8e-4 -1e-5 -2.6e-4 1e-5 -5.3e-4 0-0.17611-0.01-0.48805-0.0144-1.0415-0.0144zm10.102 0c-0.0788 0-0.10096 3e-3 -0.15831 4e-3 -0.0285-3e-5 -0.0616-1e-3 -0.0877-1e-3 -0.0406 5.3e-4 -0.0562 3e-3 -0.0884 5e-3 -0.0299 2e-3 -0.076 3e-3 -0.0971 6e-3 -6e-3 5.3e-4 -0.0207 5.3e-4 -0.0249 1e-3l-7e-3 1e-3h-0.11498l-2e-3 0.36844c-0.0101 0.3015-0.0129 0.92804-0.0131 2.1567v1e-3c0 1e-3 -4e-5 1e-3 -4e-5 2e-3v3e-3l-2.7e-4 0.0606-0.0143 2.3591c-6e-3 0.12966-0.013 0.22118-0.0251 0.25138l-0.0507 0.0411c-0.10102 0.0818-0.21216 0.0756-0.30482-0.0171-0.0252-0.0252-0.0403-0.0481-0.0517-0.0754-5e-3 -0.0163-0.0111-0.0273-0.0139-0.0471-9e-3 -0.0489-0.0115-0.11535-0.0115-0.23829 0-0.24815-8e-3 -0.28761-0.0609-0.31612-0.0646-0.0346-0.96861-0.0462-1.0538-0.0135-0.0111 5e-3 -0.0194 0.0132-0.0262 0.028l-8e-3 1.4e-4 1.8e-4 0.0308c-0.0117 0.0515-0.0159 0.14392-0.0159 0.3329 0 0.205 0.0158 0.44779 0.0351 0.53952 0.10344 0.49115 0.42208 0.81086 0.92129 0.92437 0.0898 0.0204 0.22434 0.028 0.36553 0.0298 4e-5 1e-5 9e-5 0 1.8e-4 0 0.0889 6e-3 0.19193 2e-3 0.28458-8e-3 1.8e-4 -1e-5 2.6e-4 -4e-5 5.3e-4 -5e-5 2.6e-4 -3e-5 5.2e-4 -1e-5 1e-3 -5e-5 0.14408-0.0101 0.27972-0.0261 0.36378-0.0524 0.34149-0.10711 0.59814-0.35063 0.74007-0.70225l0.0734-0.18201v-0.62167c0.0121-0.42348 0.015-1.0364 0.0153-2.1966 2.6e-4 -1.3129-5e-3 -1.9941-0.0153-2.3373v-0.3205h-0.1123c-0.0184-2e-3 -0.0327-5e-3 -0.0573-7e-3 -0.087-6e-3 -0.21369-9e-3 -0.38521-9e-3zm5.0324 3e-3c-0.0809 2e-3 -0.14947 6e-3 -0.20021 0.0106-6e-3 5.3e-4 -5e-3 2e-3 -0.0106 2e-3l-0.11249-9e-5 -5.2e-4 0.32302c-5.3e-4 0.0297-1e-3 0.0746-2e-3 0.10862 0 6e-5 -4e-5 1.7e-4 -5e-5 2.3e-4 0 6e-5 1e-5 1.7e-4 0 2.3e-4 0 9e-5 1e-5 2.4e-4 0 2.6e-4 0 1e-4 1e-5 2.7e-4 0 2.7e-4 -3e-3 0.10281-5e-3 0.32232-6e-3 0.48646-5.3e-4 0.0458-1e-3 0.0695-2e-3 0.11801v5e-5c-5e-3 0.58206-6e-3 1.353-6e-3 2.1242v3.1188l0.0368 0.0154c1e-3 2e-3 2e-3 0.0189 2e-3 0.0195 0.0217 0.0138 0.26788 0.0253 0.54704 0.0255 0.38574 2.7e-4 0.51597-0.01 0.54251-0.0416 0.0238-0.0287 0.0375-0.40098 0.0431-1.1682l8e-3 -1.1235c2.7e-4 2.1e-4 1e-3 2e-3 2e-3 3e-3v5e-5l0.29754 1.121c0.1306 0.49201 0.23578 0.85125 0.29283 1.0204l0.0382 0.14245 8e-3 1.5e-4c1.8e-4 2.6e-4 2e-3 6e-3 2e-3 6e-3 0.0279 0.028 0.17037 0.035 0.46921 0.0333 0.2521 9e-3 0.52437 9e-3 0.61886-6e-3l0.097-2e-3 6e-3 -0.0563c2e-3 -6e-3 0.01-0.0102 0.01-0.0171 0-7e-3 -0.0449-0.14124-0.068-0.21405-0.0654-0.22594-0.20263-0.65038-0.40265-1.2233-0.41358-1.1846-0.46621-1.3572-0.42228-1.3847 0.2989-0.18744 0.42156-0.3287 0.5232-0.60254 0.0378-0.10182 0.0536-0.22549 0.0641-0.41504 0.0118-0.13178 0.0157-0.29379 0.0161-0.47111 0.0122-0.74757-0.0181-1.0299-0.14056-1.3027-0.10601-0.23621-0.34608-0.46386-0.59346-0.56276-0.13039-0.0521-0.28998-0.0645-0.62647-0.0696-1.8e-4 -1e-5 -2.6e-4 1e-5 -5.2e-4 0-0.34079-0.0175-0.75272-0.0271-1.0316-0.0194zm-51.855 0.54486c-0.16152-5e-3 -0.31918 0.0729-0.40463 0.21322l-0.023 0.0205v0.0216c-4e-3 9e-3 -0.0101 0.0158-0.0136 0.0249-0.0222 0.0586-0.0334 0.62857-0.0329 1.6837 5.2e-4 1.341 6e-3 1.5577 0.0465 1.6796v0.0205l9e-3 0.01c2e-3 5e-3 3e-3 0.0134 6e-3 0.0187 0.0334 0.0736 0.065 0.13398 0.0701 0.13425 5e-3 2.6e-4 0.0661 0.0208 0.13531 0.0458 0.21305 0.0767 0.41851 0.0173 0.52084-0.15052 0.0568-0.0931 0.0612-0.16458 0.0613-0.99564 0-0.0201 5.3e-4 -0.028 5.3e-4 -0.0475l0.0113-0.66551c3e-3 -0.0691 7e-3 -0.10654 0.0111-0.12678 2e-3 -9e-3 4e-3 -0.028 6e-3 -0.0257 0.0159 0.0164 0.18708 0.31315 0.38043 0.65933 0.35295 0.63195 0.46674 0.78425 0.61342 0.82106 0.1241 0.0311 0.28439-0.0125 0.37364-0.10174 0.0449-0.0449 0.24835-0.38048 0.45202-0.74569l0.37029-0.66403 0.0158 0.91169c6e-3 0.31528 0.0119 0.51288 0.0214 0.66791 3e-3 0.0431 6e-3 0.084 0.01 0.11415v0.11483l0.0137 0.015c0.0291 0.13628 0.0805 0.1652 0.17938 0.20616 0.14129 0.0585 0.36774 0.0461 0.46447-0.0254 0.0698-0.0516 0.11129-0.084 0.13729-0.2016l8e-3 -0.0108v-2e-3l0.0157-0.0233v-0.19307c0.0165-0.23745 0.0209-0.61492 0.0258-1.3555 6e-3 -0.97782 5e-3 -1.4261-0.0258-1.66v-0.0774l-0.0157-0.0233v-2e-3l-4e-3 -6e-3c-0.0208-0.0823-0.0487-0.12828-0.0886-0.16578-0.15917-0.14953-0.48247-0.14341-0.64491 0.0122-3e-3 3e-3 -0.0232 0.0384-0.028 0.0446-9e-3 0.0102-0.0186 0.0196-0.0261 0.0307-2e-3 3e-3 -0.0311 0.0564-0.0346 0.062-2.6e-4 5.2e-4 -5.3e-4 1e-3 -1e-3 2e-3 -2e-3 3e-3 -0.0185 0.0336-0.0207 0.0373-0.11413 0.18244-0.29701 0.49634-0.52339 0.91165-0.27045 0.49614-0.4546 0.82151-0.50587 0.90187-0.0139 0.0203-0.0536 0.0892-0.0566 0.0892-5e-3 0-0.059-0.0941-0.0875-0.13899-0.0667-0.11016-0.22132-0.38256-0.47553-0.84988-0.23125-0.42513-0.41966-0.74802-0.53173-0.92501-3e-3 -6e-3 -0.0302-0.0551-0.0325-0.0586-5e-3 -7e-3 -0.0109-0.0117-0.0157-0.0183-0.0124-0.0179-0.048-0.0801-0.0538-0.0857-0.0884-0.0847-0.20077-0.1262-0.31261-0.12941zm11.232 7e-3c-0.16236 0-0.32442 0.0697-0.39932 0.20907-0.044 0.0819-0.057 0.20481-0.0667 0.63084-0.0111 0.48834-0.0161 0.52565-0.0639 0.48365-0.0285-0.025-0.1156-0.079-0.19349-0.12-0.1216-0.064-0.18622-0.0745-0.457-0.0745-0.29303 0-0.33029 7e-3 -0.52583 0.10363-0.3117 0.15345-0.53281 0.44866-0.62033 0.8283-0.0481 0.2087-0.04 0.71319 0.0149 0.92382 0.12244 0.47008 0.40212 0.76763 0.83295 0.88624 0.30403 0.0837 0.64733 0.0261 0.90612-0.1519 0.13094-0.0901 0.13873-0.0916 0.18085-0.036 0.0242 0.0319 0.0445 0.0657 0.045 0.0749 3e-3 0.0496 0.21478 0.13243 0.34258 0.13397 0.18293 2e-3 0.33319-0.0743 0.40536-0.2064 0.0511-0.0936 0.0556-0.23304 0.0556-1.7382s-5e-3 -1.6447-0.0556-1.7383c-0.0762-0.13939-0.23885-0.20907-0.40121-0.20907zm4.2491 5.3e-4c-0.17966 2.7e-4 -0.32956 0.0784-0.40071 0.20856-0.0511 0.0936-0.0556 0.23309-0.0556 1.7383 0 1.5029 5e-3 1.6448 0.0554 1.7379 0.0592 0.10833 0.13929 0.16333 0.29076 0.19975 0.11847 0.0285 0.29313 5e-3 0.38508-0.0533 0.064-0.0401 0.10361-0.0858 0.1324-0.15264l0.0175-0.0175 5.3e-4 -0.0278c0.0253-0.0854 0.038-0.20349 0.0461-0.39236l0.0162-0.37637c2e-3 1e-3 0.01 0.01 0.012 0.0118l0.36568 0.41214c0.41187 0.46424 0.5178 0.55451 0.69847 0.59525 0.27422 0.0618 0.54464-0.10416 0.54464-0.33437 0-0.15231-0.0101-0.16747-0.43925-0.66196l-0.30335-0.34954c-0.0292-0.0394-0.0659-0.0873-0.0662-0.0943l0.0645-0.0708c0.34032-0.37377 0.59108-0.67296 0.63472-0.75734 0.10801-0.20888-0.0424-0.45942-0.2963-0.49347-0.25063-0.0336-0.36949 0.0443-0.81299 0.53279l-0.40075 0.44141-5.3e-4 5.3e-4c-4e-5 3e-5 -5.3e-4 5.3e-4 -5.3e-4 5.3e-4l-0.0158-0.91488c-0.0114-0.66373-0.0172-0.84911-0.0471-0.93792l-9e-5 -0.0118-0.0127-0.0127c-7e-3 -0.0136-0.0125-0.029-0.0216-0.0413-0.0882-0.11909-0.21934-0.17913-0.39057-0.17877zm66.924 0.20017c-0.19576 0-0.45031 0.0716-0.55925 0.1573-0.0986 0.0776-0.11738 0.0786-0.11738 6e-3 0-0.0311-0.017-0.0736-0.0378-0.0944-0.016-0.016-0.0912-0.0253-0.18108-0.0314-0.0164-1e-3 -0.0392-2e-3 -0.0585-2e-3 -0.051-2e-3 -0.0967-4e-3 -0.15042-3e-3 -1e-3 0-2e-3 -4e-5 -3e-3 -4e-5 -0.0108-2e-5 -0.0137 1e-3 -0.0238 1e-3 -1e-3 1e-5 -2e-3 9e-5 -3e-3 9e-5 -0.0652 2e-3 -0.12972 3e-3 -0.1797 9e-3 -3e-3 5.3e-4 -7e-3 1e-3 -0.0106 2e-3 -8e-5 2e-5 -9e-5 3e-5 -1.8e-4 5e-5 -0.051 6e-3 -0.0907 0.0145-0.10175 0.0255-0.0105 0.0105-0.0176 0.083-0.0234 0.19399-0.011 0.16204-0.0144 0.46473-0.0144 1.1215 0 0.65679 3e-3 0.95952 0.0144 1.1216 6e-3 0.11094 0.013 0.18355 0.0234 0.19399 0.0246 0.0246 0.15389 0.0377 0.37139 0.0377s0.34672-0.0131 0.37134-0.0377c0.0114-0.0114 0.0193-0.0734 0.0252-0.17399 3e-3 -0.0365 4e-3 -0.12746 6e-3 -0.18385 4e-3 -0.14453 7e-3 -0.3053 7e-3 -0.57202v-0.7953c3e-3 -0.0222 3e-3 -0.0633 7e-3 -0.0811v-4e-5c3e-3 -0.0135 7e-3 -0.0212 0.01-0.0324l0.05845-0.05845c0.13666-0.13667 0.45479-0.14363 0.57354-0.0126 0.0428 0.0472 0.0548 0.21682 0.0654 0.65274l3e-3 0.29261c5e-3 0.45168 9e-3 0.6773 0.0197 0.80377l3e-3 0.18256 0.19155 5e-3c0.12986 0.0119 0.29757 0.0132 0.4157 2e-3h4e-5c0.0802-5e-3 0.13528-0.0124 0.15324-0.027l0.0105-3e-3v-0.0213c0.0287-0.0579 0.0332-0.2505 0.0243-0.99204-0.0105-0.86383-0.0189-0.99773-0.0722-1.1496-0.12054-0.34324-0.41474-0.5362-0.81755-0.5362zm11.93 2e-3c-0.12711-0.0135-0.26997 0.0176-0.40979 0.0911l-0.17749 0.0934-0.0299-0.0786c-0.0205-0.0541-0.0718-0.066-0.19054-0.0684-3e-5 -1e-5 -5e-5 0-9e-5 0-0.0506-5e-3 -0.11075-8e-3 -0.18624-8e-3 -0.12247 0-0.20233-8e-3 -0.25863 0.0131l-0.10331 3e-3 -1e-3 0.20298c-1.8e-4 4e-3 -3.5e-4 0.0116-5.3e-4 0.016-6e-5 1e-3 -9e-5 3e-3 -1.8e-4 5e-3 -4e-5 5.2e-4 -6e-5 2e-3 -9e-5 3e-3 -0.0186 0.18896-0.0136 0.51821-0.0136 1.1103 0 0.11132 2e-3 0.11148 2e-3 0.20455 5.7e-4 0.26936 2e-3 0.51003 6e-3 0.70216 1e-5 2.6e-4 0 2.6e-4 0 5.3e-4 1e-5 9e-5 0 8e-5 0 1.8e-4 2e-3 0.0757 3e-3 0.19822 7e-3 0.24245 1e-5 3e-5 0 5e-5 0 9e-5 1e-3 0.0192-1.8e-4 0.1617 5.7e-4 0.16434 0.0213 0.0556 0.72668 0.0556 0.76269 0 0.014-0.0216 0.0325-0.42728 0.0412-0.90145l0.0156-0.8513c5e-3 -7e-3 8e-3 -0.0146 0.0133-0.0207l0.072-0.0537c0.0641-0.0478 0.1499-0.0672 0.34621-0.0783 0.0355-2e-3 0.0624-7e-3 0.0945-0.0103 0.0753-3e-3 0.13216-0.01 0.15204-0.0237 4.5e-4 -5e-5 6e-3 -2.1e-4 7e-3 -2.6e-4 3.6e-4 -6e-5 5.6e-4 -6e-3 1e-3 -6e-3 8e-3 -3e-3 0.0279-6e-3 0.0299-9e-3 0.0127-0.0194 0.0233-0.18067 0.0236-0.35852 4.5e-4 -0.31834-5.6e-4 -0.32385-0.0803-0.35406-0.0382-0.0145-0.0788-0.024-0.12115-0.0285zm-6.7683 0.0117c-7e-3 -1e-5 -0.0127 1e-3 -0.0194 1e-3 -1e-3 2e-5 -2e-3 -2.5e-4 -3e-3 -2.3e-4 -3e-3 6e-5 -6e-3 5.3e-4 -9e-3 1e-3 -0.17136 2e-3 -0.33989 0.0197-0.44441 0.0563-0.35212 0.12292-0.61051 0.37401-0.66082 0.64218-0.0186 0.0994-6e-3 0.14808 0.0683 0.17228 0.0463 0.0226 0.13484 0.0262 0.30725 0.0259 0.1158-2e-4 0.19102-5e-3 0.25149-0.0121l0.12645-3e-3 0.0521-0.0944c0.0587-0.10635 0.16547-0.16181 0.27324-0.17122 0.0209-1e-3 0.0408-8e-5 0.0614 0 0.10614 9e-3 0.20493 0.0642 0.24913 0.17002 0.0212 0.0506 0.0348 0.0881 0.0427 0.1195 5.3e-4 7e-3 3e-3 0.0148 3e-3 0.0217 0 0.0199-5.5e-4 0.0338-2e-3 0.0464-0.0192 0.0429-0.0919 0.0496-0.25098 0.0496-0.66938 0-1.1212 0.2565-1.2267 0.69644-0.11202 0.46697 0.16479 0.9118 0.64615 1.0384 0.0605 0.0159 0.13851 0.02 0.22036 0.0192 8e-3 1e-3 0.0269 5e-3 0.0327 5e-3 0.0225 1e-3 0.0577-4e-3 0.0941-0.0103 0.13771-0.0138 0.27467-0.0457 0.3648-0.0924 0.16146-0.0838 0.1625-0.0839 0.2069-0.0205 0.0403 0.0576 0.0789 0.0637 0.40089 0.0637 0.0228 0 0.034-1e-3 0.0547-2e-3 0.075-5.3e-4 0.14258-2e-3 0.1887-5e-3 0.18721-0.015 0.20775-0.0597 0.14996-0.17509-0.0317-0.0634-0.0472-0.31439-0.0597-0.96682l-0.0168-0.88122-0.0891-0.18146c-0.10363-0.21103-0.28872-0.36822-0.53459-0.454-0.11181-0.039-0.29451-0.0586-0.47705-0.0588zm3.8483 5.3e-4c-0.0225 2.6e-4 -0.0442 5e-3 -0.0666 7e-3 -8e-5 0-1.8e-4 -1e-5 -2.7e-4 0-0.29466 8e-3 -0.46907 0.0571-0.69391 0.19966-0.23983 0.15209-0.43293 0.52605-0.33349 0.64587 0.0179 0.0215 0.0607 0.0319 0.13318 0.0369 0.0524 6e-3 0.11874 9e-3 0.22235 9e-3 0.11579-2e-4 0.19102-5e-3 0.25148-0.0121l0.12645-3e-3 0.0521-0.0944c0.0587-0.10635 0.16547-0.16181 0.27324-0.17122 0.021-1e-3 0.0408-8e-5 0.0615 0 0.10614 9e-3 0.20493 0.0642 0.24914 0.17002 0.0212 0.0506 0.0348 0.0881 0.0427 0.1195 5.3e-4 7e-3 3e-3 0.0148 3e-3 0.0218 0 0.0199-5.6e-4 0.0338-2e-3 0.0464-0.0191 0.0429-0.0919 0.0496-0.25097 0.0496-0.66939 0-1.1212 0.25651-1.2268 0.69645-0.11202 0.46696 0.1648 0.91179 0.64615 1.0384 0.0605 0.0159 0.13852 0.02 0.22036 0.0192 8e-3 1e-3 0.0269 5e-3 0.0327 5e-3 0.0225 1e-3 0.0577-4e-3 0.0941-0.0103 0.13771-0.0138 0.27468-0.0457 0.3648-0.0924 0.16146-0.0838 0.16251-0.0839 0.2069-0.0205 0.0403 0.0576 0.0789 0.0637 0.40089 0.0637 0.0229 0 0.034-1e-3 0.0547-2e-3 0.075-5.3e-4 0.14258-2e-3 0.18869-5e-3 0.18721-0.0151 0.20775-0.0597 0.14997-0.17509-0.0318-0.0634-0.0472-0.31438-0.0597-0.96683l-0.0168-0.88122-0.0886-0.18029c-0.1727-0.35169-0.46771-0.50408-0.98458-0.50961-0.0168-2.6e-4 -0.0336-4e-3 -0.0503-3e-3zm-11.861 2.6e-4c-8e-3 -1.2e-4 -0.0159 1e-3 -0.0239 1e-3 -2e-3 -1e-5 -3e-3 -2.4e-4 -5e-3 -2.4e-4 -0.0242 0-0.0293 2e-3 -0.0505 2e-3 -0.0209 1e-3 -0.0417 1e-3 -0.0626 3e-3 -0.17718 5e-3 -0.26751 0.0183-0.39785 0.0793-0.25094 0.11757-0.38195 0.22482-0.50549 0.41389-0.14517 0.22215-0.2082 0.39595-0.24291 0.66971-0.0559 0.44091 0.0393 0.81971 0.25328 1.1048 1.8e-4 2.6e-4 3.4e-4 5.3e-4 5.3e-4 1e-3 1.8e-4 2.2e-4 3.4e-4 2.7e-4 5.2e-4 5.3e-4 0.16342 0.21699 0.394 0.38094 0.69032 0.46765 0.21459 0.0628 0.69778 0.0364 0.91266-0.0498 0.20414-0.0819 0.41532-0.23538 0.48526-0.35263 0.0484-0.0811 0.0462-0.0882-0.0715-0.23603-0.18767-0.23562-0.24982-0.28286-0.3133-0.23812-0.19587 0.13804-0.3644 0.2113-0.52381 0.22424-2e-3 1.1e-4 -4e-3 2.7e-4 -6e-3 5.3e-4 -0.0295 2e-3 -0.0587 2e-3 -0.0878 9e-5 -2e-3 -8e-5 -3e-3 -1.9e-4 -6e-3 -2.6e-4 -0.0625-5e-3 -0.12405-0.0191-0.18597-0.0427-0.13437-0.0513-0.26374-0.18054-0.30879-0.30841-0.0181-0.0515 0.0312-0.0551 0.76007-0.0551 4e-3 0 5e-3 -9e-5 8e-3 -9e-5 0.27738 1.4e-4 0.46392 5.3e-4 0.58972-8e-3 0.13579-6e-3 0.20568-0.0154 0.21963-0.0293 0.0134-0.0135 0.0229-0.0521 0.0288-0.10474 2e-3 -0.0121 2e-3 -0.0319 2e-3 -0.0461 0.011-0.15631-1e-3 -0.39651-0.0392-0.57552-0.0853-0.40253-0.29278-0.67281-0.64228-0.83664-0.12504-0.0586-0.21633-0.0726-0.38688-0.0774-0.0305-3e-3 -0.061-6e-3 -0.0917-6e-3zm5.1326 1e-3c-0.21065 5.2e-4 -0.30095 0.0159-0.42487 0.0724-0.41316 0.18855-0.63663 0.59115-0.66689 1.2015-0.0337 0.67876 0.20036 1.1885 0.6461 1.4074 0.11563 0.0568 0.19942 0.073 0.32354 0.0797 0.0398 5e-3 0.0797 8e-3 0.11981 7e-3 1e-3 0 1e-3 1.4e-4 2e-3 1.4e-4 8e-3 -1e-5 0.0105-1e-3 0.0184-1e-3 0.0311-1e-3 0.0623-1e-3 0.0934-6e-3 0.12427-6e-3 0.20662-0.0208 0.29255-0.0664 0.0752-0.04 0.14405-0.0653 0.15292-0.0565 0.031 0.031-0.1016 0.2522-0.18975 0.31666-0.0715 0.0523-0.13601 0.065-0.33045 0.065-0.21457 0-0.26181-0.0114-0.4221-0.10225-0.0993-0.0563-0.19347-0.1023-0.20935-0.1023-0.0483 0-0.28979 0.34754-0.31094 0.44183-1e-3 3e-3 -7e-3 0.0129-7e-3 0.0155 0 2.6e-4 4.4e-4 5.2e-4 4.4e-4 1e-3 0 1.7e-4 -4.4e-4 5.3e-4 -4.4e-4 1e-3 0 0.12815 0.28442 0.31264 0.62946 0.40832 0.19722 0.0547 0.55075 0.0538 0.76495-2e-3 0.3971-0.10343 0.6443-0.29821 0.79911-0.62969l0.0882-0.18883 9e-3 -1.3797c6e-3 -0.95371-4e-5 -1.3267-0.0231-1.3998l1.8e-4 -0.0292-0.0217-6e-3 -4e-5 -5e-5c-0.0385-0.0236-0.12676-0.0336-0.3122-0.0336-0.0188 0-0.0284 5.3e-4 -0.0454 5.3e-4 -3e-3 -1e-5 -3e-3 -2.6e-4 -6e-3 -2.6e-4 -6e-3 -1e-5 -0.0103 5.2e-4 -0.0166 5.2e-4 -0.26633 3e-3 -0.3239 0.0203-0.3239 0.0992 0 0.0303-9e-3 0.048-0.0198 0.0479-3e-3 -8e-5 -8e-3 -1e-3 -0.0123-2e-3 -0.29375-0.15031-0.33745-0.16207-0.59733-0.16145zm4.8309 0.0151c-0.32342 0-0.36298 6e-3 -0.39227 0.0609-0.0211 0.0394-0.0326 0.55495-0.0326 1.4574 0 1.1551-8e-3 1.407-0.0446 1.4575-0.0332 0.0454-0.0953 0.065-0.24392 0.0769l-0.1993 0.0159-3e-3 0.11626c-5.6e-4 6e-3 -1e-3 0.0133-2e-3 0.0196-4e-3 0.0307-6e-3 0.0732-7e-3 0.11627-5.6e-4 0.0182-2e-3 0.033-2e-3 0.0515-3e-5 7e-3 -5.6e-4 0.01-5.6e-4 0.0169 9e-5 0.0408 2e-3 0.0702 3e-3 0.10027 1e-5 1.1e-4 -1e-5 2.6e-4 0 2.6e-4v1.4e-4l-6e-3 0.18643 0.0877 0.034c0.0482 0.0187 0.20804 0.0291 0.35516 0.0229 0.32263-0.0134 0.51748-0.0938 0.6758-0.27878 0.0977-0.11414 0.15002-0.18356 0.18062-0.36775l9e-3 -0.0181v-0.0317c0.0296-0.23296 0.0332-0.63631 0.0398-1.4533 8e-3 -1.0225 2e-3 -1.4728-0.023-1.5185-0.0309-0.0577-0.0734-0.0638-0.37176-0.0643-5e-3 -8e-5 -9e-3 -5.3e-4 -0.0136-5.3e-4 -5e-3 0-4e-3 -2.7e-4 -9e-3 -2.7e-4zm-95.468 6e-3c-0.72063-0.0188-1.4489 0.10953-2.1376 0.38632-0.70597 0.28372-1.3156 0.69872-1.9204 1.3072-0.64742 0.65145-1.0982 1.2714-1.5 2.063-0.29295 0.57704-0.37279 0.81637-0.35134 1.053 0.0395 0.43602 0.35282 0.807 0.77002 0.91178 0.3399 0.0854 0.80697-0.0765 1.0146-0.35156 0.0614-0.0814 0.16559-0.27255 0.23147-0.42482 0.27279-0.63047 0.72895-1.288 1.2625-1.8198 0.76342-0.76095 1.3998-1.1104 2.157-1.1877 0.074-2e-3 0.13662-6e-3 0.24212-6e-3h5.2e-4c4e-3 0 6e-3 -5e-5 0.01-5e-5 0.0927 3e-5 0.15352 5.3e-4 0.21944 1e-3 0.36626 0.0342 0.76394 0.15469 1.2885 0.38563 0.30688 0.13511 0.35293 0.14663 0.58488 0.14582 0.19978-5.3e-4 0.27971-0.0155 0.38697-0.0721 0.20735-0.10941 0.37332-0.27646 0.46968-0.47268 0.075-0.15274 0.0874-0.21631 0.0871-0.44566-2.6e-4 -0.22774-0.0128-0.2909-0.0834-0.42487-0.13064-0.24777-0.29203-0.38694-0.63997-0.55187-0.65816-0.31196-1.3712-0.47796-2.0918-0.49678zm39.15 0.34054h0.0334l0.14669 6e-3c0.0964 5e-3 0.15877 0.01 0.20188 0.0393 0.0687 0.0652 0.0771 0.22352 0.085 0.60988 2e-3 0.1185 2e-3 0.20766 5.3e-4 0.29296-2.7e-4 0.034-1e-3 0.0658-2e-3 0.093v1.3e-4c-0.01 0.26722-0.0467 0.35969-0.13687 0.40076-0.0443 0.0202-0.13645 0.0367-0.20487 0.0367h-0.12438v-0.73956zm19.481 0h0.12586c0.0839 0 0.14687 0.0209 0.18883 0.0629 0.0586 0.0586 0.063 0.10493 0.063 0.67179 0 0.56065-5e-3 0.61315-0.0605 0.66357-0.0333 0.0301-0.11825 0.0625-0.18883 0.072l-0.0664 9e-3h-0.0619v-0.7394zm26.853 0.31612c0.19314 6e-3 0.36978 0.15006 0.36978 0.34682 0 0.0217-0.0107 0.0341-0.0364 0.0431-0.0234 4e-3 -0.0366 8e-3 -0.0777 0.0101-2.6e-4 1e-5 -5.5e-4 3e-5 -1e-3 4e-5 -0.0594 5e-3 -0.1324 8e-3 -0.2945 8e-3h-0.40029c-3e-3 -3e-3 -2e-3 -9e-3 -3e-3 -0.0137l0.0426-0.10189c0.0611-0.1463 0.0996-0.19216 0.20833-0.24839 0.0295-0.0153 0.0601-0.0257 0.0908-0.0329 0.0114-2e-3 0.0231-3e-3 0.0351-5e-3 0.0223-3e-3 0.0447-7e-3 0.0668-6e-3zm5.384 7e-3c0.0835 8e-3 0.18973 0.0425 0.23604 0.077l0.039 0.0291c0.0217 0.0224 0.0367 0.0496 0.0452 0.0938v1.058l-0.014 0.012-0.0708 0.0529c-0.0667 0.0498-0.21581 0.079-0.33395 0.0759-0.0144-1e-3 -0.0287-2e-3 -0.041-4e-3 -3e-5 -1e-5 -6e-5 0-8e-5 0-0.0291-3e-3 -0.0583-7e-3 -0.0784-0.0153-0.10222-0.044-0.22826-0.21282-0.26752-0.3582-0.0514-0.19027-0.023-0.60967 0.0516-0.76206 0.0904-0.18463 0.24399-0.2763 0.43326-0.25867zm-79.589 0.21289c-0.22906-0.0107-0.46028 0.0275-0.65071 0.11663-0.47366 0.22166-0.73535 0.6132-0.77122 1.1388-2e-3 0.0208-3e-3 0.0416-3e-3 0.0626 0 6e-5 1e-5 1.2e-4 0 1.9e-4 -5.2e-4 0.0207-3e-3 0.04-3e-3 0.0611 0 0.023 4e-3 0.0435 5e-3 0.0661 2e-3 0.043 3e-3 0.0856 9e-3 0.12885 0.0641 0.62315 0.43582 1.0412 1.0658 1.1781 0.48596 0.1056 1.1511-0.01 1.3991-0.24282 0.14374-0.13503 0.15375-0.36914 0.0219-0.51139-0.094-0.10144-0.2621-0.10552-0.4925-0.0119-0.23772 0.0966-0.68142 0.10089-0.85876 8e-3 -0.10219-0.0534-0.2428-0.2284-0.26071-0.31731l-4e-3 -0.0184c3e-3 -0.0129 0.33711-0.0234 0.74753-0.0234 0.97605 0 1.0118-0.0125 1.0118-0.35327 0-0.45598-0.23401-0.90444-0.57677-1.1053-0.1817-0.10648-0.40861-0.16611-0.63767-0.1768zm1.9894 2e-3c-0.1502 5e-3 -0.29814 0.0772-0.37936 0.21299l-0.0336 0.0308-5.3e-4 0.0527c-0.0266 0.10854-0.0311 0.33517-0.0311 1.1009 0 0.98888 5e-3 1.0774 0.0587 1.167 0.0673 0.11113 0.15236 0.17154 0.28744 0.20409 0.12052 0.0291 0.29068 4e-3 0.40075-0.0598 0.10546-0.0608 0.148-0.14054 0.16666-0.3643 1e-3 -0.0102 2e-3 -0.021 3e-3 -0.0324 7e-3 -0.11172 0.0115-0.24777 0.0116-0.44727 1e-5 -0.0451 2e-3 -0.0808 3e-3 -0.12489 7e-3 -0.28491 0.0143-0.48837 0.043-0.61669 0.0714-0.18183 0.27864-0.30796 0.51877-0.30796 0.18235 0 0.3865-0.12038 0.43801-0.2583 0.0591-0.15818 0.0246-0.37181-0.0779-0.48235-0.0747-0.0806-0.0921-0.0848-0.28961-0.0706-0.22442 0.0161-0.43346 0.10118-0.57575 0.23437l-0.0823 0.0771-0.067-0.11354c-0.0826-0.13996-0.23866-0.20647-0.39388-0.20179zm11.92 2e-3c-0.0763-2e-3 -0.15682-2e-3 -0.24175 3e-3 -0.35482 0.0183-0.77011 0.13481-0.89431 0.25092-0.16375 0.15307-0.15717 0.42491 0.0135 0.55916 0.10288 0.0809 0.16101 0.0793 0.4498-0.0122 0.14163-0.0449 0.26945-0.0744 0.38154-0.089 0.0383-2e-3 0.0671-7e-3 0.11317-7e-3 0.0652-2.7e-4 0.11234 3e-3 0.15887 6e-3 0.16617 0.0274 0.25908 0.11554 0.25908 0.26361v0.0844l-0.33833 0.0207c-0.95726 0.0585-1.2756 0.23718-1.3214 0.74144-0.0392 0.43214 0.24712 0.80614 0.71333 0.93184 0.30958 0.0835 0.63705 0.0291 0.87872-0.146l0.13149-0.0952 0.0337 0.074c0.0787 0.17273 0.38087 0.24286 0.58644 0.13614 0.19481-0.10113 0.20276-0.14756 0.19156-1.1166-9e-3 -0.80685-0.0149-0.88113-0.0763-1.0138-0.13256-0.2865-0.34853-0.46223-0.66846-0.54183l-0.0142-7e-3 -0.0209 5e-5c-0.10213-0.0227-0.21183-0.0384-0.33547-0.0425zm-5.9154 2e-3c-0.35707 0.0187-0.62179 0.13032-0.87356 0.36844-0.23792 0.22501-0.35571 0.48192-0.38408 0.82742-3e-3 0.0254-3e-3 0.0517-5e-3 0.0775-2.7e-4 3e-3 -1e-3 6e-3 -1e-3 0.01-5.3e-4 7e-3 5.3e-4 0.0141 1.8e-4 0.0214-3e-3 0.0571-5e-3 0.11408-2e-3 0.17255 7e-5 2e-3 -1.8e-4 3e-3 -9e-5 4e-3 5.3e-4 0.0137 2e-3 0.0176 3e-3 0.0304 2e-3 0.0222 4e-3 0.0438 7e-3 0.0656 1e-5 3e-5 0 6e-5 0 9e-5 0.0131 0.18418 0.0332 0.28586 0.10281 0.43787 0.17191 0.37567 0.51119 0.63358 0.96259 0.73175 0.37711 0.082 0.83845 0.0388 1.1752-0.11013 0.27583-0.12202 0.38185-0.29447 0.31961-0.51988-0.059-0.21382-0.2581-0.2633-0.56243-0.13987-0.24498 0.0994-0.68594 0.10525-0.86545 0.0115-0.1021-0.0533-0.24256-0.2281-0.26066-0.31708l-4e-3 -0.0186c3e-3 -0.0129 0.33711-0.0234 0.74753-0.0234 0.77462 0 0.92325-0.0192 0.98098-0.12715 0.0455-0.085 0.0374-0.36919-0.0163-0.57534-0.16576-0.63639-0.63258-0.96305-1.3245-0.92686zm0.13591 0.65058c0.11016 1e-3 0.21666 0.0252 0.27535 0.0714 0.0644 0.0506 0.1297 0.15522 0.15841 0.24355 1e-5 7e-5 4e-5 1.3e-4 5e-5 1.9e-4 3e-5 1.3e-4 6e-5 2.4e-4 9e-5 2.7e-4 8e-3 0.0251 0.0115 0.0476 0.0128 0.0684-1.8e-4 4e-3 -2e-3 7e-3 -2e-3 0.0109-5.3e-4 3e-3 -5.3e-4 7e-3 -2e-3 9e-3 -2e-3 5e-3 -3e-3 9e-3 -8e-3 0.0121-3e-3 3e-3 -0.0134 5e-3 -0.0197 8e-3 -0.0484 0.0156-0.16573 0.0198-0.45211 0.0198-0.0115 0-0.0101-5.2e-4 -0.0211-5.2e-4 -0.21272-5.3e-4 -0.35823-6e-3 -0.42376-0.0168-9e-3 -2e-3 -0.0215-5e-3 -0.0266-8e-3h-5e-5c-2e-3 -5.2e-4 -5e-3 -2e-3 -6e-3 -3e-3 -6e-3 -5e-3 -7e-3 -0.0128-8e-3 -0.0201v-5e-5c0.0117-0.0888 0.13808-0.27808 0.22525-0.33123 0.0733-0.0447 0.18714-0.0662 0.29731-0.065zm-8.1542 5.3e-4c0.10987 5e-5 0.21577 0.0216 0.27056 0.0647 0.0805 0.0633 0.17324 0.23035 0.1792 0.31824-2.7e-4 7e-3 -2e-3 0.0138-4e-3 0.0194-2e-3 5e-3 -3e-3 9e-3 -8e-3 0.0131-3e-3 3e-3 -0.0136 5e-3 -0.0197 8e-3 -4e-5 1e-5 -1.7e-4 2e-5 -1.7e-4 5e-5h-6e-5c-0.0472 0.0161-0.16199 0.02-0.45395 0.02-0.22728 0-0.37616-6e-3 -0.44404-0.0173h-5e-5c-3e-5 0-7e-5 1e-5 -9e-5 0-5e-3 -1e-3 -0.0101-2e-3 -0.0135-4e-3 -2e-3 -5.2e-4 -5e-3 -1e-3 -7e-3 -2e-3 -1e-3 -5.3e-4 -4e-3 -5.3e-4 -5e-3 -2e-3 -2e-3 -1e-3 -5e-3 -2e-3 -6e-3 -3e-3 -6e-3 -5e-3 -6e-3 -0.0128-8e-3 -0.02 0.0116-0.0888 0.13806-0.27817 0.22526-0.33133 0.0706-0.043 0.18439-0.0645 0.29426-0.0644zm82.561 3e-3v0.1661c0 0.19526-0.0574 0.29369-0.20768 0.3565v5e-5c-0.0193 8e-3 -0.0379 0.0124-0.0568 0.0181-0.0363 8e-3 -0.072 0.0167-0.11543 0.0199-0.0413 3e-3 -0.0737-1e-4 -0.10622-3e-3 -0.13229-0.0275-0.21812-0.12551-0.19556-0.26457 0.0335-0.20652 0.18485-0.29225 0.51652-0.29261zm3.856 0 8e-3 0.19067c2e-3 0.0351-5.6e-4 0.0591-2e-3 0.0868-0.0179 0.13196-0.0779 0.20086-0.22211 0.25549-6e-3 2e-3 -0.0116 3e-3 -0.0174 5e-3 -0.0404 0.0103-0.0825 0.0192-0.13227 0.0228-0.0408 3e-3 -0.0727-2.1e-4 -0.10488-3e-3 -0.13222-0.0285-0.21918-0.12725-0.1969-0.26457 0.0335-0.20652 0.18486-0.29225 0.51652-0.29261zm-81.441 0.0629c0.19467 0 0.34497 0.0932 0.43224 0.26793 0.0485 0.0972 0.0628 0.18934 0.063 0.40874 2.7e-4 0.25174-9e-3 0.29937-0.0852 0.4286-0.0522 0.0888-0.12753 0.16537-0.19357 0.19671-0.0391 0.0186-0.081 0.027-0.12263 0.0347-9e-3 1e-3 -0.0155 3e-3 -0.0254 3e-3 -0.0137 1e-3 -0.0196 4e-3 -0.0351 5e-3 -0.15225 9e-3 -0.30447-0.0466-0.39508-0.16177-0.14976-0.19039-0.17517-0.69877-0.0474-0.94751 0.0833-0.1621 0.21142-0.23604 0.40914-0.23604zm39.171 0.32331c5e-3 -5e-3 0.0404 0.25052 0.0802 0.5662 0.0399 0.31568 0.0742 0.58809 0.0764 0.6054 2e-3 0.0173-0.0711 0.0358-0.16292 0.0411l-0.0401 2e-3h-9e-5c-0.0282-2e-3 -0.0618-2e-3 -0.0793-6e-3 -0.0185-8e-3 -0.0317-0.0216-0.0369-0.051v-5e-5l7e-3 -0.0399c0.01-0.0572 0.0467-0.33045 0.0828-0.60724 0.036-0.27679 0.0689-0.50675 0.0732-0.51103zm-6.6178 0.0311c2e-3 -8e-3 0.0413 0.24014 0.0881 0.55824 0.047 0.32023 0.0802 0.59283 0.0737 0.60581-5e-3 0.0101-0.0817 0.0187-0.15868 0.0227-0.0625-2.7e-4 -0.10758-2e-3 -0.13093-9e-3 -0.0185-6e-3 -0.0254-0.0161-0.0288-0.0292 7e-3 -0.0609 0.13189-0.97887 0.1495-1.1035 1e-3 -6e-3 6e-3 -0.0421 7e-3 -0.0446zm-23.347 0.55824-0.0173 0.12894c-0.0184 0.13739-0.10897 0.25746-0.24908 0.33036-0.0212 0.0111-0.0433 0.0167-0.065 0.0235-0.0314 5e-3 -0.0534 0.012-0.10018 0.015-0.0385 2e-3 -0.0501-1e-3 -0.0766-5.3e-4 -0.17735-0.0265-0.31814-0.16633-0.26314-0.33285 0.0379-0.11492 0.17926-0.1601 0.50757-0.16232zm13.713 0.44059h0.15509c0.0583 0 0.0862 5e-3 0.11797 0.01h5e-5l4e-5 4e-5c0.12642 0.0239 0.17739 0.10889 0.19178 0.36664 5.3e-4 0.0109 5.3e-4 0.0314 1e-3 0.0434 1.7e-4 5e-3 2.6e-4 0.0135 2.6e-4 0.019 1e-5 9e-5 0 2e-4 0 2.7e-4 1.8e-4 7e-3 2.6e-4 0.0163 5.3e-4 0.0236 3e-3 0.10658 4e-3 0.22417 5.2e-4 0.38595-5e-3 0.24338-9e-3 0.36897-0.0193 0.44312-3e-3 0.0199-9e-3 0.0329-0.0133 0.0484v5e-5c-2e-5 3e-5 -4e-5 5e-5 -6e-5 8e-5 -0.0115 0.0347-0.0265 0.0576-0.0523 0.0784-0.0482 0.039-0.11887 0.0571-0.21598 0.0588h-5e-5c-8e-5 0-1.8e-4 4e-5 -2.6e-4 5e-5 -6e-3 8e-5 -0.0104 5.3e-4 -0.0163 5.3e-4l-0.14946 2.6e-4v-0.73951z" stroke-width=".031472"/>
</g>
</svg>
