<?xml version="1.0" encoding="UTF-8" standalone="no"?>
<!-- Created with Inkscape (http://www.inkscape.org/) -->

<svg
   width="50"
   height="50"
   viewBox="0 0 13.229166 13.229167"
   version="1.1"
   id="svg724"
   inkscape:version="1.2.2 (b0a8486541, 2022-12-01)"
   sodipodi:docname="tutwuri.svg"
   xmlns:inkscape="http://www.inkscape.org/namespaces/inkscape"
   xmlns:sodipodi="http://sodipodi.sourceforge.net/DTD/sodipodi-0.dtd"
   xmlns="http://www.w3.org/2000/svg"
   xmlns:svg="http://www.w3.org/2000/svg">
  <sodipodi:namedview
     id="namedview726"
     pagecolor="#ffffff"
     bordercolor="#000000"
     borderopacity="0.25"
     inkscape:showpageshadow="2"
     inkscape:pageopacity="0.0"
     inkscape:pagecheckerboard="0"
     inkscape:deskcolor="#d1d1d1"
     inkscape:document-units="mm"
     showgrid="false"
     inkscape:zoom="5.6256929"
     inkscape:cx="29.862988"
     inkscape:cy="23.108264"
     inkscape:window-width="1318"
     inkscape:window-height="736"
     inkscape:window-x="0"
     inkscape:window-y="0"
     inkscape:window-maximized="1"
     inkscape:current-layer="layer1" />
  <defs
     id="defs721">
    <clipPath
       clipPathUnits="userSpaceOnUse"
       id="clipPath148">
      <path
         d="M 0,425.2 H 425.2 V 0 H 0 Z"
         id="path146" />
    </clipPath>
    <clipPath
       clipPathUnits="userSpaceOnUse"
       id="clipPath1506">
      <g
         id="g1510"
         transform="matrix(30.699491,0,0,-30.699491,-205.0946,203.47505)">
        <path
           d="M -0.33264387,-0.04182652 H 13.517749 V 13.808566 H -0.33264387 Z"
           id="path1508"
           style="stroke-width:0.0325738" />
      </g>
    </clipPath>
    <clipPath
       clipPathUnits="userSpaceOnUse"
       id="clipPath1512">
      <g
         id="g1516"
         transform="matrix(30.699491,0,0,-30.699491,-212.4032,232.92275)">
        <path
           d="M -0.33264387,-0.04182652 H 13.517749 V 13.808566 H -0.33264387 Z"
           id="path1514"
           style="stroke-width:0.0325738" />
      </g>
    </clipPath>
    <clipPath
       clipPathUnits="userSpaceOnUse"
       id="clipPath1536">
      <g
         id="g1540"
         transform="matrix(30.699491,0,0,-30.699491,-333.95401,143.66595)">
        <path
           d="M -0.33264387,-0.04182652 H 13.517749 V 13.808566 H -0.33264387 Z"
           id="path1538"
           style="stroke-width:0.0325738" />
      </g>
    </clipPath>
    <clipPath
       clipPathUnits="userSpaceOnUse"
       id="clipPath1542">
      <g
         id="g1546"
         transform="matrix(30.699491,0,0,-30.699491,-322.4071,122.76895)">
        <path
           d="M -0.33264387,-0.04182652 H 13.517749 V 13.808566 H -0.33264387 Z"
           id="path1544"
           style="stroke-width:0.0325738" />
      </g>
    </clipPath>
    <clipPath
       clipPathUnits="userSpaceOnUse"
       id="clipPath1578">
      <g
         id="g1582"
         transform="matrix(30.699491,0,0,-30.699491,-232.203,53.152749)">
        <path
           d="M -0.33264387,-0.04182652 H 13.517749 V 13.808566 H -0.33264387 Z"
           id="path1580"
           style="stroke-width:0.0325738" />
      </g>
    </clipPath>
    <clipPath
       clipPathUnits="userSpaceOnUse"
       id="clipPath1590">
      <g
         id="g1594"
         transform="matrix(30.699491,0,0,-30.699491,-181.7519,62.559549)">
        <path
           d="M -0.33264387,-0.04182652 H 13.517749 V 13.808566 H -0.33264387 Z"
           id="path1592"
           style="stroke-width:0.0325738" />
      </g>
    </clipPath>
    <clipPath
       clipPathUnits="userSpaceOnUse"
       id="clipPath1608">
      <g
         id="g1612"
         transform="matrix(30.699491,0,0,-30.699491,-119.767,88.567847)">
        <path
           d="M -0.33264387,-0.04182652 H 13.517749 V 13.808566 H -0.33264387 Z"
           id="path1610"
           style="stroke-width:0.0325738" />
      </g>
    </clipPath>
    <clipPath
       clipPathUnits="userSpaceOnUse"
       id="clipPath1632">
      <g
         id="g1636">
        <path
           d="M -0.33264387,-0.04182652 H 13.517749 V 13.808566 H -0.33264387 Z"
           id="path1634"
           style="stroke-width:0.0325738" />
      </g>
    </clipPath>
    <clipPath
       clipPathUnits="userSpaceOnUse"
       id="clipPath1650">
      <g
         id="g1654"
         transform="matrix(30.699491,0,0,-30.699491,-204.8407,350.90135)">
        <path
           d="M -0.33264387,-0.04182652 H 13.517749 V 13.808566 H -0.33264387 Z"
           id="path1652"
           style="stroke-width:0.0325738" />
      </g>
    </clipPath>
    <clipPath
       clipPathUnits="userSpaceOnUse"
       id="clipPath1722">
      <g
         id="g1726"
         transform="matrix(30.699491,0,0,-30.699491,-203.227,10.890547)">
        <path
           d="M -0.33264387,-0.04182652 H 13.517749 V 13.808566 H -0.33264387 Z"
           id="path1724"
           style="stroke-width:0.0325738" />
      </g>
    </clipPath>
    <clipPath
       clipPathUnits="userSpaceOnUse"
       id="clipPath2417">
      <g
         id="g2423">
        <g
           id="g2421"
           transform="translate(-12.22999,-0.57742358)">
          <path
             d="M -0.33264387,-0.04182652 H 13.517749 V 13.808566 H -0.33264387 Z"
             id="path2419"
             style="stroke-width:0.0325738" />
        </g>
      </g>
    </clipPath>
    <clipPath
       clipPathUnits="userSpaceOnUse"
       id="clipPath2432">
      <g
         id="g2438">
        <g
           id="g2436"
           transform="translate(-12.22999,-0.57742357)">
          <path
             d="M -0.33264387,-0.04182652 H 13.517749 V 13.808566 H -0.33264387 Z"
             id="path2434"
             style="stroke-width:0.0325738" />
        </g>
      </g>
    </clipPath>
    <clipPath
       clipPathUnits="userSpaceOnUse"
       id="clipPath2447">
      <g
         id="g2453">
        <g
           id="g2451"
           transform="translate(-12.229991,-0.5774235)">
          <path
             d="M -0.33264387,-0.04182652 H 13.517749 V 13.808566 H -0.33264387 Z"
             id="path2449"
             style="stroke-width:0.0325738" />
        </g>
      </g>
    </clipPath>
    <clipPath
       clipPathUnits="userSpaceOnUse"
       id="clipPath2462">
      <g
         id="g2468">
        <g
           id="g2466"
           transform="translate(-12.229991,-0.57742298)">
          <path
             d="M -0.33264387,-0.04182652 H 13.517749 V 13.808566 H -0.33264387 Z"
             id="path2464"
             style="stroke-width:0.0325738" />
        </g>
      </g>
    </clipPath>
    <clipPath
       clipPathUnits="userSpaceOnUse"
       id="clipPath2477">
      <g
         id="g2483">
        <g
           id="g2481"
           transform="translate(-12.229991,-0.57742362)">
          <path
             d="M -0.33264387,-0.04182652 H 13.517749 V 13.808566 H -0.33264387 Z"
             id="path2479"
             style="stroke-width:0.0325738" />
        </g>
      </g>
    </clipPath>
    <clipPath
       clipPathUnits="userSpaceOnUse"
       id="clipPath2492">
      <g
         id="g2498">
        <g
           id="g2496"
           transform="translate(-12.22999,-0.5774236)">
          <path
             d="M -0.33264387,-0.04182652 H 13.517749 V 13.808566 H -0.33264387 Z"
             id="path2494"
             style="stroke-width:0.0325738" />
        </g>
      </g>
    </clipPath>
    <clipPath
       clipPathUnits="userSpaceOnUse"
       id="clipPath2507">
      <g
         id="g2513">
        <g
           id="g2511"
           transform="translate(-12.22999,-0.57742364)">
          <path
             d="M -0.33264387,-0.04182652 H 13.517749 V 13.808566 H -0.33264387 Z"
             id="path2509"
             style="stroke-width:0.0325738" />
        </g>
      </g>
    </clipPath>
    <clipPath
       clipPathUnits="userSpaceOnUse"
       id="clipPath2522">
      <g
         id="g2528">
        <g
           id="g2526"
           transform="translate(-12.22999,-0.57742285)">
          <path
             d="M -0.33264387,-0.04182652 H 13.517749 V 13.808566 H -0.33264387 Z"
             id="path2524"
             style="stroke-width:0.0325738" />
        </g>
      </g>
    </clipPath>
    <clipPath
       clipPathUnits="userSpaceOnUse"
       id="clipPath2537">
      <g
         id="g2543">
        <g
           id="g2541"
           transform="translate(-12.22999,-0.57742361)">
          <path
             d="M -0.33264387,-0.04182652 H 13.517749 V 13.808566 H -0.33264387 Z"
             id="path2539"
             style="stroke-width:0.0325738" />
        </g>
      </g>
    </clipPath>
    <clipPath
       clipPathUnits="userSpaceOnUse"
       id="clipPath2552">
      <g
         id="g2558">
        <g
           id="g2556"
           transform="translate(-12.229991,-0.57742362)">
          <path
             d="M -0.33264387,-0.04182652 H 13.517749 V 13.808566 H -0.33264387 Z"
             id="path2554"
             style="stroke-width:0.0325738" />
        </g>
      </g>
    </clipPath>
    <clipPath
       clipPathUnits="userSpaceOnUse"
       id="clipPath2567">
      <g
         id="g2573">
        <g
           id="g2571"
           transform="translate(-12.22999,-0.57742351)">
          <path
             d="M -0.33264387,-0.04182652 H 13.517749 V 13.808566 H -0.33264387 Z"
             id="path2569"
             style="stroke-width:0.0325738" />
        </g>
      </g>
    </clipPath>
    <clipPath
       clipPathUnits="userSpaceOnUse"
       id="clipPath2582">
      <path
         d="m -5.7473876,6.6145833 c 0,0 0.2159971,0.4442746 0.2412743,0.6849952 0.023127,0.2228048 -0.2173978,0.6850602 -0.2173978,0.6850602 0,0 0.1178848,-0.4307239 0.1015325,-0.6599785 -0.014399,-0.201176 -0.2013712,-0.6078601 -0.2013712,-0.6078601 z"
         style="fill:#231f20;fill-opacity:1;fill-rule:nonzero;stroke:none;stroke-width:0.0325739"
         id="path2584" />
    </clipPath>
    <clipPath
       clipPathUnits="userSpaceOnUse"
       id="clipPath2593">
      <g
         id="g2599">
        <g
           id="g2597"
           transform="translate(-12.22999,-0.57742349)">
          <path
             d="M -0.33264387,-0.04182652 H 13.517749 V 13.808566 H -0.33264387 Z"
             id="path2595"
             style="stroke-width:0.0325738" />
        </g>
      </g>
    </clipPath>
    <clipPath
       clipPathUnits="userSpaceOnUse"
       id="clipPath2608">
      <g
         id="g2614">
        <g
           id="g2612"
           transform="translate(-12.22999,-0.57742351)">
          <path
             d="M -0.33264387,-0.04182652 H 13.517749 V 13.808566 H -0.33264387 Z"
             id="path2610"
             style="stroke-width:0.0325738" />
        </g>
      </g>
    </clipPath>
    <clipPath
       clipPathUnits="userSpaceOnUse"
       id="clipPath2623">
      <g
         id="g2629">
        <g
           id="g2627"
           transform="translate(-12.22999,-0.57742361)">
          <path
             d="M -0.33264387,-0.04182652 H 13.517749 V 13.808566 H -0.33264387 Z"
             id="path2625"
             style="stroke-width:0.0325738" />
        </g>
      </g>
    </clipPath>
    <clipPath
       clipPathUnits="userSpaceOnUse"
       id="clipPath2638">
      <g
         id="g2644">
        <g
           id="g2642"
           transform="translate(-12.22999,-0.57742362)">
          <path
             d="M -0.33264387,-0.04182652 H 13.517749 V 13.808566 H -0.33264387 Z"
             id="path2640"
             style="stroke-width:0.0325738" />
        </g>
      </g>
    </clipPath>
    <clipPath
       clipPathUnits="userSpaceOnUse"
       id="clipPath2653">
      <g
         id="g2659">
        <g
           id="g2657"
           transform="translate(-12.22999,-0.57742355)">
          <path
             d="M -0.33264387,-0.04182652 H 13.517749 V 13.808566 H -0.33264387 Z"
             id="path2655"
             style="stroke-width:0.0325738" />
        </g>
      </g>
    </clipPath>
    <clipPath
       clipPathUnits="userSpaceOnUse"
       id="clipPath2668">
      <g
         id="g2674">
        <g
           id="g2672"
           transform="translate(-12.22999,-0.57742362)">
          <path
             d="M -0.33264387,-0.04182652 H 13.517749 V 13.808566 H -0.33264387 Z"
             id="path2670"
             style="stroke-width:0.0325738" />
        </g>
      </g>
    </clipPath>
    <clipPath
       clipPathUnits="userSpaceOnUse"
       id="clipPath2683">
      <g
         id="g2689">
        <g
           id="g2687"
           transform="translate(-12.22999,-0.57742361)">
          <path
             d="M -0.33264387,-0.04182652 H 13.517749 V 13.808566 H -0.33264387 Z"
             id="path2685"
             style="stroke-width:0.0325738" />
        </g>
      </g>
    </clipPath>
    <clipPath
       clipPathUnits="userSpaceOnUse"
       id="clipPath2698">
      <g
         id="g2704">
        <g
           id="g2702"
           transform="translate(-12.22999,-0.5774235)">
          <path
             d="M -0.33264387,-0.04182652 H 13.517749 V 13.808566 H -0.33264387 Z"
             id="path2700"
             style="stroke-width:0.0325738" />
        </g>
      </g>
    </clipPath>
    <clipPath
       clipPathUnits="userSpaceOnUse"
       id="clipPath2713">
      <g
         id="g2719">
        <g
           id="g2717"
           transform="translate(-12.22999,-0.57742363)">
          <path
             d="M -0.33264387,-0.04182652 H 13.517749 V 13.808566 H -0.33264387 Z"
             id="path2715"
             style="stroke-width:0.0325738" />
        </g>
      </g>
    </clipPath>
    <clipPath
       clipPathUnits="userSpaceOnUse"
       id="clipPath2728">
      <g
         id="g2734">
        <g
           id="g2732"
           transform="translate(-12.22999,-0.57742349)">
          <path
             d="M -0.33264387,-0.04182652 H 13.517749 V 13.808566 H -0.33264387 Z"
             id="path2730"
             style="stroke-width:0.0325738" />
        </g>
      </g>
    </clipPath>
    <clipPath
       clipPathUnits="userSpaceOnUse"
       id="clipPath2743">
      <g
         id="g2749">
        <g
           id="g2747"
           transform="translate(-12.22999,-0.57742359)">
          <path
             d="M -0.33264387,-0.04182652 H 13.517749 V 13.808566 H -0.33264387 Z"
             id="path2745"
             style="stroke-width:0.0325738" />
        </g>
      </g>
    </clipPath>
    <clipPath
       clipPathUnits="userSpaceOnUse"
       id="clipPath2758">
      <g
         id="g2764">
        <g
           id="g2762"
           transform="translate(-12.22999,-0.57742321)">
          <path
             d="M -0.33264387,-0.04182652 H 13.517749 V 13.808566 H -0.33264387 Z"
             id="path2760"
             style="stroke-width:0.0325738" />
        </g>
      </g>
    </clipPath>
    <clipPath
       clipPathUnits="userSpaceOnUse"
       id="clipPath2773">
      <g
         id="g2779">
        <g
           id="g2777"
           transform="translate(-12.22999,-0.57742351)">
          <path
             d="M -0.33264387,-0.04182652 H 13.517749 V 13.808566 H -0.33264387 Z"
             id="path2775"
             style="stroke-width:0.0325738" />
        </g>
      </g>
    </clipPath>
    <clipPath
       clipPathUnits="userSpaceOnUse"
       id="clipPath2788">
      <g
         id="g2794">
        <g
           id="g2792"
           transform="translate(-12.22999,-0.57742359)">
          <path
             d="M -0.33264387,-0.04182652 H 13.517749 V 13.808566 H -0.33264387 Z"
             id="path2790"
             style="stroke-width:0.0325738" />
        </g>
      </g>
    </clipPath>
    <clipPath
       clipPathUnits="userSpaceOnUse"
       id="clipPath2803">
      <path
         d="m -5.3913656,8.37214 c 0.00958,0.00665 0.019741,0.014171 0.030326,0.022868 l 0.013192,0.010911 0.017656,-0.00785 c 0.4065866,-0.1835211 0.4235575,-0.548804 0.3975635,-0.7503382 -0.00707,-0.054659 -0.01873,-0.1100344 -0.034724,-0.164791 -0.014333,-0.050978 -0.032932,-0.1023146 -0.055278,-0.1525434 l -0.013192,-0.018796 0.00257,-0.00521 C -5.0878457,7.1881135 -5.1550456,7.0806524 -5.2257306,6.9670999 -5.2506809,6.9247538 -5.2751778,6.8848838 -5.2990218,6.8461533 -5.4180139,6.6545214 -5.5411431,6.4558862 -5.5961603,6.0568242 l -1.955e-4,-0.00332 c -2.278e-4,-0.00153 -2.278e-4,-0.00329 -2.278e-4,-0.00469 -7.938e-4,0.00172 -0.00153,0.00316 -0.00185,0.00489 -0.042183,0.1091875 -0.1770062,0.4781513 -0.1350187,0.6389682 l -0.090034,0.024789 c -0.013094,-0.044561 -0.027395,-0.072542 -0.039903,-0.095474 -0.00853,-0.017232 -0.0157,-0.029772 -0.021987,-0.039317 -0.0041,0.019153 -0.00814,0.042281 -0.010782,0.057884 -0.031141,0.1873321 -0.1180801,0.3306895 -0.2018274,0.4694867 -0.044431,0.073421 -0.086451,0.142543 -0.1191551,0.2167461 -0.1361911,0.3052493 -0.1329663,0.6151568 0.00922,0.8291994 0.0329,0.049838 0.073324,0.09466 0.1207186,0.1334551 0.051239,0.042476 0.1095459,0.078568 0.1742051,0.1080148 l 0.018306,0.00847 0.014266,-0.011758 c 0.028698,-0.023355 0.061467,-0.043226 0.096679,-0.058763 l 0.00472,-0.00169 c 0.00201,-6.879e-4 0.00378,-0.00143 0.00622,-0.0023 0.00381,-0.00185 0.00785,-0.00332 0.011856,-0.00472 0.044333,-0.015441 0.091923,-0.023519 0.139872,-0.023519 0.068731,0 0.1368428,0.016809 0.1970067,0.048796 l 0.00622,0.00368 c 0.00893,0.00521 0.017981,0.010814 0.026483,0.016515 m 0.029088,0.1423475 -0.058731,-0.047753 c -0.00818,-0.00694 -0.015473,-0.012184 -0.022117,-0.016711 l -0.00204,-0.0014 c -0.00495,-0.00368 -0.012314,-0.00782 -0.019513,-0.01202 l -0.0044,-0.00262 c -0.078536,-0.04202 -0.1762244,-0.048763 -0.261796,-0.018796 -0.00293,0.00106 -0.00521,0.00193 -0.00687,0.00257 -0.00352,0.00164 -0.00684,0.0028 -0.010131,0.00388 -0.026873,0.011856 -0.051564,0.027167 -0.073552,0.045082 l -0.058991,0.0472 -0.074887,-0.033128 C -6.0260584,8.448441 -6.0905551,8.40844 -6.1463865,8.361566 -6.2009475,8.317038 -6.2479518,8.264854 -6.28577,8.2073943 -6.4456749,7.9664779 -6.4515706,7.6233779 -6.302709,7.2886168 c 0.035343,-0.079252 0.081011,-0.1541394 0.1246925,-0.2268443 0.07948,-0.1311097 0.1615662,-0.2669426 0.1895798,-0.4368151 0.013584,-0.07922 0.027362,-0.1609146 0.093748,-0.1609146 0.026808,0 0.049056,0.015375 0.069969,0.04176 0.025929,-0.1776577 0.099513,-0.383459 0.1388297,-0.4857083 0.028372,-0.073845 0.056939,-0.1228035 0.1037151,-0.1228035 0.067982,0 0.075115,0.095474 0.078796,0.1482437 0.052281,0.3784428 0.1648235,0.5597811 0.2833923,0.7515434 0.024397,0.039349 0.049317,0.079676 0.074008,0.1219562 0.067754,0.1079823 0.1378199,0.2208507 0.1947916,0.3420579 h 0.00159 l 0.00818,0.020751 0.00697,0.00697 v 0.00977 c 0.022998,0.052379 0.042118,0.1058974 0.056776,0.1589929 0.017232,0.05847 0.02987,0.1189921 0.037721,0.1781786 0.029447,0.2269093 0.00977,0.6390987 -0.4521247,0.8475713 z"
         style="fill:#231f20;fill-opacity:1;fill-rule:nonzero;stroke:none;stroke-width:0.0325739"
         id="path2805" />
    </clipPath>
    <clipPath
       clipPathUnits="userSpaceOnUse"
       id="clipPath2814">
      <g
         id="g2820">
        <g
           id="g2818"
           transform="translate(-12.22999,-0.57742305)">
          <path
             d="M -0.33264387,-0.04182652 H 13.517749 V 13.808566 H -0.33264387 Z"
             id="path2816"
             style="stroke-width:0.0325738" />
        </g>
      </g>
    </clipPath>
    <clipPath
       clipPathUnits="userSpaceOnUse"
       id="clipPath148-3">
      <path
         d="M 0,425.2 H 425.2 V 0 H 0 Z"
         id="path146-6" />
    </clipPath>
  </defs>
  <g
     inkscape:label="Layer 1"
     inkscape:groupmode="layer"
     id="layer1">
    <g
       id="g142"
       transform="matrix(0.03257383,0,0,-0.03257383,-0.33264387,13.808566)">
      <g
         id="g144"
         clip-path="url(#clipPath148-3)">
        <g
           id="g150"
           transform="translate(213.439,413.0254)">
          <path
             d="m 0,0 c 94.286,-26.319 138.315,-59.022 188.719,-137.112 4.087,-97.823 -13.396,-149.782 -72.088,-221.846 -91.763,-34.136 -146.602,-33.554 -233.28,0 -60.816,76.718 -77.22,129.062 -72.077,221.846 C -134.564,-55.567 -89.855,-23.785 0,0"
             style="fill:#0090d4;fill-opacity:1;fill-rule:evenodd;stroke:#ffffff;stroke-width:2.438;stroke-linecap:butt;stroke-linejoin:miter;stroke-miterlimit:10;stroke-dasharray:none;stroke-opacity:1"
             id="path152" />
        </g>
        <g
           id="g154"
           transform="translate(81.8921,257.1455)">
          <path
             d="m 0,0 -4.209,-6.043 -8.235,-12.422 -5.481,-15.908 -2.914,-6.759 0.542,-11.16 4.576,-7.668 1.631,-8.949 2.208,-6.233 4.926,-9.136 -0.365,-4.754 1.117,-4.941 3.829,-6.951 3.654,-4.566 1.09,-5.491"
             style="fill:none;stroke:#231f20;stroke-width:0.248;stroke-linecap:butt;stroke-linejoin:miter;stroke-miterlimit:2.613;stroke-dasharray:none;stroke-opacity:1"
             id="path156" />
        </g>
        <g
           id="g158"
           transform="translate(213.439,105.167)">
          <path
             d="m 0,0 c -7.85,2.106 -15.76,5.854 -22.744,10.981 -1.436,1.07 -2.865,2.205 -4.23,3.408 -0.522,0.454 -1.05,0.933 -1.57,1.404 -9.042,-3.667 -22.054,-7.849 -35.33,-10.201 -11.11,-1.957 -22.464,-2.673 -31.97,-0.706 -9.881,2.01 -17.781,6.839 -21.502,15.945 -0.619,1.545 -1.137,3.246 -1.495,5.037 -0.014,0 -0.014,0 -0.014,0.011 -7.619,5.049 -11.366,11.181 -12.598,16.111 -0.265,1.055 -0.422,2.07 -0.475,2.97 -0.037,0.534 -0.037,1.029 0,1.549 -5.224,5.195 -8.422,10.565 -8.838,15.582 -0.087,1.057 -0.043,2.121 0.149,3.22 0.107,0.614 0.236,1.208 0.417,1.786 h -0.01 l -0.015,0.019 0.042,0.022 c -2.625,3.111 -4.713,6.257 -6.112,9.924 -1.486,3.831 -2.21,8.126 -2.001,13.364 -9.334,8.565 -8.171,22.009 -2.448,33.382 6.678,13.313 15.623,25.938 19.518,37.104 2.169,6.213 3.864,2.348 3.864,0.412 -0.02,-9.293 -1.507,-19.261 -3.372,-28.191 -0.204,-0.931 -0.411,-1.888 -1.027,-4.941 -0.941,-4.593 -0.93,-8.865 0.357,-11.994 0.535,-1.261 1.274,-2.342 2.273,-3.185 0.994,-0.825 2.251,-1.429 3.819,-1.751 3.62,-0.71 8.715,0.064 15.645,2.974 16.845,7.064 33.142,13.305 44.755,14.086 12.956,0.883 20.502,-4.317 17.999,-20.763 -0.341,-2.257 -0.719,-4.606 -1.064,-6.669 -0.93,-5.538 -1.432,-8.623 -1.068,-11.605 0.261,-2.219 0.85,-4.769 2.434,-7.352 1.32,-2.158 3.368,-4.382 6.474,-6.545 0.15,0.45 0.31,0.899 0.485,1.316 -0.907,9.379 0.016,18.747 3.981,27.566 0.716,1.56 1.506,3.111 2.421,4.636 l -18.144,88.32 c -1.255,6.074 -2.636,9.853 -5.059,11.666 -3.191,2.37 -8.485,1.691 -12.13,1.087 -3.118,-0.518 -3.118,1.299 -0.916,2.567 3.385,1.909 7.519,4.651 11.199,7.101 6.646,4.436 13.366,8.371 20.805,2.738 0.935,6.345 5.94,9.645 10.671,12.922 1.349,1.023 4.749,2.954 6.574,5.568 1.706,2.459 3.701,3.342 4.036,0.448 0.081,-0.769 0.37,-2.298 0.621,-3.956 3.413,3.694 8.503,5.797 11.832,9.363 1.905,2.025 1.957,3.929 3.761,4.031 1.77,-0.102 1.845,-2.006 3.73,-4.031 3.344,-3.566 8.434,-5.669 11.839,-9.363 0.248,1.658 0.535,3.187 0.623,3.956 0.341,2.894 2.324,2.011 4.036,-0.448 1.83,-2.614 5.214,-4.545 6.578,-5.568 4.697,-3.277 9.726,-6.577 10.66,-12.922 7.454,5.633 14.165,1.698 20.808,-2.738 3.694,-2.45 7.828,-5.192 11.208,-7.101 2.208,-1.268 2.192,-3.085 -0.932,-2.567 -3.626,0.604 -8.929,1.283 -12.133,-1.087 -2.405,-1.813 -3.795,-5.592 -5.037,-11.666 l -18.143,-88.32 c 0.883,-1.525 1.707,-3.076 2.406,-4.636 3.957,-8.819 4.904,-18.187 3.984,-27.566 0.181,-0.417 0.338,-0.866 0.482,-1.316 3.122,2.163 5.161,4.387 6.48,6.545 1.584,2.583 2.177,5.133 2.435,7.352 0.357,2.982 -0.14,6.067 -1.06,11.605 -0.342,2.063 -0.744,4.412 -1.075,6.669 -2.509,16.446 5.046,21.646 18,20.763 11.634,-0.781 27.906,-7.022 44.777,-14.086 6.897,-2.91 12.008,-3.684 15.629,-2.974 1.561,0.322 2.813,0.926 3.813,1.751 1.01,0.843 1.75,1.924 2.267,3.185 1.299,3.129 1.317,7.401 0.378,11.994 -0.629,3.053 -0.822,4.01 -1.037,4.941 -1.86,8.93 -3.367,18.898 -3.367,28.191 0,1.936 1.701,5.801 3.859,-0.412 3.888,-11.166 12.836,-23.791 19.498,-37.104 5.732,-11.373 6.908,-24.817 -2.446,-33.382 0.229,-5.238 -0.502,-9.533 -1.997,-13.364 -1.382,-3.667 -3.487,-6.813 -6.092,-9.924 l 0.033,-0.022 -0.017,-0.019 h -0.016 c 0.175,-0.578 0.316,-1.172 0.44,-1.786 0.175,-1.099 0.214,-2.163 0.138,-3.22 -0.411,-5.017 -3.621,-10.387 -8.855,-15.582 0.031,-0.52 0.031,-1.015 0,-1.549 -0.044,-0.9 -0.207,-1.915 -0.472,-2.97 -1.224,-4.93 -4.965,-11.062 -12.597,-16.111 0,-0.011 0,-0.011 -0.004,-0.011 -0.364,-1.791 -0.874,-3.492 -1.509,-5.037 C 113.611,11.725 105.708,6.896 95.823,4.886 86.303,2.919 74.962,3.635 63.85,5.592 50.583,7.944 37.58,12.126 28.532,15.793 28.006,15.322 27.485,14.843 26.959,14.389 25.558,13.186 24.159,12.051 22.725,10.981 15.741,5.854 7.816,2.106 0,0"
             style="fill:#231f20;fill-opacity:1;fill-rule:evenodd;stroke:none"
             id="path160" />
        </g>
        <g
           id="g162"
           transform="translate(208.6143,245.2739)">
          <path
             d="m 0,0 c 1.717,-2.183 3.483,-4.408 4.825,-7.128 1.316,2.72 3.095,4.945 4.796,7.128 2.685,3.39 5.262,6.642 5.38,11.523 0.117,5.042 -2.836,9.181 -5.803,13.304 C 7.621,27.04 6.04,29.244 4.825,31.66 3.589,29.244 2,27.04 0.429,24.827 -2.54,20.704 -5.491,16.565 -5.361,11.523 -5.255,6.642 -2.678,3.39 0,0"
             style="fill:#ffffff;fill-opacity:1;fill-rule:evenodd;stroke:none"
             id="path164" />
        </g>
        <g
           id="g166"
           transform="translate(96.7256,134.5635)">
          <path
             d="m 0,0 c 4.16,-1.794 7.972,-2.726 11.779,-3.15 3.449,-0.378 6.989,-0.325 10.817,-0.179 2.628,0.127 2.909,-4.156 -0.074,-4.279 -3.861,-0.2 -7.519,-0.2 -11.219,0.21 -2.8,0.293 -5.609,0.849 -8.512,1.769 0.166,-0.524 0.352,-1.02 0.549,-1.525 3.081,-7.583 9.868,-11.645 18.408,-13.384 8.903,-1.821 19.707,-1.146 30.381,0.739 11.127,1.969 22.032,5.245 30.485,8.389 C 69.995,-9.096 60.22,-4.796 53.478,1.783 45.874,9.197 42.231,19.39 42.995,32.727 c 0.488,8.705 3.117,17.634 5.574,25.954 1.703,5.802 3.321,11.316 4.01,16.112 1.266,8.871 -0.937,15.448 -12.957,17.271 C 30.396,89.552 19.689,85.29 8.673,80.669 0.897,77.396 -5.06,76.562 -9.459,77.466 c -2.296,0.454 -4.2,1.358 -5.713,2.656 -1.529,1.275 -2.679,2.911 -3.453,4.809 -1.673,3.989 -1.733,9.111 -0.631,14.485 0.079,0.348 0.569,2.684 1.043,4.957 1.046,5.022 2.025,9.7 2.807,14.662 -1.957,-3.872 -4.209,-7.779 -6.454,-11.689 -6.983,-12.171 -13.991,-24.398 -11.605,-34.73 2.978,-12.968 18.197,-15.929 29.299,-17.529 4.795,-0.689 4.233,-4.949 -1.007,-4.116 -6.133,0.983 -13.201,2.548 -18.812,4.983 -1.142,0.525 -2.255,1.074 -3.313,1.669 0.148,-3.271 0.737,-6.087 1.711,-8.62 4.765,-12.363 14.1,-13.741 26.002,-14.956 5.505,-0.583 5.283,-4.805 -0.267,-4.287 -5.967,0.511 -12.573,1.608 -17.511,3.678 -0.85,0.358 -1.647,0.751 -2.37,1.134 -1.18,-6.622 4.096,-12.812 10.395,-15.861 6.487,-3.146 14.08,-3.053 19.185,-2.653 3.802,0.284 3.851,-4.267 0.07,-4.297 -4.052,-0.024 -8.486,0.03 -12.667,0.609 -2.871,0.385 -5.603,1.027 -8.024,1.998 0.04,-0.304 0.117,-0.602 0.201,-0.933 C -9.573,9.396 -6.434,4.343 0,0"
             style="fill:#ffffff;fill-opacity:1;fill-rule:evenodd;stroke:none"
             id="path168" />
        </g>
        <g
           id="g170"
           transform="translate(200.2949,228.3662)">
          <path
             d="m 0,0 c -9.31,-6.214 -15.214,-13.321 -18.634,-20.904 -2.605,-5.811 -3.776,-11.959 -3.896,-18.2 2.392,3.597 5.255,6.861 8.178,10.186 6.395,7.277 12.934,14.753 14.127,26.147 C -0.134,-1.861 -0.063,-0.958 0,0"
             style="fill:#ffffff;fill-opacity:1;fill-rule:evenodd;stroke:none"
             id="path172" />
        </g>
        <g
           id="g174"
           transform="translate(132.7539,98.4893)">
          <path
             d="M 0,0 C 0.022,0.119 0.005,0.013 0,0"
             style="fill:#ffffff;fill-opacity:1;fill-rule:evenodd;stroke:none"
             id="path176" />
        </g>
        <g
           id="g178"
           transform="translate(330.1348,134.5635)">
          <path
             d="m 0,0 c -4.165,-1.794 -7.982,-2.726 -11.778,-3.15 -3.456,-0.378 -7,-0.325 -10.828,-0.179 -2.63,0.127 -2.9,-4.156 0.07,-4.279 3.887,-0.2 7.513,-0.2 11.232,0.21 2.815,0.293 5.606,0.849 8.512,1.769 -0.159,-0.524 -0.335,-1.02 -0.55,-1.525 -3.096,-7.583 -9.869,-11.645 -18.41,-13.384 -8.908,-1.821 -19.699,-1.146 -30.367,0.739 -11.132,1.969 -22.045,5.245 -30.481,8.389 12.589,2.314 22.402,6.614 29.118,13.193 7.626,7.414 11.241,17.607 10.484,30.944 -0.494,8.705 -3.121,17.634 -5.582,25.954 -1.688,5.802 -3.324,11.316 -4.005,16.112 -1.255,8.871 0.941,15.448 12.964,17.271 9.207,-2.512 19.938,-6.774 30.938,-11.395 7.785,-3.273 13.731,-4.107 18.139,-3.203 2.309,0.454 4.189,1.358 5.726,2.656 1.523,1.275 2.668,2.911 3.449,4.809 1.664,3.989 1.726,9.111 0.636,14.485 -0.075,0.348 -0.566,2.684 -1.038,4.957 -1.07,5.022 -2.037,9.7 -2.824,14.662 1.958,-3.872 4.199,-7.779 6.435,-11.689 C 28.842,95.175 35.838,82.948 33.466,72.616 30.48,59.648 15.256,56.687 4.166,55.087 c -4.808,-0.689 -4.245,-4.949 0.99,-4.116 6.148,0.983 13.235,2.548 18.838,4.983 1.145,0.525 2.257,1.074 3.284,1.669 -0.125,-3.271 -0.716,-6.087 -1.685,-8.62 C 20.824,36.64 11.471,35.262 -0.432,34.047 -5.923,33.464 -5.71,29.242 -0.144,29.76 c 5.963,0.511 12.555,1.608 17.507,3.678 0.84,0.358 1.636,0.751 2.39,1.134 C 20.914,27.95 15.636,21.76 9.338,18.711 2.862,15.565 -4.751,15.658 -9.854,16.058 c -3.781,0.284 -3.839,-4.267 -0.07,-4.297 4.07,-0.024 8.487,0.03 12.674,0.609 2.883,0.385 5.598,1.027 8.021,1.998 C 10.73,14.064 10.654,13.766 10.579,13.435 9.573,9.396 6.424,4.343 0,0"
             style="fill:#ffffff;fill-opacity:1;fill-rule:evenodd;stroke:none"
             id="path180" />
        </g>
        <g
           id="g182"
           transform="translate(226.5664,228.3662)">
          <path
             d="m 0,0 c 9.318,-6.214 15.2,-13.321 18.613,-20.904 2.637,-5.811 3.796,-11.959 3.915,-18.2 -2.396,3.597 -5.279,6.861 -8.171,10.186 C 7.956,-21.641 1.411,-14.165 0.219,-2.771 0.127,-1.861 0.052,-0.958 0,0"
             style="fill:#ffffff;fill-opacity:1;fill-rule:evenodd;stroke:none"
             id="path184" />
        </g>
        <g
           id="g186"
           transform="translate(213.439,140.9805)">
          <path
             d="M 0,0 C -1.108,0 -1.279,-1.797 -1.845,-3.421 -2.349,-4.897 -2.962,-6.239 -3.734,-7.603 -4.129,-8.324 -4.523,-9.041 -4.855,-9.78 H -4.862 C -8.111,-17.034 -4.604,-21.967 0,-26.71 4.759,-21.737 8.092,-17.034 4.829,-9.78 4.516,-9.041 4.102,-8.324 3.715,-7.603 2.944,-6.239 2.319,-4.897 1.828,-3.421 1.25,-1.797 1.083,0 0,0"
             style="fill:#ffffff;fill-opacity:1;fill-rule:evenodd;stroke:none"
             id="path188" />
        </g>
        <g
           id="g190"
           transform="translate(222.0361,241.6855)">
          <path
             d="m 0,0 c -0.138,-0.16 -0.289,-0.347 -0.438,-0.519 -2.332,-2.951 -4.738,-6.022 -5.716,-10.314 -1.084,-4.797 -3.786,-5.207 -4.872,-0.206 -0.813,3.889 -2.838,6.773 -4.936,9.456 V -1.69 c -0.389,0.529 -0.834,1.074 -1.24,1.626 0,-5.225 -0.031,-11.892 -0.504,-16.429 -1.352,-12.771 -8.344,-20.778 -15.195,-28.578 -5.379,-6.117 -10.613,-12.108 -12.466,-20.094 l -0.66,-2.847 -2.5,1.465 c -5.203,3.027 -8.372,6.293 -10.33,9.497 -1.994,3.258 -2.733,6.369 -3.059,9.074 -0.419,3.537 0.118,6.839 1.129,12.802 0.268,1.726 0.593,3.711 1.032,6.604 1.931,12.533 -3.752,16.511 -13.49,15.858 -1.15,-0.072 -2.348,-0.207 -3.589,-0.4 8.151,-3.732 9.615,-10.849 8.314,-19.773 -0.706,-5.107 -2.372,-10.768 -4.122,-16.747 -2.356,-8.055 -4.913,-16.679 -5.379,-24.972 -0.684,-12.043 2.493,-21.141 9.196,-27.673 6.809,-6.656 17.32,-10.784 31.16,-12.737 l 1.234,-0.632 h 0.018 0.01 c 1.161,-1.223 2.379,-2.382 3.652,-3.479 1.267,-1.099 2.587,-2.161 3.966,-3.182 4.588,-3.379 14.043,-10.401 19.582,-10.31 5.792,0.063 20.769,10.31 20.769,10.31 0,0 2.707,2.083 3.979,3.182 1.262,1.097 2.487,2.256 3.657,3.479 l 1.245,0.632 c 13.847,1.953 24.352,6.081 31.159,12.737 6.706,6.532 9.876,15.63 9.219,27.673 -0.492,8.293 -3.014,16.917 -5.407,24.972 -1.736,5.979 -3.404,11.64 -4.126,16.747 -1.279,8.924 0.181,16.041 8.33,19.773 -1.24,0.193 -2.439,0.328 -3.592,0.4 -9.733,0.653 -15.423,-3.325 -13.508,-15.858 0.448,-2.893 0.775,-4.878 1.063,-6.604 0.99,-5.963 1.54,-9.265 1.124,-12.802 -0.339,-2.705 -1.081,-5.816 -3.071,-9.074 -1.968,-3.204 -5.136,-6.47 -10.303,-9.497 l -2.523,-1.465 -0.667,2.847 c -1.841,7.986 -7.103,13.977 -12.46,20.094 -6.857,7.8 -13.883,15.807 -15.188,28.578 C 0.023,-11.935 -0.031,-5.236 0,0"
             style="fill:#ffffff;fill-opacity:1;fill-rule:evenodd;stroke:none"
             id="path192" />
        </g>
        <g
           id="g194"
           transform="translate(200.5464,247.749)">
          <path
             d="m 0,0 c -0.924,2.015 -1.536,4.293 -1.594,7.047 -0.15,6.455 3.223,11.177 6.6,15.893 3.052,4.268 5.527,6.972 6.481,13.105 0.491,3.076 2.164,2.58 2.621,-0.08 C 15.1,30.249 17.652,27.298 20.753,22.94 24.131,18.224 27.5,13.502 27.371,7.047 27.298,4.293 26.687,2.015 25.78,0 c 0.032,-4.503 -0.054,-10.37 0.032,-14.679 7.309,-4.453 12.838,-9.427 16.955,-14.74 l 0.087,0.396 17.225,83.836 c 1.471,7.131 3.235,11.675 6.679,14.23 1.342,1.005 2.888,1.658 4.675,1.999 -0.497,0.345 -1,0.676 -1.485,1.011 -5.445,3.658 -10.937,7.332 -16.678,3.684 -2.124,-1.356 -3.114,-2.366 -3.54,-4.762 l -8.476,-46.88 c -0.776,-3.536 -5.021,-2.86 -4.145,1.159 L 45.291,70.6 c 0.534,2.838 1.359,5.973 0.534,8.811 -1.254,4.189 -5.198,6.91 -8.774,9.389 -1.636,1.134 -3.224,2.215 -4.541,3.413 -0.16,-1.086 -0.324,-2.139 -0.454,-2.996 h 0.017 L 26.78,35.302 c -0.397,-3.326 -4.659,-2.962 -4.23,0.93 L 27.072,82.1 c 0.451,4.632 0.68,6.839 -2.786,10.14 -1.465,1.385 -3.175,2.716 -4.819,3.995 -1.729,1.309 -3.435,2.417 -4.783,3.748 -0.706,0.682 -1.322,1.428 -1.791,2.199 -0.503,-0.771 -1.101,-1.517 -1.808,-2.199 C 9.743,98.652 8.011,97.544 6.304,96.235 4.65,94.956 2.946,93.625 1.476,92.24 -1.988,88.939 -1.752,86.732 -1.312,82.1 L 3.22,36.232 c 0.427,-3.892 -3.839,-4.256 -4.231,-0.93 l -5.293,53.915 h 0.017 c -0.136,0.857 -0.302,1.91 -0.463,2.996 -1.331,-1.198 -2.901,-2.279 -4.561,-3.413 -3.55,-2.479 -7.513,-5.2 -8.727,-9.389 -0.833,-2.838 -0.015,-5.973 0.504,-8.811 l 8.188,-45.346 c 0.869,-4.019 -3.371,-4.695 -4.143,-1.159 l -8.477,46.88 c -0.424,2.396 -1.411,3.406 -3.539,4.762 -5.745,3.648 -11.22,-0.026 -16.665,-3.684 -0.501,-0.335 -0.999,-0.666 -1.501,-1.011 1.796,-0.341 3.333,-0.994 4.691,-1.999 3.415,-2.555 5.203,-7.099 6.678,-14.23 l 17.217,-83.836 0.096,-0.396 c 4.096,5.313 9.636,10.287 16.936,14.74 0.096,4.316 0,10.176 0.053,14.679"
             style="fill:#ffffff;fill-opacity:1;fill-rule:evenodd;stroke:none"
             id="path196" />
        </g>
        <g
           id="g198"
           transform="translate(215.0527,73.0146)">
          <path
             d="m 0,0 c 5.716,0.398 10.233,2.314 15.571,4.309 8.075,3.043 15.325,5.747 29.635,2.142 3.932,-0.982 8.122,-2.801 12.544,-4.699 9.269,-3.988 19.518,-8.418 31.463,-7.417 l 1.138,3.834 c -5.105,4.022 -6.769,11.603 -8.352,18.749 -0.401,1.881 -0.814,3.742 -1.314,5.688 0,-0.037 0,-0.037 0,0 l -0.396,1.493 -1.537,0.128 c -8.811,0.669 -14.793,3.309 -22.589,6.088 -3.368,1.184 -5.98,2.873 -10.198,4.2 C 34.454,38.099 22.62,34.625 12.864,32.152 7.715,30.831 3.482,27.419 -1.132,27.257 h -0.023 l -0.299,-0.003 -0.311,0.003 h -0.036 c -4.588,0.162 -5.926,3.574 -11.076,4.895 -9.751,2.473 -20.291,5.153 -31.788,1.56 -4.23,-1.325 -8.877,-4.069 -12.23,-5.262 -7.79,-2.789 -13.94,-4.587 -21.875,-4.223 l -1.529,-0.128 -0.394,-1.493 c 0,-0.037 0,-0.037 0.004,0 -0.513,-1.946 -0.921,-3.807 -1.326,-5.688 -1.583,-7.146 -3.253,-14.727 -8.359,-18.749 l 1.136,-3.834 c 11.955,-1.001 22.211,3.429 31.467,7.417 4.417,1.898 8.641,3.717 12.534,4.699 14.331,3.605 21.565,0.901 29.645,-2.142 C -10.268,2.314 -5.731,0.398 0,0"
             style="fill:#ffffff;fill-opacity:1;fill-rule:evenodd;stroke:none"
             id="path200" />
        </g>
        <g
           id="g202"
           transform="translate(247.7832,82.6221)">
          <path
             d="m 0,0 c 3.908,0 8.112,-0.576 12.829,-1.76 3.955,-1.005 8.105,-2.781 12.485,-4.663 l 0.337,-0.15 c 8.079,-3.47 17.223,-7.41 27.392,-7.41 0.783,0 1.569,0.027 2.355,0.068 l 0.583,1.986 c -4.915,4.432 -6.536,11.801 -8.111,18.933 -0.365,1.713 -0.786,3.648 -1.313,5.628 l -0.127,0.511 -0.525,0.053 c -7.698,0.578 -13.223,2.603 -19.607,4.952 -1.085,0.402 -2.198,0.806 -3.354,1.219 -1.518,0.53 -2.859,1.151 -4.276,1.797 -1.753,0.818 -3.567,1.652 -5.861,2.368 -3.194,1 -6.546,1.476 -10.249,1.476 -7.048,0 -14.054,-1.789 -20.232,-3.38 -0.624,-0.154 -1.227,-0.315 -1.833,-0.468 -2.052,-0.519 -4.01,-1.439 -5.896,-2.306 -2.81,-1.298 -5.461,-2.53 -8.411,-2.631 l -0.37,-0.011 -0.39,0.011 c -2.893,0.094 -4.706,1.32 -6.459,2.498 -1.369,0.929 -2.798,1.896 -4.933,2.443 -6.326,1.604 -12.848,3.252 -19.714,3.252 -3.98,0 -7.668,-0.546 -11.288,-1.68 -2.279,-0.71 -4.694,-1.868 -7.03,-2.984 -1.85,-0.88 -3.606,-1.711 -5.148,-2.256 -7.878,-2.823 -13.463,-4.353 -20.359,-4.353 -0.646,0 -1.306,0.01 -1.964,0.033 l -0.426,-0.033 -0.104,-0.385 -0.185,-1.192 h -0.119 c -0.335,-1.32 -0.618,-2.619 -0.897,-3.881 l -0.15,-0.681 c -1.576,-7.132 -3.193,-14.501 -8.108,-18.933 l 0.579,-1.986 c 0.779,-0.041 1.572,-0.068 2.352,-0.068 10.182,0 19.325,3.94 27.404,7.426 l 0.108,0.044 c 4.481,1.92 8.706,3.743 12.695,4.748 4.723,1.189 8.918,1.765 12.834,1.765 7.165,0 12.269,-1.926 17.672,-3.962 0.524,-0.192 1.053,-0.395 1.57,-0.594 4.622,-1.742 8.617,-3.253 13.513,-3.609 4.872,0.356 8.835,1.851 13.427,3.588 0.539,0.204 1.086,0.41 1.649,0.621 C -12.267,-1.926 -7.17,0 0,0 m 53.043,-16.854 c -10.757,0 -20.189,4.068 -28.526,7.652 l -0.331,0.148 c -4.279,1.834 -8.322,3.573 -12.057,4.513 -4.493,1.124 -8.454,1.68 -12.129,1.68 -6.651,0 -11.513,-1.84 -16.657,-3.775 -0.549,-0.208 -1.091,-0.422 -1.631,-0.62 -4.63,-1.754 -9.01,-3.405 -14.347,-3.769 l -0.096,-0.006 -0.107,0.006 c -5.362,0.364 -9.76,2.03 -14.42,3.795 -0.514,0.192 -1.037,0.386 -1.573,0.594 -5.149,1.935 -10.015,3.775 -16.655,3.775 -3.674,0 -7.637,-0.556 -12.135,-1.68 -3.763,-0.96 -7.893,-2.738 -12.259,-4.609 l -0.107,-0.047 c -8.332,-3.583 -17.765,-7.657 -28.54,-7.657 -1.174,0 -2.378,0.057 -3.556,0.149 l -0.978,0.086 -1.689,5.705 0.764,0.604 c 4.699,3.711 6.283,10.936 7.834,17.929 l 0.149,0.692 c 0.354,1.558 0.706,3.19 1.151,4.858 v 0.007 l 0.695,2.664 2.63,0.217 0.101,-0.003 c 0.642,-0.034 1.288,-0.044 1.921,-0.044 6.481,0 11.822,1.465 19.4,4.185 1.406,0.5 3.095,1.307 4.869,2.15 2.436,1.158 4.941,2.355 7.412,3.125 3.905,1.217 7.872,1.817 12.144,1.817 7.23,0 13.925,-1.697 20.41,-3.343 2.625,-0.673 4.337,-1.827 5.846,-2.845 1.602,-1.084 2.87,-1.934 4.913,-2.01 h 0.626 c 2.342,0.076 4.742,1.186 7.277,2.365 2.004,0.933 4.085,1.891 6.385,2.486 0.61,0.154 1.22,0.314 1.839,0.47 6.342,1.618 13.536,3.469 20.942,3.469 3.998,0 7.624,-0.528 11.099,-1.613 2.476,-0.776 4.375,-1.647 6.213,-2.499 1.355,-0.619 2.626,-1.212 4.032,-1.705 1.165,-0.416 2.288,-0.829 3.38,-1.223 6.193,-2.278 11.543,-4.235 18.854,-4.785 l 2.541,-0.214 0.704,-2.664 c 0.514,-1.969 0.932,-3.872 1.301,-5.568 1.534,-6.982 3.122,-14.207 7.827,-17.918 l 0.76,-0.604 -1.689,-5.705 -0.975,-0.086 c -1.18,-0.092 -2.374,-0.149 -3.562,-0.149"
             style="fill:#231f20;fill-opacity:1;fill-rule:nonzero;stroke:none"
             id="path204" />
        </g>
        <g
           id="g206"
           transform="translate(300.2715,79.9385)">
          <path
             d="M 0,0 C 0.301,-0.717 0.621,-1.443 0.999,-2.176 -7.686,-4.131 -17.378,-0.412 -26.275,3.597 -32.95,6.608 -39.629,9.623 -45.961,9.913 -53.184,10.218 -59.953,9.576 -66.556,7.982 -73.154,6.395 -79.61,3.908 -86.24,0.561 c -0.047,-0.027 -0.084,-0.049 -0.161,-0.07 0,-0.016 -0.016,-0.016 -0.026,-0.027 h -0.022 c 0,0 -0.004,-0.011 -0.015,-0.011 -0.004,-0.009 -0.032,-0.025 -0.048,-0.025 h -0.017 -0.015 -0.011 -0.02 V 0.409 h -0.028 V 0.405 h -0.022 -0.009 -0.028 -0.033 -0.014 c 0,0 0,-0.009 -0.017,-0.009 h -0.017 -0.042 l -0.012,-0.011 h -0.009 -0.049 -0.021 -0.007 -0.04 c -0.007,0.011 -0.014,0.011 -0.014,0.011 h -0.019 -0.028 -0.026 c -0.01,0 -0.01,0.009 -0.01,0.009 h -0.018 -0.008 -0.012 -0.006 -0.016 -0.02 -0.016 v 0.004 h -0.021 v 0.019 h -0.044 -0.005 -0.028 c 0,0 -0.032,0.016 -0.057,0.036 h -0.024 l -0.014,0.011 h -0.012 c 0,0 -0.014,0 -0.03,0.016 h -0.024 v 0.015 c -0.025,0.006 -0.052,0.028 -0.072,0.028 0,0 -0.011,0 -0.028,0.027 -6.629,3.347 -13.107,5.834 -19.708,7.421 -6.623,1.594 -13.365,2.236 -20.589,1.931 -6.389,-0.29 -12.458,-3.314 -18.453,-6.289 -7.873,-3.893 -16.394,-7.315 -25.03,-5.358 l 1.017,2.187 c 7.806,-1.767 15.464,1.576 22.965,5.315 6.213,3.092 12.53,6.203 19.391,6.525 7.441,0.351 14.405,-0.354 21.243,-1.979 6.631,-1.594 13.118,-4.085 19.784,-7.4 6.631,3.315 13.139,5.806 19.758,7.4 6.828,1.625 13.801,2.33 21.249,1.979 6.771,-0.322 13.664,-3.412 20.55,-6.525 C -16.773,1.938 -7.931,-1.783 0,0 m -86.956,0.396 h -0.028"
             style="fill:#231f20;fill-opacity:1;fill-rule:nonzero;stroke:none"
             id="path208" />
        </g>
        <path
           d="m 212.052,101.111 h 2.386 v -18.51 h -2.386 z"
           style="fill:#231f20;fill-opacity:1;fill-rule:nonzero;stroke:none"
           id="path210" />
        <g
           id="g212"
           transform="translate(87.0825,282.3555)">
          <path
             d="m 0,0 c -7.543,3.589 -11.324,5.39 -18.875,8.979 -1.412,-3.01 -2.09,-4.54 -3.391,-7.679 -1.573,0.653 -2.358,0.984 -3.929,1.638 3.569,8.613 5.583,12.692 9.999,20.392 1.469,-0.854 2.215,-1.282 3.684,-2.138 -1.609,-2.802 -2.389,-4.24 -3.882,-7.155 C -8.973,10.181 -5.267,8.251 2.155,4.406 1.268,2.663 0.83,1.787 0,0"
             style="fill:#231f20;fill-opacity:1;fill-rule:nonzero;stroke:none"
             id="path214" />
        </g>
        <g
           id="g216"
           transform="translate(72.7095,308.7925)">
          <path
             d="M 0,0 C 1.156,1.92 1.745,2.867 2.953,4.732 7.508,1.723 9.785,0.22 14.335,-2.785 c 1.804,-1.198 3.013,-1.925 3.605,-2.171 0.974,-0.396 1.937,-0.427 2.887,-0.129 0.954,0.31 1.797,1.01 2.567,2.114 0.769,1.117 1.135,2.111 1.066,3.031 -0.065,0.908 -0.391,1.684 -0.997,2.315 -0.608,0.631 -1.694,1.556 -3.277,2.758 -4.455,3.359 -6.674,5.043 -11.122,8.407 1.3,1.759 1.957,2.605 3.312,4.308 4.114,-3.328 6.173,-4.997 10.285,-8.341 2.348,-1.898 3.931,-3.346 4.738,-4.325 0.813,-0.99 1.354,-2.02 1.61,-3.091 0.257,-1.069 0.246,-2.208 -0.021,-3.423 -0.268,-1.214 -0.931,-2.543 -1.967,-4.043 -1.262,-1.799 -2.411,-3.051 -3.509,-3.716 -1.078,-0.666 -2.185,-1.063 -3.299,-1.176 -1.107,-0.1 -2.128,-0.005 -3.08,0.315 -1.385,0.476 -3.289,1.45 -5.695,2.922 C 6.866,-4.22 4.578,-2.811 0,0"
             style="fill:#231f20;fill-opacity:1;fill-rule:nonzero;stroke:none"
             id="path218" />
        </g>
        <g
           id="g220"
           transform="translate(111.0874,318.29)">
          <path
             d="m 0,0 c -6.127,5.714 -9.192,8.561 -15.325,14.276 -2.065,-2.245 -3.066,-3.396 -5.042,-5.764 -1.3,1.107 -1.951,1.659 -3.253,2.76 5.417,6.503 8.305,9.533 14.358,15.131 1.155,-1.255 1.733,-1.886 2.887,-3.137 C -8.573,21.234 -9.651,20.18 -11.769,18.024 -5.812,12.121 -2.844,9.171 3.103,3.268 1.844,1.983 1.223,1.332 0,0"
             style="fill:#231f20;fill-opacity:1;fill-rule:nonzero;stroke:none"
             id="path222" />
        </g>
        <g
           id="g224"
           transform="translate(129.979,335.3481)">
          <path
             d="m 0,0 c -7.698,6.849 -11.679,10.148 -19.924,16.468 1.658,1.326 2.487,1.989 4.171,3.258 5.411,-4.599 8.059,-6.968 13.229,-11.792 -2.696,6.598 -3.951,9.951 -6.306,16.726 2.023,1.368 3.038,2.031 5.103,3.306 C 1.53,22.929 4.076,20.352 9.025,15.078 6.642,21.846 5.528,25.265 3.434,32.172 c 1.796,0.985 2.7,1.46 4.511,2.396 C 10.443,24.511 11.838,19.539 15.005,9.737 13.405,8.844 12.609,8.385 11.036,7.427 5.636,12.982 2.861,15.689 -2.897,20.95 -0.395,13.581 0.948,9.94 3.855,2.764 2.294,1.688 1.519,1.145 0,0"
             style="fill:#231f20;fill-opacity:1;fill-rule:nonzero;stroke:none"
             id="path226" />
        </g>
        <g
           id="g228"
           transform="translate(140.209,371.0605)">
          <path
             d="m 0,0 c 1.812,0.899 2.73,1.338 4.57,2.171 2.306,-4.955 3.451,-7.431 5.74,-12.394 0.919,-1.964 1.556,-3.218 1.924,-3.749 0.599,-0.851 1.373,-1.417 2.277,-1.695 0.915,-0.284 1.932,-0.187 3.07,0.288 1.149,0.489 1.911,1.108 2.277,1.888 0.376,0.785 0.482,1.598 0.288,2.438 -0.196,0.851 -0.661,2.209 -1.395,4.066 -2.042,5.191 -3.051,7.774 -5.105,12.965 1.883,0.728 2.828,1.07 4.727,1.744 1.797,-4.989 2.695,-7.481 4.48,-12.453 1.029,-2.85 1.626,-4.904 1.829,-6.155 0.192,-1.251 0.143,-2.392 -0.155,-3.418 -0.288,-1.026 -0.833,-1.945 -1.62,-2.796 -0.793,-0.848 -1.952,-1.582 -3.496,-2.229 -1.875,-0.775 -3.386,-1.149 -4.574,-1.085 -1.191,0.062 -2.267,0.357 -3.218,0.887 -0.942,0.529 -1.732,1.187 -2.348,1.973 -0.903,1.16 -1.984,3.005 -3.255,5.529 C 3.613,-7.218 2.413,-4.804 0,0"
             style="fill:#231f20;fill-opacity:1;fill-rule:nonzero;stroke:none"
             id="path230" />
        </g>
        <g
           id="g232"
           transform="translate(171.4355,371.6699)">
          <path
             d="M 0,0 C 1.332,0.384 1.994,0.562 3.348,0.91 5.53,1.482 6.876,1.888 7.373,2.225 7.876,2.546 8.224,2.995 8.422,3.557 8.626,4.108 8.643,4.761 8.482,5.497 8.294,6.321 7.936,6.942 7.389,7.364 6.86,7.776 6.167,7.979 5.373,7.905 4.986,7.883 3.808,7.633 1.893,7.134 0.412,6.755 -0.326,6.555 -1.797,6.141 -1.078,3.684 -0.721,2.456 0,0 m -0.048,-15.174 c -3.101,9.586 -4.636,14.384 -7.748,23.965 4.03,1.274 6.057,1.846 10.163,2.861 2.585,0.637 4.521,0.835 5.794,0.637 1.271,-0.199 2.368,-0.797 3.287,-1.787 0.931,-1.005 1.53,-2.234 1.812,-3.699 0.36,-1.857 0.141,-3.481 -0.614,-4.889 -0.748,-1.395 -3.929,-3.206 -3.929,-3.206 0,-0.075 2.054,-0.927 2.844,-1.541 0.785,-0.614 1.91,-1.784 3.325,-3.501 1.429,-1.717 2.128,-2.583 3.497,-4.337 -2.009,-0.359 -3.009,-0.545 -5.003,-0.973 -1.663,1.887 -2.526,2.823 -4.296,4.657 C 7.528,-5.348 6.45,-4.341 5.9,-3.957 5.359,-3.565 4.818,-3.341 4.305,-3.283 3.78,-3.219 3.021,-3.32 2.01,-3.607 1.648,-3.7 1.476,-3.757 1.113,-3.858 c 1.171,-4.033 1.757,-6.05 2.929,-10.099 -1.641,-0.458 -2.46,-0.704 -4.09,-1.217"
             style="fill:#231f20;fill-opacity:1;fill-rule:nonzero;stroke:none"
             id="path234" />
        </g>
        <g
           id="g236"
           transform="translate(191.9639,361.3564)">
          <path
             d="m 0,0 c -1.653,9.928 -2.46,14.902 -4.117,24.823 1.985,0.32 2.979,0.457 4.955,0.725 C 2.198,15.576 2.86,10.588 4.209,0.613 2.519,0.389 1.668,0.272 0,0"
             style="fill:#231f20;fill-opacity:1;fill-rule:nonzero;stroke:none"
             id="path238" />
        </g>
        <g
           id="g240"
           transform="translate(208.3594,363.0464)">
          <path
             d="m 0,0 c -0.479,10.046 -0.707,15.075 -1.205,25.126 2.012,0.089 3.004,0.117 5.007,0.155 0.073,-3.956 0.116,-5.948 0.181,-9.892 3.694,0.064 5.543,0.036 9.223,-0.107 0.163,3.955 0.245,5.931 0.396,9.891 2.003,-0.09 3.005,-0.137 5.001,-0.277 -0.701,-10.025 -1.066,-15.051 -1.782,-25.083 -1.706,0.111 -2.55,0.16 -4.246,0.235 0.183,4.39 0.274,6.588 0.451,10.977 C 9.442,11.169 7.646,11.19 4.058,11.133 4.143,6.733 4.169,4.535 4.246,0.127 2.549,0.101 1.698,0.079 0,0"
             style="fill:#231f20;fill-opacity:1;fill-rule:nonzero;stroke:none"
             id="path242" />
        </g>
        <g
           id="g244"
           transform="translate(242.415,370.7632)">
          <path
             d="M 0,0 C -0.551,3.886 -0.866,5.838 -1.576,9.729 -3.449,6.239 -4.347,4.485 -6.069,0.945 -3.644,0.614 -2.428,0.426 0,0 m 5.887,-11.37 c -1.802,0.417 -2.716,0.616 -4.533,0.983 -0.251,2.386 -0.398,3.574 -0.717,5.957 -3.45,0.643 -5.181,0.92 -8.658,1.358 -1.017,-2.175 -1.525,-3.272 -2.475,-5.455 -1.791,0.212 -2.696,0.296 -4.493,0.446 4.144,9.754 6.518,14.566 11.781,23.988 2.102,-0.301 3.148,-0.465 5.24,-0.824 C 4.198,4.491 4.95,-0.813 5.887,-11.37"
             style="fill:#231f20;fill-opacity:1;fill-rule:nonzero;stroke:none"
             id="path246" />
        </g>
        <g
           id="g248"
           transform="translate(250.5303,358.8545)">
          <path
             d="m 0,0 c 2.526,9.748 3.792,14.635 6.291,24.376 1.897,-0.469 2.835,-0.719 4.715,-1.25 2.063,-7.568 2.877,-11.364 4.085,-18.904 2.255,6.338 3.389,9.509 5.648,15.845 1.763,-0.616 2.631,-0.93 4.391,-1.594 -3.645,-9.398 -5.467,-14.101 -9.125,-23.495 -1.599,0.604 -2.409,0.904 -4.02,1.46 C 10.948,3.753 10.226,7.431 8.387,14.763 6.572,8.454 5.649,5.294 3.842,-1.021 2.313,-0.59 1.547,-0.381 0,0"
             style="fill:#231f20;fill-opacity:1;fill-rule:nonzero;stroke:none"
             id="path250" />
        </g>
        <g
           id="g252"
           transform="translate(283.4512,369.4614)">
          <path
             d="m 0,0 c -2.799,-6.052 -4.194,-9.095 -7.002,-15.148 1.209,-0.551 1.803,-0.83 2.994,-1.401 1.112,-0.534 1.969,-0.861 2.524,-0.972 0.743,-0.134 1.433,-0.104 2.091,0.111 0.659,0.22 1.37,0.743 2.188,1.598 0.801,0.852 1.684,2.13 2.604,3.841 0.924,1.711 1.507,3.111 1.706,4.181 0.198,1.075 0.171,2.01 -0.066,2.802 C 6.774,-4.196 6.282,-3.501 5.555,-2.902 5.008,-2.453 3.831,-1.77 2.008,-0.92 1.213,-0.539 0.812,-0.357 0,0 M -2.852,5.9 C 0.548,4.488 2.244,3.717 5.577,2.102 7.447,1.194 8.8,0.321 9.623,-0.458 c 1.101,-1.065 1.84,-2.36 2.204,-3.818 0.361,-1.476 0.375,-3.043 0.029,-4.696 -0.346,-1.658 -1.117,-3.506 -2.314,-5.556 -1.047,-1.791 -2.149,-3.213 -3.293,-4.288 -1.411,-1.311 -2.834,-2.218 -4.284,-2.716 -1.083,-0.392 -2.297,-0.498 -3.652,-0.337 -1.01,0.129 -2.223,0.551 -3.664,1.256 -2.918,1.411 -4.389,2.081 -7.373,3.315 3.953,9.273 5.937,13.919 9.872,23.198"
             style="fill:#231f20;fill-opacity:1;fill-rule:nonzero;stroke:none"
             id="path254" />
        </g>
        <g
           id="g256"
           transform="translate(305.3301,344.0376)">
          <path
             d="M 0,0 C 1.178,3.775 1.743,5.683 2.787,9.523 -0.455,7.224 -2.041,6.041 -5.17,3.624 -3.085,2.222 -2.041,1.501 0,0 m 0.448,-13.017 c -1.475,1.232 -2.212,1.831 -3.731,3.001 0.796,2.273 1.181,3.417 1.933,5.726 -2.89,2.165 -4.355,3.199 -7.36,5.161 -1.873,-1.509 -2.812,-2.267 -4.657,-3.823 -1.546,0.994 -2.336,1.479 -3.915,2.416 C -9.239,6.421 -4.955,9.714 3.979,15.847 5.777,14.628 6.658,14.003 8.433,12.719 5.803,2.159 4.209,-3.005 0.448,-13.017"
             style="fill:#231f20;fill-opacity:1;fill-rule:nonzero;stroke:none"
             id="path258" />
        </g>
        <g
           id="g260"
           transform="translate(309.7939,327.5679)">
          <path
             d="m 0,0 c 2.831,3.169 4.246,4.751 7.07,7.924 1.31,6.672 1.814,10.078 2.508,16.998 1.903,-1.506 2.832,-2.281 4.683,-3.875 -0.741,-4.62 -1.198,-6.903 -2.208,-11.408 4.359,1.407 6.572,2.049 11.085,3.183 C 24.854,11.1 25.705,10.223 27.361,8.421 20.476,7.254 17.105,6.492 10.552,4.661 7.638,1.582 6.166,0.054 3.252,-3.011 1.957,-1.793 1.313,-1.182 0,0"
             style="fill:#231f20;fill-opacity:1;fill-rule:nonzero;stroke:none"
             id="path262" />
        </g>
        <g
           id="g264"
           transform="translate(333.917,316.3379)">
          <path
             d="M 0,0 C 2.101,3.396 3.119,5.116 5.078,8.614 1.33,7.283 -0.526,6.582 -4.186,5.106 -2.477,3.112 -1.631,2.095 0,0 m -2.739,-13.096 c -1.149,1.669 -1.732,2.492 -2.942,4.112 1.345,2.023 2.006,3.048 3.307,5.119 -2.314,3.009 -3.498,4.469 -5.972,7.282 -2.215,-0.941 -3.333,-1.428 -5.521,-2.422 -1.292,1.427 -1.932,2.124 -3.257,3.492 9.628,4.566 14.637,6.586 24.926,10.025 1.469,-1.722 2.202,-2.603 3.614,-4.395 C 6.26,0.418 3.405,-4.239 -2.739,-13.096"
             style="fill:#231f20;fill-opacity:1;fill-rule:nonzero;stroke:none"
             id="path266" />
        </g>
        <g
           id="g268"
           transform="translate(332.6191,301.147)">
          <path
             d="m 0,0 c 8.354,5.651 12.516,8.486 20.825,14.147 1.199,-1.796 1.778,-2.7 2.914,-4.549 -3.271,-7.444 -5.095,-11.044 -9.064,-17.912 5.916,3.198 8.873,4.794 14.776,7.982 0.988,-1.87 1.48,-2.813 2.422,-4.737 -8.98,-4.499 -13.476,-6.755 -22.491,-11.251 -0.866,1.77 -1.315,2.636 -2.23,4.348 3.934,6.545 5.77,9.972 9.076,17.084 C 10.687,1.589 7.916,-0.177 2.355,-3.691 1.43,-2.193 0.965,-1.456 0,0"
             style="fill:#231f20;fill-opacity:1;fill-rule:nonzero;stroke:none"
             id="path270" />
        </g>
        <g
           id="g272"
           transform="translate(344.166,280.25)">
          <path
             d="m 0,0 c 9.165,4.169 13.742,6.267 22.882,10.443 0.972,-2.129 1.432,-3.22 2.332,-5.4 C 15.94,1.188 11.29,-0.743 1.983,-4.584 1.204,-2.727 0.809,-1.813 0,0"
             style="fill:#231f20;fill-opacity:1;fill-rule:nonzero;stroke:none"
             id="path274" />
        </g>
        <g
           id="g276"
           transform="translate(208.0376,131.5391)">
          <path
             d="m 0,0 c 0,0 -2.907,-4.491 -2.835,-6.247 0.136,-3.266 5.178,-9.18 7.995,-9.203 2.771,-0.014 7.84,5.745 7.988,8.977 0.081,1.692 -2.729,6.022 -2.729,6.022 0,0 0.386,8.049 -1.196,9.649 -1.449,1.469 -6.318,1.585 -7.672,0 C 0.128,7.533 0,0 0,0 m -0.16,11.709 c 1.968,1.927 9.057,1.785 11.17,0 C 13.315,9.779 12.762,0 12.762,0 c 0,0 4.083,-5.247 3.963,-7.31 -0.228,-3.92 -7.598,-10.924 -11.638,-10.893 -4.1,0.016 -11.444,7.197 -11.637,11.159 -0.113,2.154 4.118,7.595 4.118,7.595 0,0 0.198,9.142 2.272,11.158"
             style="fill:#231f20;fill-opacity:1;fill-rule:nonzero;stroke:none"
             id="path278" />
        </g>
        <g
           id="g280"
           transform="translate(228.6572,180.2617)">
          <path
             d="M 0,0 V 0 C 0,0.01 0,0.01 0,0"
             style="fill:#ffffff;fill-opacity:1;fill-rule:evenodd;stroke:none"
             id="path282" />
        </g>
        <g
           id="g284"
           transform="translate(228.6572,180.2617)">
          <path
             d="M 0,0 V 0 C 0.01,-0.021 0.029,-0.073 0,0"
             style="fill:#ffffff;fill-opacity:1;fill-rule:evenodd;stroke:none"
             id="path286" />
        </g>
        <g
           id="g288"
           transform="translate(222.6152,190.9932)">
          <path
             d="m 0,0 c -3.461,5.558 -6.898,11.924 -9.294,19.518 -2.932,-7.786 -1.241,-15.411 0.208,-21.94 1.669,-7.438 3.423,-15.009 -0.486,-26.656 -1.413,-4.276 -5.123,-1.396 -4.045,1.144 6.531,15.245 -1.308,29.676 -3.286,33.882 -1.525,-5.396 -5.785,-11.444 -8.114,-16.657 -3.186,-7.17 -4.404,-16.374 0.066,-23.086 0.845,-1.286 1.905,-2.464 3.197,-3.545 1.017,-0.838 2.166,-1.598 3.476,-2.294 0.77,0.524 1.636,0.979 2.54,1.336 0.258,0.134 0.535,0.237 0.806,0.338 1.696,0.6 3.531,0.946 5.434,0.946 2.744,0 5.34,-0.683 7.582,-1.884 0.412,-0.216 0.807,-0.474 1.216,-0.736 8.226,4.348 10.308,12.191 9.329,19.737 -0.191,1.6 -0.519,3.192 -0.974,4.722 -0.454,1.552 -0.994,3.043 -1.613,4.444 v 0.008 0.014 C 4.39,-7.03 2.25,-3.564 0,0"
             style="fill:#ffffff;fill-opacity:1;fill-rule:evenodd;stroke:none"
             id="path290" />
        </g>
        <g
           id="g292"
           transform="translate(215.3066,220.4409)">
          <path
             d="m 0,0 c 1.977,-14.374 6.756,-19.811 11.158,-27.372 2.289,-3.673 4.511,-7.241 6.273,-11.182 0.004,-0.036 0.014,-0.044 0.022,-0.07 0,0.026 -0.008,0.026 0,0.023 v -0.023 c 0.709,-1.576 1.325,-3.24 1.8,-4.955 0.502,-1.712 0.882,-3.493 1.111,-5.267 1.233,-9.471 -1.638,-19.379 -13.052,-24.534 l -1.331,-0.599 -1.113,0.908 c -0.288,0.243 -0.556,0.444 -0.812,0.612 -0.253,0.181 -0.571,0.357 -0.877,0.534 -1.582,0.85 -3.407,1.342 -5.368,1.342 -1.357,0 -2.663,-0.234 -3.852,-0.664 -0.187,-0.058 -0.378,-0.148 -0.565,-0.202 -0.95,-0.428 -1.844,-0.964 -2.647,-1.622 l -1.118,-0.892 -1.337,0.583 -0.037,0.027 c -2.185,0.989 -4.053,2.172 -5.668,3.513 -1.609,1.32 -2.925,2.8 -3.983,4.417 -5.338,8.041 -4.052,18.656 -0.412,26.833 2.996,6.72 8.358,12.269 9.754,20.718 0.519,2.98 1.058,6.158 3.699,1.011 0.38,-0.724 0.889,-1.681 1.321,-3.218 -1.38,5.326 2.728,16.694 4.192,20.501 C -1.543,3.781 -0.327,4.806 0,0"
             style="fill:#fbd106;fill-opacity:1;fill-rule:evenodd;stroke:none"
             id="path294" />
        </g>
        <g
           id="g296"
           transform="translate(220.1543,149.1689)">
          <path
             d="m 0,0 c 0.294,-0.204 0.606,-0.435 0.931,-0.702 l 0.405,-0.335 0.542,0.241 c 12.482,5.634 13.003,16.848 12.205,23.035 -0.217,1.678 -0.575,3.378 -1.066,5.059 -0.44,1.565 -1.011,3.141 -1.697,4.683 l -0.405,0.577 0.079,0.16 c -1.676,3.631 -3.739,6.93 -5.909,10.416 -0.766,1.3 -1.518,2.524 -2.25,3.713 -3.653,5.883 -7.433,11.981 -9.122,24.232 l -0.006,0.102 C -6.3,71.228 -6.3,71.282 -6.3,71.325 -6.324,71.272 -6.347,71.228 -6.357,71.175 -7.652,67.823 -11.791,56.496 -10.502,51.559 l -2.764,-0.761 c -0.402,1.368 -0.841,2.227 -1.225,2.931 -0.262,0.529 -0.482,0.914 -0.675,1.207 -0.126,-0.588 -0.25,-1.298 -0.331,-1.777 -0.956,-5.751 -3.625,-10.152 -6.196,-14.413 -1.364,-2.254 -2.654,-4.376 -3.658,-6.654 -4.181,-9.371 -4.082,-18.885 0.283,-25.456 1.01,-1.53 2.251,-2.906 3.706,-4.097 1.573,-1.304 3.363,-2.412 5.348,-3.316 l 0.562,-0.26 0.438,0.361 c 0.881,0.717 1.887,1.327 2.968,1.804 l 0.145,0.052 c 0.062,0.021 0.116,0.044 0.191,0.071 0.117,0.057 0.241,0.102 0.364,0.145 1.361,0.474 2.822,0.722 4.294,0.722 2.11,0 4.201,-0.516 6.048,-1.498 L -0.813,0.507 C -0.539,0.347 -0.261,0.175 0,0 m 0.893,-4.37 -1.803,1.466 c -0.251,0.213 -0.475,0.374 -0.679,0.513 l -0.063,0.043 c -0.152,0.113 -0.378,0.24 -0.599,0.369 l -0.135,0.08 c -2.411,1.29 -5.41,1.497 -8.037,0.577 -0.09,-0.033 -0.16,-0.059 -0.211,-0.079 -0.108,-0.05 -0.21,-0.086 -0.311,-0.119 -0.825,-0.364 -1.583,-0.834 -2.258,-1.384 l -1.811,-1.449 -2.299,1.017 c -2.172,0.994 -4.152,2.222 -5.866,3.661 -1.675,1.367 -3.118,2.969 -4.279,4.733 -4.909,7.396 -5.09,17.929 -0.52,28.206 1.085,2.433 2.487,4.732 3.828,6.964 2.44,4.025 4.96,8.195 5.82,13.41 0.417,2.432 0.84,4.94 2.878,4.94 0.823,0 1.506,-0.472 2.148,-1.282 0.796,5.454 3.055,11.772 4.262,14.911 0.871,2.267 1.748,3.77 3.184,3.77 2.087,0 2.306,-2.931 2.419,-4.551 1.605,-11.618 5.06,-17.185 8.7,-23.072 0.749,-1.208 1.514,-2.446 2.272,-3.744 2.08,-3.315 4.231,-6.78 5.98,-10.501 h 0.049 l 0.251,-0.637 0.214,-0.214 v -0.3 c 0.706,-1.608 1.293,-3.251 1.743,-4.881 0.529,-1.795 0.917,-3.653 1.158,-5.47 0.904,-6.966 0.3,-19.62 -13.88,-26.02 z"
             style="fill:#231f20;fill-opacity:1;fill-rule:nonzero;stroke:none"
             id="path298" />
        </g>
        <g
           id="g300"
           transform="translate(209.2246,203.125)">
          <path
             d="m 0,0 c 0,0 6.631,-13.639 7.407,-21.029 0.71,-6.84 -6.674,-21.031 -6.674,-21.031 0,0 3.619,13.223 3.117,20.261 -0.442,6.176 -6.182,18.661 -6.182,18.661 z"
             style="fill:#231f20;fill-opacity:1;fill-rule:nonzero;stroke:none"
             id="path302" />
        </g>
      </g>
    </g>
  </g>
</svg>
